<svg width="200" height="60" viewBox="0 0 200 60" fill="none" xmlns="http://www.w3.org/2000/svg">
<path d="M192.593 0H7.40741C3.31641 0 0 3.35786 0 7.5V52.5C0 56.6421 3.31641 60 7.40741 60H192.593C196.684 60 200 56.6421 200 52.5V7.5C200 3.35786 196.684 0 192.593 0Z" fill="black"/>
<path d="M47.5745 28.9695C47.5336 24.3632 51.2997 22.1222 51.4719 22.0178C49.339 18.8693 46.0331 18.4391 44.8714 18.4048C42.0948 18.1089 39.4016 20.087 37.9872 20.087C36.5446 20.087 34.3665 18.4334 32.0191 18.482C28.9983 18.5291 26.1724 20.2999 24.6225 23.0497C21.4239 28.6565 23.8094 36.8959 26.8739 41.4279C28.4069 43.6475 30.1982 46.1257 32.5428 46.0386C34.8366 45.9428 35.6934 44.5579 38.4615 44.5579C41.2041 44.5579 42.0087 46.0386 44.3999 45.9828C46.8617 45.9428 48.4116 43.7533 49.8909 41.5137C51.6624 38.9697 52.3739 36.4643 52.4021 36.3357C52.3442 36.3156 47.6211 34.4905 47.5745 28.9695Z" fill="white"/>
<path d="M43.0578 15.4235C44.2915 13.8614 45.1356 11.7361 44.9013 9.57947C43.1156 9.6595 40.8825 10.83 39.5966 12.3579C38.4589 13.7042 37.4426 15.9109 37.7051 17.9861C39.7109 18.1376 41.7704 16.9613 43.0578 15.4235Z" fill="white"/>
<path d="M80.7701 45.7196H77.5644L75.8084 40.1328H69.7048L68.0321 45.7196H64.9111L70.9583 26.6997H74.6933L80.7701 45.7196ZM75.2791 37.7889L73.6911 32.8224C73.5231 32.3151 73.2083 31.1203 72.7439 29.2394H72.6874C72.5025 30.0483 72.2047 31.2432 71.7953 32.8224L70.2356 37.7889H75.2791Z" fill="white"/>
<path d="M96.3209 38.6936C96.3209 41.0261 95.6984 42.8698 94.4534 44.2233C93.3382 45.4281 91.9535 46.0298 90.3006 46.0298C88.5163 46.0298 87.2346 45.3809 86.454 44.0832H86.3976V51.3078H83.3881V36.5198C83.3881 35.0534 83.35 33.5485 83.2766 32.0049H85.9233L86.0913 34.1788H86.1477C87.1514 32.5409 88.6744 31.7234 90.7184 31.7234C92.3163 31.7234 93.6502 32.3622 94.7173 33.6414C95.7873 34.922 96.3209 36.6056 96.3209 38.6936ZM93.255 38.8051C93.255 37.4702 92.9585 36.3697 92.3629 35.5036C91.7121 34.6004 90.8384 34.1488 89.743 34.1488C89.0005 34.1488 88.3258 34.4003 87.723 34.8962C87.1189 35.3965 86.7236 36.0496 86.5387 36.8585C86.4456 37.2359 86.399 37.5446 86.399 37.7875V40.0743C86.399 41.0718 86.7011 41.9137 87.3052 42.6011C87.9094 43.2886 88.6942 43.6316 89.6597 43.6316C90.7932 43.6316 91.6754 43.1885 92.3064 42.3053C92.9388 41.4206 93.255 40.2543 93.255 38.8051Z" fill="white"/>
<path d="M111.901 38.6936C111.901 41.0261 111.278 42.8698 110.032 44.2233C108.918 45.4281 107.533 46.0298 105.88 46.0298C104.096 46.0298 102.814 45.3809 102.035 44.0832H101.979V51.3078H98.9692V36.5198C98.9692 35.0534 98.9311 33.5485 98.8577 32.0049H101.504L101.672 34.1788H101.729C102.731 32.5409 104.254 31.7234 106.299 31.7234C107.896 31.7234 109.23 32.3622 110.3 33.6414C111.366 34.922 111.901 36.6056 111.901 38.6936ZM108.835 38.8051C108.835 37.4702 108.537 36.3697 107.941 35.5036C107.29 34.6004 106.419 34.1488 105.323 34.1488C104.579 34.1488 103.905 34.4003 103.301 34.8962C102.697 35.3965 102.303 36.0496 102.118 36.8585C102.027 37.2359 101.979 37.5446 101.979 37.7875V40.0743C101.979 41.0718 102.281 41.9137 102.882 42.6011C103.486 43.2871 104.271 43.6316 105.239 43.6316C106.373 43.6316 107.255 43.1885 107.886 42.3053C108.518 41.4206 108.835 40.2543 108.835 38.8051Z" fill="white"/>
<path d="M129.32 40.3859C129.32 42.0038 128.765 43.3201 127.651 44.3362C126.427 45.4467 124.724 46.0013 122.534 46.0013C120.513 46.0013 118.892 45.6068 117.666 44.8164L118.363 42.2767C119.684 43.0857 121.134 43.4916 122.714 43.4916C123.847 43.4916 124.729 43.2314 125.363 42.7141C125.994 42.1967 126.309 41.5021 126.309 40.636C126.309 39.8642 126.049 39.2139 125.528 38.6866C125.01 38.1592 124.145 37.669 122.937 37.2159C119.648 35.9739 118.005 34.1545 118.005 31.762C118.005 30.1985 118.58 28.9165 119.734 27.9189C120.883 26.9199 122.416 26.4211 124.333 26.4211C126.042 26.4211 127.462 26.7226 128.596 27.3243L127.843 29.8083C126.784 29.2252 125.587 28.9336 124.248 28.9336C123.189 28.9336 122.362 29.198 121.769 29.724C121.268 30.1942 121.017 30.7673 121.017 31.4462C121.017 32.1979 121.303 32.8197 121.879 33.3084C122.38 33.7601 123.291 34.2489 124.612 34.7762C126.228 35.4351 127.415 36.2055 128.179 37.0887C128.94 37.9691 129.32 39.071 129.32 40.3859Z" fill="white"/>
<path d="M139.27 34.2918H135.953V40.9505C135.953 42.6441 136.537 43.4902 137.709 43.4902C138.246 43.4902 138.692 43.443 139.045 43.3487L139.129 45.6626C138.536 45.887 137.755 45.9999 136.788 45.9999C135.6 45.9999 134.671 45.6326 134 44.8994C133.333 44.1648 132.997 42.9328 132.997 41.202V34.2889H131.021V32.0022H132.997V29.4911L135.953 28.5878V32.0022H139.27V34.2918Z" fill="white"/>
<path d="M154.236 38.7495C154.236 40.8576 153.641 42.5884 152.452 43.9419C151.206 45.3353 149.551 46.0299 147.489 46.0299C145.502 46.0299 143.919 45.3625 142.739 44.0276C141.559 42.6927 140.969 41.0077 140.969 38.9768C140.969 36.8515 141.576 35.1108 142.794 33.7573C144.01 32.4024 145.65 31.725 147.712 31.725C149.7 31.725 151.299 32.3924 152.506 33.7287C153.66 35.025 154.236 36.6986 154.236 38.7495ZM151.114 38.8482C151.114 37.5833 150.847 36.4985 150.306 35.5938C149.676 34.4991 148.774 33.9531 147.605 33.9531C146.395 33.9531 145.476 34.5005 144.845 35.5938C144.305 36.5 144.038 37.6019 144.038 38.9053C144.038 40.1702 144.305 41.2549 144.845 42.1582C145.496 43.253 146.405 43.7989 147.578 43.7989C148.727 43.7989 149.629 43.2415 150.28 42.1296C150.834 41.2078 151.114 40.1116 151.114 38.8482Z" fill="white"/>
<path d="M164.018 34.6847C163.72 34.629 163.403 34.6004 163.07 34.6004C162.011 34.6004 161.192 35.0049 160.616 35.8152C160.115 36.5298 159.864 37.4331 159.864 38.5236V45.7196H156.856L156.884 36.324C156.884 34.7433 156.846 33.3041 156.771 32.0064H159.393L159.503 34.6304H159.586C159.904 33.7286 160.405 33.0025 161.091 32.458C161.761 31.9678 162.485 31.7234 163.266 31.7234C163.544 31.7234 163.795 31.7434 164.018 31.7791V34.6847Z" fill="white"/>
<path d="M177.477 38.2135C177.477 38.7595 177.442 39.2197 177.367 39.5956H168.339C168.374 40.9505 168.81 41.9866 169.649 42.7012C170.41 43.3401 171.393 43.6602 172.602 43.6602C173.938 43.6602 175.158 43.4444 176.255 43.0114L176.726 45.1266C175.445 45.6926 173.931 45.9741 172.185 45.9741C170.085 45.9741 168.436 45.3481 167.236 44.0976C166.039 42.847 165.439 41.1677 165.439 39.061C165.439 36.993 165.997 35.2708 167.114 33.8973C168.282 32.4309 169.862 31.6978 171.849 31.6978C173.802 31.6978 175.279 32.4309 176.283 33.8973C177.078 35.0621 177.477 36.5028 177.477 38.2135ZM174.608 37.4232C174.627 36.5199 174.431 35.7396 174.023 35.0807C173.502 34.2332 172.702 33.8101 171.625 33.8101C170.641 33.8101 169.841 34.2232 169.23 35.0521C168.728 35.711 168.431 36.5013 168.339 37.4217H174.608V37.4232Z" fill="white"/>
<path d="M74.2842 14.999C74.2842 16.6812 73.786 17.9474 72.7908 18.7978C71.8691 19.5825 70.5591 19.9755 68.8624 19.9755C68.0211 19.9755 67.3012 19.9383 66.6985 19.864V10.6728C67.4847 10.5441 68.3317 10.4784 69.2464 10.4784C70.8626 10.4784 72.0808 10.8343 72.9023 11.546C73.8227 12.3507 74.2842 13.5012 74.2842 14.999ZM72.7245 15.0404C72.7245 13.9499 72.4393 13.1139 71.8691 12.5307C71.2988 11.949 70.466 11.6575 69.3692 11.6575C68.9034 11.6575 68.5067 11.6889 68.1778 11.7547V18.7421C68.3599 18.7707 68.693 18.7835 69.1772 18.7835C70.3093 18.7835 71.183 18.4648 71.7985 17.8274C72.4139 17.19 72.7245 16.261 72.7245 15.0404Z" fill="white"/>
<path d="M82.5548 16.4682C82.5548 17.5044 82.2626 18.3533 81.6782 19.0193C81.0656 19.7039 80.2539 20.0455 79.2404 20.0455C78.2636 20.0455 77.4859 19.7182 76.9057 19.0608C76.327 18.4048 76.0376 17.5772 76.0376 16.5797C76.0376 15.5363 76.3354 14.6802 76.9339 14.0157C77.5324 13.3511 78.337 13.0181 79.3505 13.0181C80.3273 13.0181 81.1122 13.3454 81.7064 14.0014C82.2711 14.6388 82.5548 15.462 82.5548 16.4682ZM81.0204 16.5168C81.0204 15.8951 80.8877 15.362 80.6238 14.9175C80.3132 14.3801 79.8714 14.1114 79.2969 14.1114C78.7026 14.1114 78.2509 14.3801 77.9404 14.9175C77.675 15.362 77.5437 15.9036 77.5437 16.5439C77.5437 17.1656 77.6764 17.6987 77.9404 18.1432C78.2608 18.6806 78.7069 18.9493 79.2828 18.9493C79.8474 18.9493 80.2906 18.6763 80.6097 18.1289C80.8835 17.6759 81.0204 17.1385 81.0204 16.5168Z" fill="white"/>
<path d="M93.6442 13.1552L91.5621 19.8924H90.207L89.3445 16.9669C89.1257 16.2365 88.9479 15.5105 88.8096 14.7902H88.7827C88.6543 15.5305 88.4764 16.2551 88.2477 16.9669L87.3316 19.8924H85.961L84.0032 13.1552H85.5234L86.2758 16.358C86.4579 17.1155 86.6075 17.8372 86.7275 18.5204H86.7543C86.8644 17.9573 87.0465 17.2398 87.3034 16.3723L88.2477 13.1566H89.4532L90.358 16.3037C90.5768 17.0712 90.7547 17.8101 90.8916 18.5218H90.9325C91.0328 17.8287 91.1838 17.0898 91.3842 16.3037L92.1917 13.1566H93.6442V13.1552Z" fill="white"/>
<path d="M101.313 19.8925H99.8337V16.0337C99.8337 14.8446 99.3877 14.25 98.4927 14.25C98.0537 14.25 97.6994 14.4129 97.4242 14.7402C97.1518 15.0675 97.0134 15.4534 97.0134 15.895V19.8911H95.5341V15.0804C95.5341 14.4887 95.5158 13.847 95.4805 13.1524H96.7805L96.8497 14.2057H96.8906C97.0628 13.8784 97.3197 13.6083 97.6571 13.3925C98.058 13.1409 98.5069 13.0137 98.9981 13.0137C99.6192 13.0137 100.136 13.2167 100.547 13.624C101.058 14.1228 101.313 14.8674 101.313 15.8564V19.8925Z" fill="white"/>
<path d="M105.392 19.8926H103.915V10.0639H105.392V19.8926Z" fill="white"/>
<path d="M114.102 16.4682C114.102 17.5044 113.81 18.3533 113.225 19.0193C112.613 19.7039 111.8 20.0455 110.788 20.0455C109.809 20.0455 109.032 19.7182 108.453 19.0608C107.874 18.4048 107.585 17.5772 107.585 16.5797C107.585 15.5363 107.883 14.6802 108.481 14.0157C109.08 13.3511 109.884 13.0181 110.896 13.0181C111.874 13.0181 112.658 13.3454 113.254 14.0014C113.818 14.6388 114.102 15.462 114.102 16.4682ZM112.566 16.5168C112.566 15.8951 112.433 15.362 112.169 14.9175C111.86 14.3801 111.417 14.1114 110.844 14.1114C110.248 14.1114 109.797 14.3801 109.488 14.9175C109.222 15.362 109.091 15.9036 109.091 16.5439C109.091 17.1656 109.224 17.6987 109.488 18.1432C109.808 18.6806 110.254 18.9493 110.83 18.9493C111.395 18.9493 111.836 18.6763 112.155 18.1289C112.431 17.6759 112.566 17.1385 112.566 16.5168Z" fill="white"/>
<path d="M121.261 19.8926H119.933L119.823 19.1165H119.782C119.327 19.7354 118.679 20.0455 117.838 20.0455C117.21 20.0455 116.702 19.8411 116.319 19.4352C115.972 19.0665 115.798 18.6077 115.798 18.0632C115.798 17.24 116.137 16.6125 116.819 16.178C117.499 15.7436 118.456 15.5306 119.689 15.5406V15.4149C119.689 14.5273 119.228 14.0843 118.307 14.0843C117.65 14.0843 117.072 14.2515 116.572 14.5831L116.271 13.5998C116.889 13.2124 117.653 13.0181 118.554 13.0181C120.293 13.0181 121.165 13.9471 121.165 15.805V18.2861C121.165 18.9593 121.198 19.4952 121.261 19.8926ZM119.725 17.5772V16.5382C118.094 16.5096 117.278 16.9627 117.278 17.896C117.278 18.2475 117.371 18.5105 117.561 18.6863C117.752 18.8621 117.995 18.9493 118.284 18.9493C118.609 18.9493 118.912 18.845 119.189 18.6377C119.467 18.4291 119.638 18.1646 119.701 17.8402C119.717 17.7673 119.725 17.6787 119.725 17.5772Z" fill="white"/>
<path d="M129.667 19.8926H128.354L128.285 18.8107H128.244C127.825 19.6339 127.11 20.0455 126.107 20.0455C125.305 20.0455 124.637 19.7268 124.108 19.0894C123.579 18.4519 123.315 17.6244 123.315 16.6083C123.315 15.5178 123.601 14.6345 124.177 13.9599C124.735 13.3311 125.418 13.0166 126.231 13.0166C127.125 13.0166 127.75 13.3211 128.106 13.9313H128.134V10.0639H129.615V18.0775C129.615 18.7335 129.631 19.338 129.667 19.8926ZM128.134 17.0513V15.928C128.134 15.7336 128.12 15.5764 128.093 15.4563C128.01 15.0962 127.83 14.7932 127.558 14.5488C127.283 14.3044 126.951 14.1815 126.568 14.1815C126.016 14.1815 125.584 14.403 125.267 14.8475C124.952 15.292 124.793 15.8593 124.793 16.5525C124.793 17.2185 124.944 17.7588 125.247 18.1747C125.568 18.6177 125.999 18.8392 126.54 18.8392C127.026 18.8392 127.414 18.6549 127.709 18.2847C127.994 17.9431 128.134 17.5315 128.134 17.0513Z" fill="white"/>
<path d="M142.319 16.4682C142.319 17.5044 142.027 18.3533 141.443 19.0193C140.83 19.7039 140.02 20.0455 139.005 20.0455C138.029 20.0455 137.252 19.7182 136.67 19.0608C136.091 18.4048 135.802 17.5772 135.802 16.5797C135.802 15.5363 136.1 14.6802 136.698 14.0157C137.297 13.3511 138.101 13.0181 139.116 13.0181C140.092 13.0181 140.878 13.3454 141.471 14.0014C142.035 14.6388 142.319 15.462 142.319 16.4682ZM140.786 16.5168C140.786 15.8951 140.654 15.362 140.39 14.9175C140.078 14.3801 139.637 14.1114 139.061 14.1114C138.468 14.1114 138.017 14.3801 137.705 14.9175C137.439 15.362 137.308 15.9036 137.308 16.5439C137.308 17.1656 137.441 17.6987 137.705 18.1432C138.025 18.6806 138.471 18.9493 139.047 18.9493C139.612 18.9493 140.056 18.6763 140.375 18.1289C140.648 17.6759 140.786 17.1385 140.786 16.5168Z" fill="white"/>
<path d="M150.273 19.8925H148.795V16.0337C148.795 14.8446 148.349 14.25 147.453 14.25C147.014 14.25 146.659 14.4129 146.386 14.7402C146.112 15.0675 145.975 15.4534 145.975 15.895V19.8911H144.494V15.0804C144.494 14.4887 144.477 13.847 144.442 13.1524H145.741L145.81 14.2057H145.851C146.024 13.8784 146.281 13.6083 146.617 13.3925C147.019 13.1409 147.467 13.0137 147.96 13.0137C148.579 13.0137 149.096 13.2167 149.507 13.624C150.019 14.1228 150.273 14.8674 150.273 15.8564V19.8925Z" fill="white"/>
<path d="M160.228 14.2771H158.599V17.55C158.599 18.3818 158.889 18.7977 159.462 18.7977C159.727 18.7977 159.947 18.7748 160.121 18.7277L160.159 19.8639C159.867 19.9754 159.483 20.0311 159.01 20.0311C158.426 20.0311 157.971 19.851 157.642 19.4909C157.312 19.1307 157.148 18.5247 157.148 17.6743V14.2771H156.176V13.1552H157.148V11.9203L158.598 11.4773V13.1538H160.227V14.2771H160.228Z" fill="white"/>
<path d="M168.06 19.8926H166.579V16.0623C166.579 14.8546 166.133 14.2501 165.24 14.2501C164.554 14.2501 164.085 14.6002 163.828 15.3005C163.785 15.4477 163.759 15.6278 163.759 15.8393V19.8911H162.281V10.0639H163.759V14.1243H163.787C164.253 13.3854 164.921 13.0167 165.786 13.0167C166.399 13.0167 166.906 13.2196 167.308 13.6269C167.809 14.1343 168.06 14.8889 168.06 15.8865V19.8926Z" fill="white"/>
<path d="M176.139 16.2051C176.139 16.4738 176.119 16.6996 176.084 16.884H171.647C171.667 17.55 171.879 18.0574 172.29 18.409C172.665 18.7234 173.149 18.8806 173.742 18.8806C174.399 18.8806 174.997 18.7748 175.536 18.5619L175.768 19.6024C175.137 19.8796 174.394 20.0183 173.535 20.0183C172.504 20.0183 171.693 19.711 171.105 19.0964C170.515 18.4819 170.223 17.6572 170.223 16.6225C170.223 15.6063 170.496 14.7602 171.045 14.0856C171.618 13.3653 172.393 13.0051 173.371 13.0051C174.328 13.0051 175.055 13.3653 175.546 14.0856C175.943 14.6573 176.139 15.3648 176.139 16.2051ZM174.727 15.8178C174.739 15.3733 174.641 14.9903 174.441 14.6673C174.184 14.2514 173.793 14.0427 173.264 14.0427C172.781 14.0427 172.387 14.2457 172.086 14.653C171.841 14.9774 171.695 15.3648 171.647 15.8178H174.727Z" fill="white"/>
</svg>
