<svg width="164" height="46" viewBox="0 0 164 46" fill="none" xmlns="http://www.w3.org/2000/svg">
<path d="M78.7373 11.5984C79.2178 11.6929 79.5742 11.8583 79.8067 12.0945C80.0547 12.3307 80.1786 12.6063 80.1786 12.9213C80.1786 13.4409 80.0314 13.8189 79.7369 14.0551C79.458 14.2913 79.0085 14.3858 78.3886 14.3386C76.9938 14.2283 75.9011 14.1575 75.1107 14.126C74.3358 14.0787 73.3129 14.0472 72.0421 14.0315C71.4687 16.9291 70.9417 19.8425 70.4613 22.7717C70.2908 23.8425 70.1126 25.0866 69.9266 26.5039C69.7406 27.9055 69.6166 29.0394 69.5546 29.9055C69.5236 30.3622 69.3377 30.7165 68.9967 30.9685C68.6557 31.2047 68.245 31.3228 67.7646 31.3228C67.2532 31.3228 66.8579 31.1969 66.579 30.9449C66.3 30.6929 66.1605 30.3622 66.1605 29.9528C66.1605 29.5748 66.2148 28.9528 66.3233 28.0866C66.4472 27.2047 66.5867 26.2835 66.7417 25.3228C66.9122 24.3622 67.0439 23.5276 67.1369 22.8189C67.3074 21.622 67.5011 20.4331 67.7181 19.252C67.9351 18.0709 68.152 16.9528 68.369 15.8976C68.4155 15.6614 68.4698 15.3937 68.5318 15.0945C68.5937 14.7795 68.6635 14.4331 68.741 14.0551C67.2222 14.1024 66.0288 14.2283 65.1609 14.4331C64.293 14.6378 63.6731 14.9291 63.3011 15.3071C62.9447 15.6693 62.7664 16.1417 62.7664 16.7244C62.7664 17.2598 62.9214 17.7717 63.2314 18.2598C63.2934 18.3701 63.3244 18.4882 63.3244 18.6142C63.3244 18.9134 63.1461 19.1969 62.7897 19.4646C62.4487 19.7165 62.0923 19.8425 61.7203 19.8425C61.4568 19.8425 61.2399 19.7638 61.0694 19.6063C60.7594 19.3386 60.5037 18.9606 60.3022 18.4724C60.1007 17.9685 60 17.4016 60 16.7717C60 15.4331 60.4262 14.3622 61.2786 13.5591C62.1465 12.7402 63.4561 12.1417 65.2074 11.7638C66.9742 11.3858 69.2369 11.1969 71.9956 11.1969C73.7004 11.1969 75.0565 11.2283 76.0639 11.2913C77.0868 11.3543 77.9779 11.4567 78.7373 11.5984Z" fill="#313336"/>
<path d="M86.2792 23.9528C86.4807 23.9528 86.6357 24.0551 86.7442 24.2598C86.8527 24.4646 86.9069 24.7244 86.9069 25.0394C86.9069 25.7953 86.6822 26.2441 86.2327 26.3858C85.3029 26.7165 84.28 26.9055 83.1641 26.9528C82.8696 28.2756 82.2885 29.3386 81.4206 30.1417C80.5527 30.9291 79.5685 31.3228 78.4682 31.3228C77.5383 31.3228 76.7401 31.0945 76.0737 30.6378C75.4228 30.1811 74.9268 29.5748 74.5859 28.8189C74.2449 28.063 74.0744 27.2441 74.0744 26.3622C74.0744 25.1654 74.2991 24.1024 74.7486 23.1732C75.198 22.2283 75.818 21.4961 76.6084 20.9764C77.3988 20.4409 78.2744 20.1732 79.2353 20.1732C80.4132 20.1732 81.3586 20.5906 82.0715 21.4252C82.7999 22.2441 83.2261 23.2598 83.3501 24.4724C84.0785 24.4252 84.9464 24.2677 85.9538 24C86.0778 23.9685 86.1863 23.9528 86.2792 23.9528ZM78.6541 28.8189C79.1501 28.8189 79.5763 28.6142 79.9327 28.2047C80.3047 27.7953 80.5527 27.2047 80.6766 26.4331C80.1962 26.1024 79.8242 25.6693 79.5608 25.1339C79.3128 24.5984 79.1888 24.0315 79.1888 23.4331C79.1888 23.1811 79.2121 22.9291 79.2586 22.6772H79.1423C78.5224 22.6772 78.0032 22.9843 77.5848 23.5984C77.1818 24.1969 76.9803 25.0472 76.9803 26.1496C76.9803 27.0158 77.1431 27.6772 77.4685 28.1339C77.8095 28.5906 78.2047 28.8189 78.6541 28.8189Z" fill="#313336"/>
<path d="M97.3257 25.937C97.5272 25.937 97.6822 26.0315 97.7906 26.2205C97.9146 26.4094 97.9766 26.6693 97.9766 27C97.9766 27.6299 97.8294 28.1181 97.5349 28.4646C96.8685 29.2992 96.1478 29.9843 95.3729 30.5197C94.6135 31.0551 93.7456 31.3228 92.7692 31.3228C91.9478 31.3228 91.2814 31.0236 90.77 30.4252C89.8866 31.0079 88.9644 31.3071 88.0035 31.3228C87.8021 34.3622 87.3449 36.8976 86.6319 38.9291C85.919 40.9764 84.8729 42 83.4936 42C82.6567 42 82.0367 41.6929 81.6338 41.0787C81.2308 40.4646 81.0294 39.6142 81.0294 38.5276C81.0294 36.9843 81.3781 35.1811 82.0755 33.1181C82.7729 31.0709 83.85 28.811 85.3068 26.3386C85.3068 24.0394 85.2914 22.4409 85.2604 21.5433C85.2449 21.0866 85.4231 20.7244 85.795 20.4567C86.167 20.189 86.6319 20.0551 87.1899 20.0551C87.5153 20.0551 87.7478 20.126 87.8873 20.2677C88.0423 20.3937 88.1275 20.6535 88.143 21.0472C88.143 21.4409 88.1508 21.7323 88.1663 21.9213C88.6622 21.2913 89.1504 20.8425 89.6308 20.5748C90.1113 20.2913 90.6227 20.1496 91.1652 20.1496C92.0331 20.1496 92.7382 20.5039 93.2807 21.2126C93.8386 21.9213 94.1176 22.8504 94.1176 24C94.1176 24.8346 93.9858 25.6457 93.7224 26.4331C93.4589 27.2205 93.0947 27.937 92.6297 28.5827C92.9552 28.6772 93.2264 28.7244 93.4434 28.7244C93.9548 28.7244 94.443 28.5354 94.908 28.1575C95.3729 27.7795 95.9696 27.1496 96.698 26.2677C96.884 26.0472 97.0932 25.937 97.3257 25.937ZM88.1198 29.0551C88.6777 28.9291 89.1891 28.622 89.6541 28.1339C90.1345 27.6299 90.5142 27.0157 90.7932 26.2913C91.0722 25.5512 91.2117 24.7795 91.2117 23.9764C91.2117 23.5039 91.1187 23.1496 90.9327 22.9134C90.7467 22.6614 90.4987 22.5354 90.1888 22.5354C89.6308 22.5354 88.9567 23.1339 88.1663 24.3307C88.1508 25.0236 88.143 26.0394 88.143 27.378C88.143 28.1024 88.1353 28.6614 88.1198 29.0551ZM83.6795 39.685C84.098 39.685 84.4467 38.7559 84.7257 36.8976C85.0046 35.0551 85.1829 32.7559 85.2604 30C84.5939 31.5748 84.067 33.0787 83.6795 34.5118C83.2921 35.9449 83.0984 37.1496 83.0984 38.126C83.0984 38.6299 83.1603 39.0158 83.2843 39.2835C83.3928 39.5512 83.5246 39.685 83.6795 39.685Z" fill="#313336"/>
<path d="M115.608 11.622C116.042 11.685 116.337 11.8189 116.492 12.0236C116.662 12.2283 116.748 12.4961 116.748 12.8268C116.748 13.9134 116.174 14.4173 115.027 14.3386L114.214 14.2677C113.299 14.189 112.385 14.126 111.47 14.0787C110.572 14.0315 109.626 14.0079 108.634 14.0079H107.588C107.402 16.3386 107.208 18.4646 107.007 20.3858L111.005 20.315C111.579 20.315 111.959 20.4173 112.145 20.622C112.346 20.8268 112.447 21.1024 112.447 21.4488C112.447 21.9843 112.292 22.4094 111.982 22.7244C111.672 23.0236 111.23 23.1732 110.657 23.1732H106.681L106.542 24.189C106.217 26.7874 105.519 28.6378 104.45 29.7402C103.396 30.8425 101.939 31.3937 100.079 31.3937C99.0254 31.3937 98.0567 31.1654 97.1733 30.7087C96.2899 30.2362 95.639 29.6693 95.2205 29.0079C95.0501 28.7402 94.9648 28.4173 94.9648 28.0394C94.9648 27.6614 95.0501 27.3307 95.2205 27.0472C95.4065 26.7638 95.6312 26.622 95.8947 26.622C96.0807 26.622 96.2589 26.685 96.4294 26.811C96.6154 26.937 96.8479 27.1811 97.1268 27.5433C97.8707 28.5354 98.7929 29.0315 99.8932 29.0315C100.777 29.0315 101.513 28.6693 102.102 27.9449C102.706 27.2047 103.094 26.0472 103.264 24.4724L103.404 23.1732H102.288C101.931 23.1732 101.621 23.0709 101.358 22.8661C101.11 22.6614 100.986 22.3701 100.986 21.9921C100.986 21.5039 101.11 21.1339 101.358 20.8819C101.606 20.6142 101.97 20.4803 102.45 20.4803C102.884 20.4803 103.311 20.4724 103.729 20.4567C103.915 18.7244 104.117 16.622 104.333 14.1496C102.66 14.3071 101.482 14.5827 100.8 14.9764C100.118 15.3701 99.777 15.9528 99.777 16.7244C99.777 17.2598 99.932 17.7717 100.242 18.2598C100.335 18.4016 100.381 18.5433 100.381 18.685C100.381 18.9685 100.226 19.2205 99.9165 19.4409C99.6065 19.6457 99.2578 19.748 98.8704 19.748C98.4519 19.748 98.0955 19.622 97.801 19.3701C97.615 19.2126 97.4368 18.8898 97.2663 18.4016C97.0958 17.9134 97.0106 17.3701 97.0106 16.7717C97.0106 14.8189 97.9947 13.4016 99.963 12.5197C101.947 11.6378 104.837 11.1969 108.634 11.1969C111.269 11.1969 113.594 11.3386 115.608 11.622Z" fill="#313336"/>
<path d="M124.283 23.9528C124.485 23.9528 124.64 24.0551 124.748 24.2598C124.857 24.4646 124.911 24.7244 124.911 25.0394C124.911 25.7953 124.686 26.2441 124.237 26.3858C123.307 26.7165 122.284 26.9055 121.168 26.9528C120.874 28.2756 120.292 29.3386 119.424 30.1417C118.557 30.9291 117.572 31.3228 116.472 31.3228C115.542 31.3228 114.744 31.0945 114.078 30.6378C113.427 30.1811 112.931 29.5748 112.59 28.8189C112.249 28.063 112.078 27.2441 112.078 26.3622C112.078 25.1654 112.303 24.1024 112.752 23.1732C113.202 22.2283 113.822 21.4961 114.612 20.9764C115.403 20.4409 116.278 20.1732 117.239 20.1732C118.417 20.1732 119.362 20.5906 120.075 21.4252C120.804 22.2441 121.23 23.2598 121.354 24.4724C122.082 24.4252 122.95 24.2677 123.958 24C124.082 23.9685 124.19 23.9528 124.283 23.9528ZM116.658 28.8189C117.154 28.8189 117.58 28.6142 117.937 28.2047C118.309 27.7953 118.557 27.2047 118.681 26.4331C118.2 26.1024 117.828 25.6693 117.565 25.1339C117.317 24.5984 117.193 24.0315 117.193 23.4331C117.193 23.1811 117.216 22.9291 117.262 22.6772H117.146C116.526 22.6772 116.007 22.9843 115.589 23.5984C115.186 24.1969 114.984 25.0472 114.984 26.1496C114.984 27.0158 115.147 27.6772 115.472 28.1339C115.813 28.5906 116.209 28.8189 116.658 28.8189Z" fill="#313336"/>
<path d="M131.726 25.937C131.928 25.937 132.083 26.0315 132.191 26.2205C132.315 26.4094 132.377 26.6693 132.377 27C132.377 27.6299 132.23 28.1181 131.935 28.4646C131.269 29.2992 130.541 29.9843 129.75 30.5197C128.975 31.0551 128.092 31.3228 127.1 31.3228C125.736 31.3228 124.721 30.6929 124.055 29.4331C123.404 28.1732 123.078 26.5433 123.078 24.5433C123.078 22.622 123.318 20.4331 123.799 17.9764C124.295 15.5197 125.016 13.4094 125.961 11.6457C126.922 9.88189 128.061 9 129.378 9C130.122 9 130.703 9.35433 131.122 10.063C131.556 10.7559 131.773 11.7559 131.773 13.063C131.773 14.937 131.261 17.1102 130.238 19.5827C129.216 22.0551 127.828 24.5039 126.077 26.9291C126.186 27.5748 126.364 28.0394 126.612 28.3228C126.86 28.5906 127.185 28.7244 127.588 28.7244C128.224 28.7244 128.782 28.5433 129.262 28.1811C129.742 27.8032 130.355 27.1654 131.099 26.2677C131.285 26.0472 131.494 25.937 131.726 25.937ZM128.867 11.3386C128.51 11.3386 128.107 11.9921 127.658 13.2992C127.209 14.6063 126.813 16.2283 126.472 18.1654C126.131 20.1024 125.945 21.9606 125.914 23.7402C127.015 21.8976 127.89 20.0551 128.541 18.2126C129.192 16.3543 129.518 14.6614 129.518 13.1339C129.518 11.937 129.301 11.3386 128.867 11.3386Z" fill="#313336"/>
<path d="M139.309 25.937C139.51 25.937 139.665 26.0315 139.774 26.2205C139.898 26.4094 139.96 26.6693 139.96 27C139.96 27.6299 139.813 28.1181 139.518 28.4646C138.852 29.2992 138.123 29.9843 137.333 30.5197C136.558 31.0551 135.675 31.3228 134.683 31.3228C133.319 31.3228 132.304 30.6929 131.637 29.4331C130.986 28.1732 130.661 26.5433 130.661 24.5433C130.661 22.622 130.901 20.4331 131.382 17.9764C131.877 15.5197 132.598 13.4094 133.544 11.6457C134.504 9.88189 135.644 9 136.961 9C137.705 9 138.286 9.35433 138.704 10.063C139.138 10.7559 139.355 11.7559 139.355 13.063C139.355 14.937 138.844 17.1102 137.821 19.5827C136.798 22.0551 135.411 24.5039 133.66 26.9291C133.768 27.5748 133.946 28.0394 134.194 28.3228C134.442 28.5906 134.768 28.7244 135.171 28.7244C135.806 28.7244 136.364 28.5433 136.845 28.1811C137.325 27.8032 137.937 27.1654 138.681 26.2677C138.867 26.0472 139.076 25.937 139.309 25.937ZM136.449 11.3386C136.093 11.3386 135.69 11.9921 135.241 13.2992C134.791 14.6063 134.396 16.2283 134.055 18.1654C133.714 20.1024 133.528 21.9606 133.497 23.7402C134.597 21.8976 135.473 20.0551 136.124 18.2126C136.775 16.3543 137.1 14.6614 137.1 13.1339C137.1 11.937 136.883 11.3386 136.449 11.3386Z" fill="#313336"/>
<path d="M149.937 23.9528C150.138 23.9528 150.293 24.0551 150.402 24.2598C150.51 24.4646 150.565 24.7244 150.565 25.0394C150.565 25.7953 150.34 26.2441 149.89 26.3858C148.96 26.7165 147.938 26.9055 146.822 26.9528C146.527 28.2756 145.946 29.3386 145.078 30.1417C144.21 30.9291 143.226 31.3228 142.126 31.3228C141.196 31.3228 140.398 31.0945 139.731 30.6378C139.08 30.1811 138.584 29.5748 138.243 28.8189C137.903 28.063 137.732 27.2441 137.732 26.3622C137.732 25.1654 137.957 24.1024 138.406 23.1732C138.856 22.2283 139.476 21.4961 140.266 20.9764C141.056 20.4409 141.932 20.1732 142.893 20.1732C144.071 20.1732 145.016 20.5906 145.729 21.4252C146.458 22.2441 146.884 23.2598 147.008 24.4724C147.736 24.4252 148.604 24.2677 149.611 24C149.735 23.9685 149.844 23.9528 149.937 23.9528ZM142.312 28.8189C142.808 28.8189 143.234 28.6142 143.59 28.2047C143.962 27.7953 144.21 27.2047 144.334 26.4331C143.854 26.1024 143.482 25.6693 143.218 25.1339C142.97 24.5984 142.846 24.0315 142.846 23.4331C142.846 23.1811 142.87 22.9291 142.916 22.6772H142.8C142.18 22.6772 141.661 22.9843 141.242 23.5984C140.839 24.1969 140.638 25.0472 140.638 26.1496C140.638 27.0158 140.801 27.6772 141.126 28.1339C141.467 28.5906 141.862 28.8189 142.312 28.8189Z" fill="#313336"/>
<path d="M162.721 20.1732C163.574 20.1732 164 20.4488 164 21C164 21.189 163.938 21.4488 163.814 21.7795C162.559 24.7559 161.373 27.1575 160.257 28.9843C159.699 29.8819 159.196 30.4961 158.746 30.8268C158.297 31.1575 157.785 31.3228 157.212 31.3228C156.592 31.3228 156.127 31.0787 155.817 30.5906C155.522 30.1024 155.337 29.2992 155.259 28.1811C155.228 27.7717 155.197 27.1575 155.166 26.3386C154.686 27.6929 154.244 28.7323 153.841 29.4567C153.453 30.1654 153.066 30.6535 152.679 30.9213C152.307 31.189 151.857 31.3228 151.33 31.3228C150.695 31.3228 150.191 31.0709 149.819 30.5669C149.463 30.063 149.238 29.2677 149.145 28.1811C148.959 25.9764 148.866 24.0472 148.866 22.3937V21.5669C148.882 21.0315 149.013 20.6693 149.261 20.4803C149.509 20.2756 149.912 20.1732 150.47 20.1732C150.873 20.1732 151.168 20.2677 151.353 20.4567C151.555 20.6299 151.656 20.9291 151.656 21.3543C151.656 23.1654 151.764 25.5197 151.981 28.4173C152.493 27.315 152.965 26.2598 153.399 25.252C153.833 24.2441 154.337 22.9528 154.91 21.378C155.081 20.9055 155.282 20.5906 155.515 20.4331C155.763 20.2598 156.049 20.1732 156.375 20.1732C156.809 20.1732 157.134 20.2677 157.351 20.4567C157.568 20.6299 157.677 20.9291 157.677 21.3543V25.0157C157.677 26.5906 157.684 27.7244 157.7 28.4173C158.413 27.1575 158.994 26.063 159.444 25.1339C159.908 24.2047 160.428 22.9528 161.001 21.378C161.172 20.9055 161.396 20.5906 161.675 20.4331C161.954 20.2598 162.303 20.1732 162.721 20.1732Z" fill="#313336"/>
<rect width="46" height="46" rx="4" fill="#ED017F"/>
<path d="M35.6201 12.612C34.0671 10.9277 31.9362 10 29.6195 10C27.8878 10 26.3018 10.5475 24.9057 11.6271C24.2012 12.1721 23.5628 12.8388 23 13.617C22.4374 12.8391 21.7988 12.1721 21.0941 11.6271C19.6982 10.5475 18.1122 10 16.3805 10C14.0638 10 11.9326 10.9277 10.3797 12.612C8.84526 14.2767 8 16.5508 8 19.0159C8 21.553 8.94551 23.8755 10.9755 26.325C12.7914 28.5161 15.4014 30.7404 18.4237 33.316C19.4558 34.1956 20.6256 35.1926 21.8403 36.2546C22.1611 36.5356 22.5729 36.6904 23 36.6904C23.4269 36.6904 23.8389 36.5356 24.1593 36.255C25.374 35.1928 26.5445 34.1953 27.577 33.3153C30.5989 30.7401 33.2088 28.5161 35.0248 26.3248C37.0547 23.8755 38 21.553 38 19.0157C38 16.5508 37.1547 14.2767 35.6201 12.612Z" fill="white"/>
</svg>
