<svg width="49" height="44" viewBox="0 0 49 44" fill="none" xmlns="http://www.w3.org/2000/svg">
<path d="M19.6853 8.57922C20.9106 8.06535 21.4245 6.60279 20.8711 5.41693L18.9342 1.34548C18.3808 0.199549 17.0368 -0.314719 15.851 0.199549C12.491 1.62258 9.60545 3.48042 7.31279 5.73356C4.50626 8.38158 2.60889 11.4253 1.58114 14.7852C0.553401 18.1851 0 22.8095 0 28.6993V40.8346C0 42.139 1.06727 43.2063 2.37172 43.2063H17.9065C19.2109 43.2063 20.2782 42.139 20.2782 40.8346V25.2998C20.2782 23.995 19.2109 22.9281 17.9065 22.9281H10.4751C10.5541 18.9353 11.5028 15.7339 13.2421 13.3223C14.6651 11.3861 16.7997 9.805 19.6853 8.57922Z" fill="#7D33BA"/>
<path d="M47.5925 8.57955C48.8179 8.06568 49.3314 6.60312 48.7784 5.41726L46.8415 1.38574C46.2881 0.239411 44.9441 -0.274461 43.7582 0.239411C40.4378 1.66244 37.5914 3.52029 35.2596 5.73389C32.4526 8.42184 30.5161 11.4655 29.488 14.8255C28.4603 18.1455 27.9468 22.7707 27.9468 28.7V40.8353C27.9468 42.1397 29.0141 43.207 30.3185 43.207H45.8532C47.1577 43.207 48.225 42.1397 48.225 40.8353V25.3006C48.225 23.9957 47.1577 22.9288 45.8532 22.9288H38.3823C38.4614 18.9361 39.4105 15.7346 41.1493 13.323C42.5724 11.3865 44.7069 9.80534 47.5925 8.57955Z" fill="#7D33BA"/>
</svg>
