<svg width="15" height="15" viewBox="0 0 15 15" fill="none" xmlns="http://www.w3.org/2000/svg">
<path d="M14.9608 5.31342C14.862 5.01628 14.5926 4.80591 14.2751 4.77781L9.94508 4.39324L8.23382 0.473807C8.10747 0.18585 7.81999 0 7.50001 0C7.18003 0 6.89243 0.18585 6.76689 0.473807L5.05563 4.39324L0.724889 4.77781C0.407425 4.80647 0.138599 5.01684 0.0392629 5.31342C-0.0595011 5.61056 0.0317097 5.93647 0.27181 6.14247L3.54498 8.95027L2.57989 13.1086C2.50928 13.4144 2.63059 13.7305 2.88992 13.9139C3.02931 14.013 3.19307 14.0625 3.35741 14.0625C3.49864 14.0625 3.63997 14.0258 3.7662 13.9519L7.50001 11.7678L11.2331 13.9519C11.507 14.112 11.8513 14.0973 12.1101 13.9139C12.3694 13.7305 12.4907 13.4144 12.4201 13.1086L11.455 8.95027L14.7282 6.14247C14.9682 5.93647 15.0595 5.61123 14.9608 5.31342Z" fill="#ED017F"/>
</svg>
