<svg width="924" height="989" viewBox="0 0 924 989" fill="none" xmlns="http://www.w3.org/2000/svg">
<mask id="mask0_50_230" style="mask-type:alpha" maskUnits="userSpaceOnUse" x="0" y="0" width="1056" height="990">
<path fill-rule="evenodd" clip-rule="evenodd" d="M240.083 989.119C113.186 864.677 -12.8966 717.863 2.12441 543.403C16.1824 380.129 163.234 274.665 299.467 176.959C313.87 166.629 328.152 156.386 342.144 146.171C460.096 60.0495 595.237 -18.7586 739.302 5.16629C825.136 19.4208 878.229 87.2185 932.755 156.846C960.988 192.9 989.606 229.444 1023.35 259.299C1033.65 268.412 1044.58 277.01 1055.95 285.223V989.119H240.083Z" fill="url(#paint0_linear_50_230)"/>
</mask>
<g mask="url(#mask0_50_230)">
<path fill-rule="evenodd" clip-rule="evenodd" d="M240.083 989.119C113.186 864.677 -12.8966 717.863 2.12441 543.403C16.1824 380.129 163.234 274.665 299.467 176.959C313.87 166.629 328.152 156.386 342.144 146.171C460.096 60.0494 595.237 -18.7587 739.302 5.16623C825.136 19.4207 878.229 87.2185 932.754 156.846C960.988 192.9 989.606 229.444 1023.35 259.299C1033.65 268.412 1044.58 277.01 1055.95 285.223V989.119H240.083Z" fill="url(#paint1_linear_50_230)"/>
<path fill-rule="evenodd" clip-rule="evenodd" d="M240.083 989.119C113.186 864.677 -12.8966 717.863 2.12441 543.403C16.1824 380.129 163.234 274.665 299.467 176.959C313.87 166.629 328.152 156.386 342.144 146.171C460.096 60.0494 595.237 -18.7587 739.302 5.16623C825.136 19.4207 878.229 87.2185 932.754 156.846C960.988 192.9 989.606 229.444 1023.35 259.299C1033.65 268.412 1044.58 277.01 1055.95 285.223V989.119H240.083Z" fill="url(#paint2_linear_50_230)"/>
<g opacity="0.1">
<g style="mix-blend-mode:color-dodge">
<path d="M347.719 1204.18C347.719 1199.62 347.23 1194.9 347.23 1190.26V1189.69H366.119C366.119 1185.46 366.119 1181.55 366.689 1176.99L347.8 1175.53C347.8 1170.89 348.614 1166.17 349.184 1161.61L367.992 1164.22C368.561 1159.98 369.294 1156.08 370.108 1151.68L351.627 1147.78C352.522 1143.22 353.662 1138.66 354.965 1134.18L373.202 1139.31C374.342 1135.24 375.645 1131.17 377.029 1127.27L359.199 1120.84C360.745 1116.52 362.537 1112.13 364.409 1107.9L381.751 1115.47C383.461 1111.56 385.333 1107.33 387.287 1104.07L370.434 1095.28C372.551 1091.13 374.912 1087.14 377.355 1083.07L393.638 1093C395.918 1089.34 398.279 1085.84 400.721 1082.42L385.252 1071.68C387.939 1067.86 390.788 1064.11 393.801 1060.53L408.456 1072.58C411.143 1069.24 413.992 1066.07 416.598 1062.97L402.757 1050.03C405.932 1046.61 409.27 1043.28 412.69 1040.1L425.961 1054.02C429.054 1051.17 432.23 1048.32 435.486 1045.88L423.518 1031.07C427.182 1028.14 430.927 1025.37 434.754 1022.93L445.663 1038.48C449.164 1036.03 452.665 1033.67 456.248 1031.48L446.478 1015.2C450.386 1012.84 454.619 1010.48 458.69 1008.36L467.402 1025.29C471.147 1023.34 474.974 1021.47 478.882 1019.76L471.31 1002.34C475.625 1000.55 480.021 998.841 484.418 997.213L490.687 1015.12C494.677 1013.73 498.829 1012.43 502.818 1011.29L497.77 993.063C502.248 991.842 506.808 990.703 511.367 989.807L515.194 1008.28C519.264 1007.47 523.335 1006.82 527.732 1006.25L525.208 987.447C529.767 986.796 534.49 986.389 539.13 986.064L539.944 1004.62C544.015 1004.62 548.086 1004.13 552.32 1004.13V985.25C556.961 985.25 561.683 985.25 566.242 985.738L565.428 1004.62C569.662 1004.62 573.57 1005.35 578.048 1005.92L580.653 987.122C585.294 987.773 589.935 988.587 594.494 989.482L590.586 1008.04C594.738 1008.93 598.728 1009.99 602.961 1011.13L608.091 992.819C612.569 994.121 617.046 995.504 621.443 997.132L615.011 1014.96C619.082 1016.42 623.153 1017.97 626.816 1019.68L634.47 1002.26C638.703 1004.13 642.611 1006.17 647.089 1008.28L638.296 1025.13C642.041 1027.08 645.705 1029.2 649.369 1031.4L659.22 1015.12C663.21 1017.56 667.362 1020.08 670.945 1022.77L659.953 1038.31C663.373 1040.75 666.792 1043.28 670.049 1045.96L682.017 1031.31C685.681 1034.24 689.182 1037.34 692.601 1040.51L679.575 1054.35C682.669 1057.28 685.681 1060.29 688.531 1063.38L702.453 1050.36C705.628 1053.78 708.722 1057.36 711.653 1060.94L696.917 1072.9C699.603 1076.24 702.127 1079.58 704.57 1083.07L720.12 1072.09C722.807 1075.91 725.413 1080.23 727.774 1083.81L711.49 1093.65C713.689 1097.32 715.724 1100.98 717.678 1104.8L734.613 1096.01C736.73 1100.17 738.765 1104.15 740.638 1108.71L723.214 1116.28C724.843 1120.1 726.39 1124.42 727.855 1128.08L745.767 1121.73C747.314 1126.13 748.698 1130.6 749.919 1135.08L731.682 1140.21C732.822 1144.28 733.88 1148.35 734.694 1152.5L753.257 1148.75C754.153 1153.31 754.967 1157.95 755.618 1162.51L736.811 1165.03C737.381 1169.26 737.788 1173.17 738.114 1177.73L757.002 1176.42C757.002 1180.98 757.002 1185.62 757.002 1190.18H738.602C738.602 1194.41 738.439 1198.64 738.114 1202.87L757.002 1204.18C757.002 1208.81 756.188 1213.45 755.618 1218.09L736.811 1215.49C736.241 1219.72 735.508 1223.63 734.694 1228.02L753.176 1231.85C752.28 1236.4 751.14 1240.96 749.919 1245.44L731.6 1240.31C730.46 1244.46 729.239 1248.45 727.774 1252.44L745.604 1258.79C744.057 1263.18 742.347 1267.57 740.475 1271.81L723.133 1264.24C721.423 1268.14 719.551 1272.38 717.597 1275.71L734.45 1284.42C732.333 1288.57 729.972 1292.56 727.611 1296.63L711.327 1286.7C709.129 1290.36 706.768 1293.86 704.244 1297.28L719.795 1308.27C717.108 1312.09 714.258 1315.84 711.653 1319.42L696.917 1307.45C694.23 1310.71 691.462 1313.88 688.775 1316.98L702.209 1330.16C699.033 1333.5 695.695 1336.83 692.276 1340.01L679.331 1326.09C676.237 1329.02 673.061 1331.79 669.723 1334.23L681.773 1348.96C678.109 1351.89 674.364 1354.74 670.619 1357.1L659.628 1342.29C656.127 1344.73 652.626 1347.09 649.043 1349.37L658.895 1365.64C654.905 1368 650.753 1370.36 646.682 1372.48L637.645 1355.55C633.9 1357.51 630.073 1359.3 626.165 1361L633.737 1378.42C629.503 1380.29 625.107 1382 620.71 1383.55L614.36 1365.73C610.37 1367.11 606.218 1368.33 602.229 1369.47L607.358 1387.78C602.88 1389 598.239 1390.14 593.68 1391.04L589.935 1372.56C585.782 1373.38 581.793 1374.11 577.396 1374.68L579.92 1393.4C575.307 1394.05 570.666 1394.54 565.998 1394.86L564.695 1375.9C560.543 1375.9 556.554 1376.39 552.157 1376.39V1395.27C547.516 1395.27 542.794 1395.27 538.153 1394.78L539.944 1375.9C535.711 1375.9 531.803 1375.17 527.325 1374.6L524.719 1393.4C520.16 1392.75 515.519 1391.93 510.96 1391.04L514.787 1372.48C510.634 1371.67 506.645 1370.61 502.493 1369.47L497.363 1387.7C492.885 1386.48 488.407 1385.01 484.011 1383.47L490.361 1365.64C486.372 1364.18 482.22 1362.63 478.556 1360.92L470.984 1378.34C466.75 1376.47 462.842 1374.43 458.365 1372.32L466.669 1355.47C462.924 1353.52 459.26 1351.48 455.596 1349.29L445.745 1365.56C441.755 1363.2 437.603 1360.6 434.021 1357.91L445.012 1342.37C441.593 1339.93 438.173 1337.4 434.916 1334.72L422.948 1349.45C419.284 1346.52 415.783 1343.43 412.364 1340.25L425.391 1326.33C422.215 1323.49 419.284 1320.48 416.353 1317.38L402.431 1330.16C399.256 1326.82 396.162 1323.24 393.231 1319.66L407.967 1307.7C405.281 1304.36 402.757 1301.02 400.314 1297.52L384.763 1308.51C382.077 1304.69 379.553 1300.37 377.11 1296.79L393.394 1286.94C391.195 1283.28 389.16 1279.62 387.206 1275.88L370.19 1284.58C368.073 1280.43 366.038 1276.45 364.165 1271.97L381.588 1264.4C379.878 1260.49 378.332 1256.26 376.947 1252.52L359.036 1258.87C357.489 1254.47 356.023 1250 354.802 1245.52L373.039 1240.47C371.9 1236.4 370.923 1232.34 370.027 1228.1L351.464 1231.93C350.568 1227.37 349.754 1222.73 349.103 1218.17L367.91 1215.57C367.34 1211.42 366.933 1207.43 366.607 1202.96L347.719 1204.18ZM552.401 1344.4C582.9 1344.4 612.714 1335.36 638.072 1318.42C663.431 1301.49 683.196 1277.41 694.867 1249.25C706.538 1221.08 709.592 1190.09 703.642 1160.19C697.692 1130.29 683.006 1102.82 661.44 1081.26C639.874 1059.71 612.398 1045.02 582.485 1039.08C552.572 1033.13 521.567 1036.18 493.39 1047.85C465.213 1059.52 441.13 1079.27 424.185 1104.62C407.241 1129.97 398.197 1159.77 398.197 1190.26C398.326 1231.1 414.614 1270.23 443.505 1299.11C472.396 1327.99 511.543 1344.27 552.401 1344.4Z" fill="url(#paint3_radial_50_230)"/>
</g>
<g style="mix-blend-mode:color-dodge">
<path d="M-12.6333 1113.84C-12.6372 1107.16 -12.1474 1100.5 -11.1678 1093.9L-34.5345 1090.48C-34.046 1087.47 -33.4761 1084.46 -32.9062 1081.45L-9.86512 1086.25C-8.47881 1079.72 -6.62867 1073.3 -4.32876 1067.04L-26.4742 1058.9C-25.4972 1055.97 -24.2759 1053.21 -23.1361 1050.76L-1.47916 1060.04C1.20827 1053.95 4.30935 1048.05 7.80239 1042.38L-12.3076 1030.01C-10.6793 1027.41 -9.05095 1024.8 -7.25978 1021.87L12.1989 1035.46C15.9622 1029.99 20.1548 1024.82 24.7371 1020L7.55813 1003.72C9.59356 1001.53 11.7918 999.329 13.9901 997.213L30.2735 1014.39C35.0886 1009.78 40.2612 1005.56 45.7427 1001.77L32.0647 982.401C34.5886 980.692 37.1125 978.983 39.7179 977.355L52.2561 997.457C57.8765 993.974 63.7557 990.927 69.8422 988.342L60.3978 966.612L68.5395 963.194L76.6812 985.412C82.9044 983.049 89.3011 981.172 95.8143 979.797L91.0106 956.765C93.9417 956.113 97.0355 955.544 100.048 955.137L103.549 978.413C110.132 977.484 116.767 976.968 123.415 976.867V953.346H124.717C127.485 953.346 130.335 953.346 132.859 953.346L131.556 976.948C138.227 977.3 144.865 978.116 151.422 979.39L156.063 956.195C159.075 956.846 162.006 957.497 165.019 958.311L159.075 981.18C165.528 982.833 171.843 984.982 177.964 987.61L187.164 965.88C189.932 967.019 192.782 968.321 195.306 969.623L184.885 990.865C190.844 993.815 196.585 997.188 202.064 1000.96L215.497 981.506C218.021 983.215 220.464 985.005 222.906 986.877L208.333 1005.6C213.619 1009.67 218.599 1014.13 223.232 1018.94L240.248 1002.67C242.365 1004.78 244.482 1007.14 246.436 1009.42L228.443 1024.8C232.825 1029.91 236.8 1035.35 240.33 1041.08L260.277 1028.38C261.905 1030.99 263.533 1033.59 264.999 1036.52L244.319 1048C247.521 1053.79 250.244 1059.83 252.461 1066.06L274.606 1057.93C275.665 1060.77 276.642 1063.7 277.537 1066.63L255.066 1073.72C257.045 1080.05 258.568 1086.53 259.625 1093.08L282.911 1089.42C283.399 1092.43 283.725 1095.53 284.051 1098.54L260.521 1100.9C261.013 1105.44 261.258 1110 261.254 1114.57C261.254 1116.69 261.254 1118.72 261.254 1120.76L284.865 1121.81C284.865 1124.91 284.865 1128 284.213 1131.01L260.684 1128.57C260.008 1135.21 258.865 1141.79 257.264 1148.26L280.143 1154.04C279.41 1157.05 278.514 1159.98 277.619 1162.83L255.066 1155.75C253.12 1162.12 250.669 1168.33 247.738 1174.31L268.988 1184.64C267.686 1187.33 266.22 1190.1 264.755 1192.78L244.075 1181.22C240.87 1186.93 237.222 1192.37 233.165 1197.5L251.972 1211.91C250.1 1214.27 248.146 1216.71 246.11 1218.99L228.198 1203.52C223.95 1208.61 219.294 1213.35 214.276 1217.69L229.827 1235.59C227.547 1237.54 225.105 1239.5 222.743 1241.37L208.251 1222.65C203.09 1226.72 197.648 1230.41 191.968 1233.72L203.529 1254.31C200.924 1255.77 198.156 1257.24 195.387 1258.54L184.966 1237.3C178.994 1240.32 172.786 1242.85 166.403 1244.87L173.568 1267.33C170.718 1268.23 167.787 1269.12 164.774 1269.85L158.912 1247.07C152.471 1248.73 145.911 1249.9 139.291 1250.56L141.733 1274C138.721 1274.41 135.709 1274.57 132.615 1274.74L131.475 1251.22H124.636C120.258 1251.24 115.881 1251.03 111.528 1250.56L109.248 1274.09C106.236 1274.09 103.223 1273.43 100.129 1272.95L103.793 1249.67C97.1804 1248.61 90.6507 1247.09 84.253 1245.11L77.3326 1267.74C74.4016 1266.84 71.4705 1265.87 68.7024 1264.81L76.8441 1242.67C70.6079 1240.39 64.5408 1237.67 58.688 1234.53L47.3711 1255.2C44.6843 1253.74 41.9976 1252.19 39.2294 1250.65L51.7676 1230.54C46.0044 1227.1 40.5556 1223.15 35.4842 1218.74L20.0964 1236.81C17.7353 1234.86 15.537 1232.82 13.3387 1230.71L29.6222 1213.53C24.7666 1208.98 20.275 1204.06 16.1883 1198.8L-2.45617 1213.37C-4.32876 1211.01 -6.11994 1208.57 -7.91111 1206.05L11.5476 1192.46C7.84355 1187.08 4.5764 1181.42 1.77752 1175.53L-19.3909 1186.11C-20.775 1183.34 -22.0777 1180.57 -23.2175 1177.97L-1.56058 1168.69C-4.19173 1162.57 -6.36872 1156.25 -8.07395 1149.81L-30.8707 1155.83C-31.6849 1152.9 -32.3362 1149.89 -32.9876 1146.88L-9.86512 1142.24C-11.2013 1135.69 -12.045 1129.06 -12.3891 1122.38L-36 1123.69C-36 1120.65 -36 1117.64 -36 1114.65V1114.16L-12.6333 1113.84ZM124.717 1242.43C150.115 1242.43 174.942 1234.9 196.058 1220.79C217.174 1206.68 233.631 1186.64 243.346 1163.18C253.062 1139.72 255.6 1113.91 250.639 1089.01C245.678 1064.11 233.442 1041.25 215.477 1023.3C197.513 1005.35 174.627 993.137 149.716 988.194C124.804 983.251 98.986 985.804 75.5263 995.531C52.0667 1005.26 32.0198 1021.72 17.9214 1042.84C3.823 1063.95 -3.69353 1088.78 -3.67743 1114.16C-3.6343 1148.18 9.9094 1180.79 33.9811 1204.84C58.0527 1228.89 90.6856 1242.4 124.717 1242.43Z" fill="url(#paint4_radial_50_230)"/>
</g>
<g style="mix-blend-mode:color-dodge">
<path d="M288.61 779.101C258.897 779.117 229.846 770.324 205.133 753.835C180.419 737.345 161.153 713.9 149.772 686.464C138.39 659.028 135.403 628.834 141.19 599.702C146.977 570.569 161.277 543.806 182.282 522.798C203.286 501.791 230.052 487.481 259.193 481.681C288.334 475.881 318.541 478.85 345.994 490.212C373.447 501.575 396.912 520.82 413.421 545.515C429.931 570.21 438.743 599.244 438.743 628.946C438.7 668.742 422.871 706.897 394.727 735.045C366.583 763.193 328.422 779.036 288.61 779.101ZM288.61 487.254C260.571 487.238 233.158 495.534 209.837 511.094C186.516 526.653 168.335 548.777 157.594 574.666C146.853 600.555 144.035 629.047 149.495 656.538C154.955 684.029 168.449 709.284 188.269 729.108C208.09 748.932 233.346 762.435 260.845 767.908C288.343 773.382 316.848 770.581 342.754 759.859C368.659 749.137 390.802 730.976 406.381 707.674C421.96 684.371 430.275 656.973 430.275 628.946C430.232 591.394 415.296 555.391 388.74 528.831C362.184 502.27 326.176 487.319 288.61 487.254Z" fill="url(#paint5_radial_50_230)"/>
<path d="M288.61 757.046C263.241 757.062 238.437 749.556 217.337 735.477C196.237 721.399 179.789 701.38 170.073 677.955C160.357 654.529 157.811 628.75 162.756 603.877C167.702 579.005 179.916 556.158 197.855 538.226C215.793 520.295 238.649 508.085 263.532 503.142C288.414 498.198 314.204 500.744 337.638 510.455C361.073 520.167 381.099 536.609 395.183 557.701C409.267 578.793 416.776 603.587 416.76 628.946C416.717 662.907 403.202 695.465 379.178 719.479C355.155 743.493 322.584 757.003 288.61 757.046ZM288.61 509.228C264.919 509.212 241.756 516.22 222.05 529.365C202.344 542.51 186.981 561.201 177.904 583.075C168.827 604.949 166.443 629.023 171.055 652.251C175.667 675.48 187.067 696.819 203.813 713.57C220.559 730.321 241.899 741.731 265.133 746.357C288.368 750.983 312.453 748.617 334.341 739.558C356.23 730.499 374.94 715.155 388.103 695.466C401.267 675.776 408.293 652.627 408.293 628.946C408.25 597.222 395.629 566.809 373.196 544.369C350.763 521.929 320.346 509.293 288.61 509.228Z" fill="url(#paint6_radial_50_230)"/>
<path d="M288.61 713.098C271.959 713.098 255.683 708.162 241.839 698.915C227.995 689.669 217.204 676.526 210.833 661.149C204.461 645.772 202.794 628.852 206.042 612.528C209.29 596.204 217.308 581.21 229.082 569.441C240.855 557.672 255.856 549.657 272.186 546.41C288.516 543.163 305.443 544.83 320.826 551.199C336.209 557.568 349.357 568.354 358.607 582.193C367.857 596.032 372.795 612.302 372.795 628.945C372.752 651.251 363.868 672.63 348.09 688.403C332.312 704.175 310.924 713.055 288.61 713.098ZM288.61 553.176C273.614 553.16 258.951 557.59 246.476 565.906C234 574.222 224.272 586.05 218.522 599.893C212.773 613.737 211.26 628.974 214.175 643.677C217.091 658.381 224.304 671.889 234.901 682.494C245.499 693.098 259.005 700.323 273.711 703.253C288.416 706.183 303.661 704.688 317.516 698.955C331.372 693.223 343.215 683.511 351.547 671.049C359.88 658.587 364.327 643.935 364.327 628.945C364.285 608.877 356.296 589.642 342.108 575.444C327.919 561.247 308.685 553.24 288.61 553.176Z" fill="url(#paint7_radial_50_230)"/>
<path d="M288.61 683.474C277.798 683.49 267.225 680.299 258.228 674.304C249.232 668.31 242.217 659.782 238.072 649.8C233.927 639.818 232.838 628.831 234.943 618.23C237.049 607.63 242.254 597.892 249.899 590.25C257.544 582.607 267.286 577.405 277.891 575.3C288.495 573.196 299.487 574.284 309.472 578.427C319.458 582.571 327.99 589.583 333.986 598.576C339.983 607.569 343.175 618.138 343.159 628.946C343.159 643.407 337.412 657.277 327.182 667.503C316.952 677.729 303.077 683.474 288.61 683.474Z" fill="url(#paint8_radial_50_230)"/>
<path d="M-9.70258 677.614C-12.2755 661.464 -13.5821 645.137 -13.6106 628.783V628.05H30.7617C30.762 610.188 32.645 592.374 36.3795 574.906L-7.01582 565.791C-3.65251 549.778 1.03141 534.071 6.98792 518.832L48.4292 535.109C54.8962 518.512 63.0825 502.637 72.8543 487.742L35.6467 463.327C44.6371 449.703 54.6822 436.805 65.6896 424.75L98.2564 454.781C110.274 441.613 123.646 429.747 138.151 419.379L112.179 383.244C125.456 373.724 139.478 365.287 154.109 358.015L173.893 397.812C189.842 389.81 206.6 383.535 223.883 379.093L212.81 336.203C228.628 332.184 244.748 329.462 261.009 328.065L264.999 372.257C272.652 371.606 280.468 371.199 288.365 371.199C298.406 371.223 308.436 371.82 318.408 372.989L323.456 328.879C339.697 330.806 355.759 334.017 371.492 338.482L359.28 381.209C376.428 386.12 393.018 392.803 408.781 401.149L429.787 361.677C444.207 369.312 457.984 378.104 470.984 387.964L444.116 423.367C458.293 434.231 471.307 446.531 482.952 460.071L516.496 430.854C527.249 443.165 536.971 456.339 545.562 470.245L507.703 493.602C517.129 508.747 524.934 524.841 530.988 541.619L572.755 526.563C578.304 541.92 582.58 557.708 585.538 573.767L541.898 581.905C544.743 597.452 546.187 613.222 546.213 629.027C546.213 631.062 546.213 633.096 546.213 635.131L590.585 636.189C590.197 652.578 588.481 668.908 585.456 685.02L541.817 676.881C538.583 694.377 533.507 711.482 526.673 727.91L567.382 744.919C561.145 760.005 553.656 774.543 544.992 788.379L507.377 764.696C498.009 779.836 487.095 793.964 474.81 806.854L507.377 837.536C496.093 849.358 483.868 860.245 470.821 870.09L444.035 834.606C429.808 845.361 414.501 854.607 398.36 862.195L417.249 902.4C402.45 909.332 387.122 915.075 371.411 919.572L359.28 876.845C342.117 881.723 324.488 884.778 306.684 885.96L309.778 930.233C302.858 930.722 295.856 930.966 288.854 930.966C279.572 930.966 270.128 930.966 260.928 929.664L264.999 885.472C247.232 883.885 229.683 880.42 212.647 875.136L199.539 917.537C183.943 912.655 168.753 906.56 154.109 899.307L173.567 859.51C157.612 851.537 142.524 841.937 128.544 830.862L100.943 865.695C88.1262 855.58 76.1712 844.419 65.2011 832.327L97.768 802.459C85.7665 789.257 75.1537 774.858 66.0967 759.487L27.7493 782.031C19.4234 767.975 12.2881 753.247 6.418 738.002L47.8593 721.725C41.4099 705.109 36.6899 687.872 33.7741 670.289L-9.70258 677.614ZM288.61 408.392C244.968 408.376 202.301 421.297 166.006 445.522C129.711 469.747 101.419 504.187 84.7065 544.487C67.9943 584.786 63.6132 629.135 72.1175 671.924C80.6217 714.712 101.629 754.019 132.483 784.872C163.337 815.725 202.651 836.739 245.453 845.255C288.256 853.772 332.623 849.409 372.945 832.719C413.266 816.028 447.73 787.759 471.978 751.487C496.226 715.215 509.168 672.57 509.168 628.946C509.104 570.485 485.848 514.436 444.502 473.091C403.155 431.745 347.093 408.478 288.61 408.392Z" fill="url(#paint9_radial_50_230)"/>
</g>
<g style="mix-blend-mode:color-dodge">
<path d="M756.025 590.694C733.236 590.694 710.959 583.938 692.012 571.281C673.065 558.623 658.299 540.633 649.582 519.585C640.864 498.538 638.588 475.379 643.039 453.038C647.491 430.697 658.472 410.177 674.592 394.075C690.711 377.973 711.247 367.012 733.6 362.577C755.953 358.143 779.119 360.435 800.169 369.164C821.218 377.893 839.205 392.665 851.854 411.614C864.503 430.563 871.246 452.836 871.23 475.616C871.166 506.131 859.005 535.376 837.411 556.946C815.818 578.516 786.552 590.651 756.025 590.694ZM756.025 431.017C747.194 430.985 738.552 433.573 731.193 438.454C723.835 443.335 718.091 450.289 714.689 458.435C711.287 466.582 710.38 475.554 712.083 484.216C713.786 492.878 718.023 500.84 724.256 507.094C730.489 513.348 738.439 517.612 747.098 519.346C755.757 521.08 764.736 520.206 772.898 516.835C781.06 513.464 788.038 507.748 792.948 500.411C797.858 493.073 800.479 484.444 800.479 475.616C800.489 469.77 799.348 463.979 797.12 458.573C794.892 453.168 791.62 448.255 787.492 444.113C783.364 439.972 778.461 436.684 773.062 434.437C767.663 432.189 761.873 431.027 756.025 431.017Z" fill="url(#paint10_radial_50_230)"/>
<path d="M756.025 679.567C715.652 679.567 676.186 667.599 642.618 645.176C609.05 622.753 582.888 590.883 567.442 553.596C551.996 516.309 547.958 475.281 555.841 435.7C563.723 396.12 583.171 359.765 611.725 331.233C640.278 302.702 676.656 283.276 716.255 275.413C755.854 267.549 796.897 271.602 834.192 287.057C871.488 302.512 903.36 328.676 925.778 362.24C948.197 395.803 960.154 435.259 960.138 475.616C960.073 529.702 938.545 581.552 900.278 619.789C862.011 658.025 810.132 679.524 756.025 679.567ZM756.025 306.823C722.648 306.823 690.02 316.716 662.266 335.251C634.512 353.786 612.88 380.13 600.103 410.953C587.326 441.776 583.979 475.694 590.485 508.419C596.991 541.144 613.057 571.205 636.653 594.803C660.249 618.401 690.314 634.476 723.049 640.995C755.783 647.514 789.716 644.184 820.557 631.427C851.399 618.67 877.764 597.059 896.319 569.325C914.874 541.591 924.787 508.981 924.803 475.616C924.781 430.87 906.995 387.962 875.35 356.314C843.705 324.667 800.789 306.867 756.025 306.823Z" fill="url(#paint11_radial_50_230)"/>
<path d="M1094.23 452.503C1094.72 460.153 1095.05 467.885 1095.05 475.535V476.43H1063.78C1063.78 483.511 1063.78 490.428 1062.97 497.427L1094.15 499.625C1093.66 507.275 1092.85 515.007 1091.79 522.575L1060.77 518.262C1059.79 525.261 1058.65 532.179 1057.19 539.015L1087.8 545.363C1086.25 552.932 1084.38 560.501 1082.34 567.826L1052.14 559.687C1050.19 566.442 1048.15 573.116 1045.79 579.708L1075.26 590.206C1072.66 597.45 1069.81 604.693 1066.71 611.692L1037.97 599.159C1035.2 605.588 1032.11 611.855 1028.85 618.04L1056.7 632.527C1053.2 639.363 1049.37 646.118 1045.3 652.71L1018.6 636.433C1014.93 642.456 1011.02 648.234 1006.95 653.931L1032.6 672.161C1028.12 678.347 1023.4 684.532 1018.6 690.473L994.17 670.615C989.774 676.068 985.133 681.276 980.329 686.404L1003.21 707.889C997.997 713.505 992.46 718.958 986.924 724.166L965.511 701.134C960.382 705.936 955.09 710.494 949.716 714.97L969.501 739.385C963.476 744.269 957.288 748.908 951.019 753.384L932.945 727.666C927.164 731.735 921.383 735.804 915.358 739.223L931.642 765.998C925.047 769.986 918.289 774.137 911.45 777.311L897.04 749.477C890.852 752.651 884.501 755.744 878.069 758.511L890.526 787.24C883.443 790.332 876.197 793.181 868.951 795.378L858.448 765.836C851.935 768.223 845.258 770.339 838.419 772.184L846.561 802.377C839.152 804.412 831.58 806.203 824.09 807.749L817.821 777.148C810.982 778.613 804.061 779.671 797.059 780.648L801.293 811.655C793.64 812.632 785.905 813.446 778.252 813.934L776.217 782.682C769.459 783.171 762.62 783.496 755.781 783.496H755.211V814.748C747.558 814.748 739.742 814.748 732.089 813.934L734.287 782.682C727.285 782.194 720.283 781.462 713.363 780.566L709.129 811.574C701.476 810.516 693.823 809.132 686.332 807.586L692.683 776.985C685.844 775.52 679.005 773.811 672.328 771.94L664.187 802.133C656.778 800.017 649.369 797.657 642.123 795.053L652.626 765.591C646.031 763.231 639.517 760.627 633.167 757.453L620.629 786.182C613.545 783.171 606.543 779.752 599.704 776.253L614.278 748.419C608.009 745.164 601.903 741.746 595.959 738.083L579.676 764.859C573.162 760.871 566.649 756.72 560.38 752.163L578.536 726.527C572.837 722.457 567.219 718.388 562.253 713.831L542.387 738.246C536.443 733.363 530.581 728.236 524.964 722.946L546.458 700.076C541.328 695.275 536.443 690.31 531.64 685.183L508.68 706.587C503.388 700.972 498.34 695.112 493.455 689.171L517.88 669.394C513.484 663.941 509.739 658.326 505.261 652.629L478.8 670.941C474.404 664.674 470.17 658.163 466.099 651.652L492.885 635.375C489.303 629.353 485.883 623.249 482.708 616.982L454.782 631.387C451.281 624.632 447.943 617.552 444.849 610.471L473.589 597.694C470.821 591.346 468.297 584.754 465.936 578.162L436.382 588.579C433.776 581.336 431.497 573.929 429.38 566.523L459.586 558.385C457.713 551.63 456.003 544.875 454.619 538.039L424.006 544.305C422.459 536.736 421.157 529.086 420.098 521.436L451.118 517.285C450.223 510.368 449.49 503.45 449.001 496.369L417.819 498.241C417.33 490.754 417.086 483.104 417.086 475.535V475.128H448.269C448.269 468.129 448.269 461.13 449.083 454.212L417.819 452.015C418.389 444.364 419.203 436.633 420.18 429.064L451.2 433.296C452.177 426.297 453.317 419.46 454.782 412.624L424.169 406.276C425.716 398.707 427.589 391.138 429.624 383.732L459.83 391.871C461.703 385.116 463.819 378.442 466.18 371.931L436.626 361.677C439.231 354.515 442.081 347.272 444.768 340.191L473.508 352.725C476.358 346.295 479.37 340.029 482.627 333.843L454.701 319.357C458.283 312.52 462.11 305.765 466.099 299.255L492.885 315.532C496.549 309.591 500.457 303.812 504.446 298.115L478.8 279.885C483.278 273.7 488 267.433 492.804 261.492L517.229 281.35C521.625 275.897 526.266 270.688 531.07 265.561L508.11 244.076C513.402 238.541 518.857 233.007 524.394 227.798L545.888 250.749C550.936 245.947 556.228 241.308 561.683 236.914L541.817 212.498C547.842 207.615 554.029 202.976 560.299 198.5L578.455 224.136C584.154 220.148 589.934 215.998 595.959 212.579L579.676 185.804C586.189 181.816 593.028 177.665 599.867 174.491L614.278 202.325C620.466 199.07 626.816 196.058 633.248 193.291L621.361 164.562C628.363 161.551 635.609 158.702 642.937 156.424L653.358 185.967C659.98 183.579 666.656 181.463 673.387 179.619L665.245 149.425C672.654 147.39 680.226 145.518 687.716 143.972L694.067 174.573C700.824 173.189 707.745 172.05 714.747 171.154L710.513 140.147C718.166 139.089 725.901 138.275 733.554 137.787L735.671 169.038C742.51 168.55 749.43 168.224 756.432 168.224V137.054C764.085 137.054 771.902 137.054 779.555 137.787L777.357 169.038C784.44 169.527 791.36 170.259 798.281 171.154L802.514 140.147C810.168 141.205 817.821 142.507 825.311 144.135L818.961 174.654C825.881 176.119 832.639 177.828 839.396 179.781L847.538 149.587C854.866 151.622 862.356 153.982 869.602 156.586L859.099 186.048C865.694 188.408 872.126 191.012 878.558 194.186L891.096 165.457C898.098 168.55 905.1 171.887 911.939 175.386L897.447 203.301C903.743 206.503 909.849 209.921 915.766 213.556L932.049 186.78C938.562 190.768 945.076 194.919 951.345 199.477L933.189 225.113C938.888 229.182 944.506 233.251 949.961 237.809L969.745 213.393C975.688 218.195 981.55 223.322 987.168 228.612L965.756 251.563C970.803 256.283 975.77 261.248 980.573 266.375L1003.53 244.971C1008.74 250.505 1013.87 256.446 1018.76 262.387L994.333 282.164C998.729 287.617 1002.96 293.232 1007.03 298.929L1032.68 280.78C1037.08 287.047 1041.39 293.558 1045.38 300.15L1018.6 316.427C1022.26 322.368 1025.68 328.553 1028.85 334.739L1056.78 320.333C1060.28 327.17 1063.62 334.169 1066.71 341.168L1037.97 353.701C1040.74 360.131 1043.35 366.641 1045.71 373.234L1075.18 362.735C1077.79 369.978 1080.15 377.466 1082.18 384.79L1052.06 392.929C1053.93 399.684 1055.64 406.439 1057.11 413.357L1087.72 407.009C1089.27 414.496 1090.57 422.146 1091.54 429.796L1060.53 434.028C1061.5 440.946 1062.23 447.864 1062.72 454.944L1094.23 452.503ZM756.025 220.881C705.624 220.881 656.354 235.821 614.446 263.811C572.539 291.802 539.876 331.586 520.588 378.133C501.3 424.68 496.254 475.899 506.086 525.313C515.919 574.726 540.19 620.116 575.829 655.741C611.469 691.367 656.876 715.628 706.309 725.457C755.742 735.286 806.981 730.241 853.547 710.961C900.112 691.681 939.911 659.031 967.913 617.14C995.915 575.249 1010.86 525.998 1010.86 475.616C1010.8 408.076 983.927 343.321 936.15 295.562C888.373 247.804 823.592 220.945 756.025 220.881Z" fill="url(#paint12_radial_50_230)"/>
</g>
<g style="mix-blend-mode:color-dodge">
<path d="M544.504 89.932C584.613 89.932 617.128 122.434 617.128 162.528C617.128 202.621 584.613 235.123 544.504 235.123C504.395 235.123 471.88 202.621 471.88 162.528C471.88 122.434 504.395 89.932 544.504 89.932Z" fill="url(#paint13_radial_50_230)"/>
<path d="M786.638 136.81C787.552 145.407 788.014 154.045 788.022 162.69H752.28C752.195 178.25 750.392 193.753 746.906 208.917L781.834 217.056C779.894 225.452 777.502 233.739 774.67 241.878L740.882 230.159C735.791 244.873 729.045 258.962 720.772 272.153L751.14 291.116C746.612 298.403 741.692 305.439 736.404 312.195L708.152 290.14C698.584 302.401 687.659 313.54 675.585 323.345L698.219 351.178C691.535 356.577 684.578 361.629 677.376 366.316L657.755 336.366C644.744 344.876 630.816 351.893 616.232 357.282L628.607 390.813C620.611 393.804 612.457 396.358 604.182 398.463L595.552 363.793C580.445 367.569 564.958 369.617 549.389 369.897L550.121 405.706C541.537 405.881 532.95 405.61 524.394 404.893L527.325 369.246C511.835 367.958 496.541 364.928 481.731 360.212L470.495 394.231C462.188 391.624 454.034 388.554 446.07 385.035L460.481 352.481C446.384 346.196 433.031 338.362 420.668 329.123L399.256 357.852C392.364 352.764 385.733 347.332 379.39 341.575L403.815 315.288C392.369 304.756 382.154 292.961 373.365 280.129L343.811 300.394C338.949 293.311 334.465 285.976 330.377 278.42L361.804 261.411C354.418 247.626 348.627 233.046 344.543 217.951L310.022 227.473C307.726 219.196 305.877 210.801 304.486 202.325L339.74 196.465C337.906 185.245 336.981 173.896 336.971 162.528C336.971 158.296 336.971 154.389 337.379 149.994L301.636 147.878C302.206 139.74 303.183 130.706 304.567 122.242L339.821 128.183C342.391 112.831 346.679 97.8162 352.604 83.4213L319.548 69.83C322.825 61.8548 326.521 54.0582 330.621 46.4725L362.129 63.5633C369.569 49.9031 378.527 37.1262 388.834 25.4751L361.885 1.79205C367.577 -4.6572 373.611 -10.7971 379.96 -16.6011L404.385 9.76776C415.876 -0.753021 428.49 -9.97784 442 -17.7403L424.169 -48.8295C431.649 -53.0696 439.339 -56.9266 447.21 -60.3861L461.621 -27.832C475.871 -34.0831 490.784 -38.6974 506.075 -41.5861L499.236 -76.5819C507.692 -78.1655 516.225 -79.3063 524.801 -79.9999L527.732 -44.3534C533.349 -44.8417 539.049 -45.1671 544.748 -45.1671C554.639 -45.1354 564.515 -44.4012 574.302 -42.9698L579.269 -78.3723C587.792 -77.1729 596.244 -75.5155 604.589 -73.4077L595.878 -38.7379C610.939 -34.9719 625.524 -29.5114 639.354 -22.4608L655.638 -54.2822C663.297 -50.3645 670.743 -46.0451 677.946 -41.342L658.325 -11.3923C671.318 -2.83154 683.331 7.13 694.148 18.3132L719.957 -6.59061C725.922 -0.387115 731.548 6.13309 736.811 12.9418L708.559 34.9158C718.147 47.1801 726.34 60.4734 732.984 74.5504L765.551 59.4127C769.205 67.2099 772.44 75.1971 775.24 83.34L741.37 94.978C746.471 109.682 749.885 124.917 751.547 140.391L786.638 136.81ZM544.504 -15.136C509.355 -15.1199 475 -4.68646 445.782 14.8452C416.565 34.377 393.797 62.1299 380.357 94.5951C366.918 127.06 363.41 162.78 370.277 197.238C377.144 231.696 394.078 263.345 418.937 288.184C443.797 313.022 475.466 329.935 509.941 336.784C544.416 343.632 580.148 340.109 612.619 326.66C645.091 313.21 672.845 290.439 692.371 261.224C711.897 232.009 722.319 197.663 722.319 162.528C722.254 115.414 703.496 70.2498 670.161 36.943C636.826 3.63629 591.636 -15.0929 544.504 -15.136Z" fill="url(#paint14_radial_50_230)"/>
</g>
<g style="mix-blend-mode:color-dodge">
<path d="M831.499 923.234C794.676 923.218 758.684 912.288 728.074 891.827C697.464 871.365 673.611 842.29 659.53 808.278C645.449 774.266 641.774 736.845 648.967 700.745C656.161 664.645 673.902 631.488 699.945 605.466C725.989 579.443 759.167 561.724 795.285 554.549C831.402 547.374 868.836 551.065 902.855 565.155C936.874 579.245 965.95 603.101 986.407 633.708C1006.86 664.315 1017.78 700.297 1017.78 737.107C1017.78 761.556 1012.96 785.766 1003.6 808.353C994.237 830.941 980.515 851.463 963.216 868.748C945.917 886.032 925.38 899.741 902.78 909.09C880.18 918.439 855.958 923.245 831.499 923.234ZM831.499 590.044C802.408 590.06 773.975 598.696 749.794 614.862C725.613 631.028 706.768 653.997 695.643 680.866C684.518 707.734 681.612 737.297 687.291 765.817C692.97 794.337 706.98 820.533 727.551 841.096C748.121 861.658 774.328 875.663 802.859 881.34C831.39 887.017 860.964 884.111 887.844 872.991C914.723 861.87 937.701 843.033 953.873 818.861C970.045 794.689 978.685 766.267 978.701 737.188C978.712 717.862 974.912 698.723 967.518 680.866C960.124 663.008 949.282 646.783 935.611 633.117C921.939 619.452 905.708 608.613 887.844 601.222C869.979 593.832 850.833 590.033 831.499 590.044Z" fill="url(#paint15_radial_50_230)"/>
<path d="M1058.41 737.595C1058.38 748.626 1057.56 759.641 1055.97 770.556L1094.48 776.253C1093.82 781.217 1092.85 786.263 1091.87 791.146L1053.69 783.008C1051.46 793.867 1048.47 804.556 1044.73 814.992L1081.37 828.339C1079.66 833.141 1077.7 837.78 1075.75 842.337L1039.93 826.956C1035.52 837.045 1030.41 846.809 1024.62 856.173L1057.84 876.682C1055.23 880.914 1052.46 885.227 1049.7 889.297L1017.62 866.916C1011.36 875.945 1004.39 884.463 996.776 892.389L1025.27 919.246C1021.85 922.909 1018.27 926.49 1014.61 929.989L987.738 901.586C979.81 909.22 971.288 916.213 962.255 922.502L984.807 954.486C980.736 957.335 976.666 960.183 972.106 962.625L951.508 929.338C942.197 935.199 932.453 940.341 922.36 944.72L937.911 980.611C933.27 982.564 928.467 984.517 923.826 986.226L910.311 949.603C899.984 953.39 889.4 956.436 878.639 958.718L886.781 996.888C881.815 997.946 876.767 998.922 871.8 999.574L866.02 961.078C855.233 962.651 844.353 963.494 833.453 963.601V1002.5H832.232C827.591 1002.5 822.95 1002.5 818.309 1002.5L820.426 963.601C809.481 963.044 798.594 961.656 787.859 959.451L780.206 997.783C775.24 996.725 770.355 995.667 765.388 994.365L775.24 956.602C764.614 953.799 754.195 950.264 744.057 946.022L728.832 981.913C724.191 979.96 719.551 977.844 715.073 975.646L732.333 940.569C722.071 935.737 712.191 930.133 702.779 923.804L680.552 956.358C676.481 953.51 672.41 950.498 668.339 947.406L692.764 916.561C684.115 909.79 675.953 902.421 668.339 894.505L640.169 921.525C636.668 918.026 633.33 914.2 630.073 910.375L659.709 884.902C652.355 876.523 645.685 867.57 639.762 858.126L606.706 879.042C604.02 874.729 601.414 870.415 598.565 865.939L632.76 847.058C627.376 837.448 622.749 827.435 618.919 817.108L582.363 830.862C580.572 826.142 578.943 821.34 577.396 816.457L614.685 804.819C611.407 794.322 608.877 783.607 607.114 772.753L568.603 778.857C567.87 773.893 567.219 768.847 566.649 763.801L605.567 759.976C604.747 752.435 604.34 744.855 604.345 737.269C604.345 733.851 604.345 730.433 604.345 727.015L565.265 725.224C565.265 720.178 565.916 715.133 566.405 710.168L605.241 714.075C606.353 703.1 608.258 692.22 610.94 681.52L573.163 672.08C574.302 667.115 575.768 662.232 577.233 657.512L614.522 669.231C617.995 658.628 622.296 648.315 627.386 638.386L592.214 621.377C594.494 616.901 596.855 612.343 599.216 607.948L633.411 626.992C638.69 617.355 644.735 608.156 651.486 599.484L620.466 575.638C623.56 571.65 626.735 567.5 630.073 563.919L659.627 589.555C666.808 581.211 674.591 573.405 682.913 566.198L657.266 536.655C661.093 533.4 665.408 530.144 668.99 527.052L692.927 558.059C701.629 551.252 710.828 545.104 720.446 539.666L701.232 505.729C705.628 503.287 710.106 500.845 714.665 498.648L731.844 533.725C741.721 528.81 751.954 524.647 762.457 521.273L750.57 483.755C755.374 482.29 760.259 480.825 765.144 479.604L774.833 517.285C785.522 514.52 796.411 512.588 807.4 511.507L803.247 472.686C808.295 472.144 813.343 471.737 818.391 471.465L820.263 510.449C824.009 510.449 827.835 510.449 831.662 510.449C838.869 510.418 846.073 510.799 853.237 511.588L856.983 472.686C861.949 473.174 866.997 473.826 872.045 474.558L866.101 513.053C877.127 514.743 888.012 517.245 898.668 520.541L910.066 483.103C914.87 484.65 919.674 486.278 924.396 488.068L910.474 524.447C920.781 528.3 930.794 532.897 940.435 538.201L959.242 503.938C963.557 506.298 968.035 508.984 972.188 511.588L951.508 544.712C960.876 550.484 969.753 557.017 978.05 564.244L1003.45 534.376C1007.28 537.632 1011.02 541.05 1014.69 544.468L987.738 573.278C995.772 580.802 1003.18 588.967 1009.88 597.694L1040.74 573.278C1043.83 577.185 1046.85 581.417 1049.78 585.323L1017.21 607.786C1023.62 616.735 1029.26 626.209 1034.06 636.108L1069.07 618.61C1071.35 623.086 1073.55 627.806 1075.51 632.364L1039.6 647.827C1043.97 657.929 1047.56 668.35 1050.35 678.998L1088.13 669.069C1089.43 673.87 1090.57 678.835 1091.55 683.799L1053.36 691.938C1055.55 702.674 1056.96 713.553 1057.59 724.492L1096.59 722.294C1096.59 727.259 1097 732.305 1097 737.188V738.002L1058.41 737.595ZM831.58 525.098C789.592 525.082 748.544 537.52 713.631 560.836C678.718 584.153 651.511 617.3 635.454 656.081C619.397 694.863 615.212 737.535 623.429 778.695C631.647 819.855 651.896 857.652 681.615 887.302C711.333 916.952 749.185 937.121 790.376 945.256C831.568 953.391 874.249 949.126 913.014 933C951.78 916.875 984.888 889.615 1008.15 854.671C1031.4 819.728 1043.77 778.671 1043.67 736.7C1043.48 680.569 1021.06 626.798 981.313 587.145C941.569 547.492 887.734 525.184 831.58 525.098Z" fill="url(#paint16_radial_50_230)"/>
</g>
</g>
</g>
<defs>
<linearGradient id="paint0_linear_50_230" x1="752.088" y1="1021.5" x2="97.0425" y2="-80.8707" gradientUnits="userSpaceOnUse">
<stop stop-color="#7D33BA"/>
<stop offset="1" stop-color="#ED017F"/>
</linearGradient>
<linearGradient id="paint1_linear_50_230" x1="940" y1="99" x2="-136" y2="1051" gradientUnits="userSpaceOnUse">
<stop stop-color="#7D33BA"/>
<stop offset="1" stop-color="#ED017F"/>
</linearGradient>
<linearGradient id="paint2_linear_50_230" x1="940" y1="99" x2="-136" y2="1051" gradientUnits="userSpaceOnUse">
<stop stop-color="#7D33BA"/>
<stop offset="1" stop-color="#ED017F"/>
</linearGradient>
<radialGradient id="paint3_radial_50_230" cx="0" cy="0" r="1" gradientUnits="userSpaceOnUse" gradientTransform="translate(1083.97 836.722) rotate(-180) scale(940.123 939.754)">
<stop offset="0.34"/>
<stop offset="0.41" stop-color="#050505"/>
<stop offset="0.51" stop-color="#131313"/>
<stop offset="0.6" stop-color="#2B2B2B"/>
<stop offset="0.71" stop-color="#4C4C4C"/>
<stop offset="0.81" stop-color="#777777"/>
<stop offset="0.92" stop-color="#AAAAAA"/>
<stop offset="1" stop-color="#D6D6D6"/>
</radialGradient>
<radialGradient id="paint4_radial_50_230" cx="0" cy="0" r="1" gradientUnits="userSpaceOnUse" gradientTransform="translate(1083.97 836.721) rotate(-180) scale(940.123 939.754)">
<stop offset="0.34"/>
<stop offset="0.41" stop-color="#050505"/>
<stop offset="0.51" stop-color="#131313"/>
<stop offset="0.6" stop-color="#2B2B2B"/>
<stop offset="0.71" stop-color="#4C4C4C"/>
<stop offset="0.81" stop-color="#777777"/>
<stop offset="0.92" stop-color="#AAAAAA"/>
<stop offset="1" stop-color="#D6D6D6"/>
</radialGradient>
<radialGradient id="paint5_radial_50_230" cx="0" cy="0" r="1" gradientUnits="userSpaceOnUse" gradientTransform="translate(1451.9 1257.08) scale(1497.02 1496.43)">
<stop offset="0.34"/>
<stop offset="0.41" stop-color="#050505"/>
<stop offset="0.51" stop-color="#131313"/>
<stop offset="0.6" stop-color="#2B2B2B"/>
<stop offset="0.71" stop-color="#4C4C4C"/>
<stop offset="0.81" stop-color="#777777"/>
<stop offset="0.92" stop-color="#AAAAAA"/>
<stop offset="1" stop-color="#D6D6D6"/>
</radialGradient>
<radialGradient id="paint6_radial_50_230" cx="0" cy="0" r="1" gradientUnits="userSpaceOnUse" gradientTransform="translate(1451.9 1257.08) scale(1497.02 1496.43)">
<stop offset="0.34"/>
<stop offset="0.41" stop-color="#050505"/>
<stop offset="0.51" stop-color="#131313"/>
<stop offset="0.6" stop-color="#2B2B2B"/>
<stop offset="0.71" stop-color="#4C4C4C"/>
<stop offset="0.81" stop-color="#777777"/>
<stop offset="0.92" stop-color="#AAAAAA"/>
<stop offset="1" stop-color="#D6D6D6"/>
</radialGradient>
<radialGradient id="paint7_radial_50_230" cx="0" cy="0" r="1" gradientUnits="userSpaceOnUse" gradientTransform="translate(1451.9 1257.08) scale(1497.02 1496.43)">
<stop offset="0.34"/>
<stop offset="0.41" stop-color="#050505"/>
<stop offset="0.51" stop-color="#131313"/>
<stop offset="0.6" stop-color="#2B2B2B"/>
<stop offset="0.71" stop-color="#4C4C4C"/>
<stop offset="0.81" stop-color="#777777"/>
<stop offset="0.92" stop-color="#AAAAAA"/>
<stop offset="1" stop-color="#D6D6D6"/>
</radialGradient>
<radialGradient id="paint8_radial_50_230" cx="0" cy="0" r="1" gradientUnits="userSpaceOnUse" gradientTransform="translate(-772.092 724.41) rotate(-180) scale(1497.02 1496.43)">
<stop offset="0.34"/>
<stop offset="0.41" stop-color="#050505"/>
<stop offset="0.51" stop-color="#131313"/>
<stop offset="0.6" stop-color="#2B2B2B"/>
<stop offset="0.71" stop-color="#4C4C4C"/>
<stop offset="0.81" stop-color="#777777"/>
<stop offset="0.92" stop-color="#AAAAAA"/>
<stop offset="1" stop-color="#D6D6D6"/>
</radialGradient>
<radialGradient id="paint9_radial_50_230" cx="0" cy="0" r="1" gradientUnits="userSpaceOnUse" gradientTransform="translate(1451.9 1257.08) scale(1497.02 1496.43)">
<stop offset="0.34"/>
<stop offset="0.41" stop-color="#050505"/>
<stop offset="0.51" stop-color="#131313"/>
<stop offset="0.6" stop-color="#2B2B2B"/>
<stop offset="0.71" stop-color="#4C4C4C"/>
<stop offset="0.81" stop-color="#777777"/>
<stop offset="0.92" stop-color="#AAAAAA"/>
<stop offset="1" stop-color="#D6D6D6"/>
</radialGradient>
<radialGradient id="paint10_radial_50_230" cx="0" cy="0" r="1" gradientUnits="userSpaceOnUse" gradientTransform="translate(-122.547 1059.64) scale(1553.6 1552.99)">
<stop offset="0.34"/>
<stop offset="0.41" stop-color="#050505"/>
<stop offset="0.51" stop-color="#131313"/>
<stop offset="0.6" stop-color="#2B2B2B"/>
<stop offset="0.71" stop-color="#4C4C4C"/>
<stop offset="0.81" stop-color="#777777"/>
<stop offset="0.92" stop-color="#AAAAAA"/>
<stop offset="1" stop-color="#D6D6D6"/>
</radialGradient>
<radialGradient id="paint11_radial_50_230" cx="0" cy="0" r="1" gradientUnits="userSpaceOnUse" gradientTransform="translate(-122.546 1059.64) scale(1553.6 1552.99)">
<stop offset="0.34"/>
<stop offset="0.41" stop-color="#050505"/>
<stop offset="0.51" stop-color="#131313"/>
<stop offset="0.6" stop-color="#2B2B2B"/>
<stop offset="0.71" stop-color="#4C4C4C"/>
<stop offset="0.81" stop-color="#777777"/>
<stop offset="0.92" stop-color="#AAAAAA"/>
<stop offset="1" stop-color="#D6D6D6"/>
</radialGradient>
<radialGradient id="paint12_radial_50_230" cx="0" cy="0" r="1" gradientUnits="userSpaceOnUse" gradientTransform="translate(-122.546 1059.64) scale(1553.6 1552.99)">
<stop offset="0.34"/>
<stop offset="0.41" stop-color="#050505"/>
<stop offset="0.51" stop-color="#131313"/>
<stop offset="0.6" stop-color="#2B2B2B"/>
<stop offset="0.71" stop-color="#4C4C4C"/>
<stop offset="0.81" stop-color="#777777"/>
<stop offset="0.92" stop-color="#AAAAAA"/>
<stop offset="1" stop-color="#D6D6D6"/>
</radialGradient>
<radialGradient id="paint13_radial_50_230" cx="0" cy="0" r="1" gradientUnits="userSpaceOnUse" gradientTransform="translate(-753.936 1195.47) scale(1553.6 1552.99)">
<stop offset="0.34"/>
<stop offset="0.41" stop-color="#050505"/>
<stop offset="0.51" stop-color="#131313"/>
<stop offset="0.6" stop-color="#2B2B2B"/>
<stop offset="0.71" stop-color="#4C4C4C"/>
<stop offset="0.81" stop-color="#777777"/>
<stop offset="0.92" stop-color="#AAAAAA"/>
<stop offset="1" stop-color="#D6D6D6"/>
</radialGradient>
<radialGradient id="paint14_radial_50_230" cx="0" cy="0" r="1" gradientUnits="userSpaceOnUse" gradientTransform="translate(-753.936 1195.47) scale(1553.6 1552.99)">
<stop offset="0.34"/>
<stop offset="0.41" stop-color="#050505"/>
<stop offset="0.51" stop-color="#131313"/>
<stop offset="0.6" stop-color="#2B2B2B"/>
<stop offset="0.71" stop-color="#4C4C4C"/>
<stop offset="0.81" stop-color="#777777"/>
<stop offset="0.92" stop-color="#AAAAAA"/>
<stop offset="1" stop-color="#D6D6D6"/>
</radialGradient>
<radialGradient id="paint15_radial_50_230" cx="0" cy="0" r="1" gradientUnits="userSpaceOnUse" gradientTransform="translate(-753.936 1195.47) scale(1553.6 1552.99)">
<stop offset="0.34"/>
<stop offset="0.41" stop-color="#050505"/>
<stop offset="0.51" stop-color="#131313"/>
<stop offset="0.6" stop-color="#2B2B2B"/>
<stop offset="0.71" stop-color="#4C4C4C"/>
<stop offset="0.81" stop-color="#777777"/>
<stop offset="0.92" stop-color="#AAAAAA"/>
<stop offset="1" stop-color="#D6D6D6"/>
</radialGradient>
<radialGradient id="paint16_radial_50_230" cx="0" cy="0" r="1" gradientUnits="userSpaceOnUse" gradientTransform="translate(-753.935 1195.47) scale(1553.6 1552.99)">
<stop offset="0.34"/>
<stop offset="0.41" stop-color="#050505"/>
<stop offset="0.51" stop-color="#131313"/>
<stop offset="0.6" stop-color="#2B2B2B"/>
<stop offset="0.71" stop-color="#4C4C4C"/>
<stop offset="0.81" stop-color="#777777"/>
<stop offset="0.92" stop-color="#AAAAAA"/>
<stop offset="1" stop-color="#D6D6D6"/>
</radialGradient>
</defs>
</svg>
