<svg width="923" height="986" viewBox="0 0 923 986" fill="none" xmlns="http://www.w3.org/2000/svg">
<mask id="mask0_1_28" style="mask-type:alpha" maskUnits="userSpaceOnUse" x="0" y="0" width="923" height="986">
<rect width="923" height="986" fill="#D9D9D9"/>
</mask>
<g mask="url(#mask0_1_28)">
<g clip-path="url(#clip0_1_28)">
<path fill-rule="evenodd" clip-rule="evenodd" d="M239.083 -2.13397C112.186 122.308 -13.8966 269.122 1.1244 443.582C15.1824 606.856 162.234 712.32 298.467 810.026C312.87 820.356 327.152 830.599 341.144 840.815C459.096 926.936 594.237 1005.74 738.302 981.819C824.136 967.564 877.229 899.767 931.754 830.139C959.988 794.085 988.61 757.541 1022.35 727.686C1032.65 718.573 1043.58 709.975 1054.95 701.762V-2.13397H239.083Z" fill="url(#paint0_linear_1_28)"/>
<mask id="mask1_1_28" style="mask-type:alpha" maskUnits="userSpaceOnUse" x="-1" y="-3" width="1056" height="990">
<path fill-rule="evenodd" clip-rule="evenodd" d="M239.083 -2.13397C112.186 122.308 -13.8966 269.122 1.1244 443.582C15.1824 606.856 162.234 712.32 298.467 810.026C312.87 820.356 327.152 830.599 341.144 840.815C459.096 926.936 594.237 1005.74 738.302 981.819C824.136 967.564 877.229 899.767 931.754 830.139C959.988 794.085 988.61 757.541 1022.35 727.686C1032.65 718.573 1043.58 709.975 1054.95 701.762V-2.13397H239.083Z" fill="url(#paint1_linear_1_28)"/>
</mask>
<g mask="url(#mask1_1_28)">
<g opacity="0.1">
<g style="mix-blend-mode:color-dodge">
<path d="M346.719 -217.19C346.719 -212.633 346.23 -207.912 346.23 -203.273V-202.704H365.119C365.119 -198.472 365.119 -194.565 365.689 -190.008L346.8 -188.543C346.8 -183.904 347.614 -179.184 348.184 -174.626L366.992 -177.23C367.561 -172.998 368.294 -169.092 369.108 -164.697L350.627 -160.79C351.522 -156.233 352.662 -151.675 353.965 -147.199L372.202 -152.326C373.342 -148.257 374.645 -144.188 376.029 -140.281L358.199 -133.852C359.745 -129.539 361.537 -125.144 363.409 -120.912L380.751 -128.481C382.461 -124.574 384.333 -120.342 386.287 -117.087L369.434 -108.297C371.551 -104.146 373.912 -100.159 376.355 -96.0893L392.638 -106.018C394.918 -102.356 397.279 -98.8564 399.721 -95.4382L384.252 -84.6954C386.939 -80.8703 389.788 -77.1266 392.801 -73.5457L407.456 -85.5906C410.143 -82.2538 412.992 -79.0798 415.598 -75.9872L401.757 -63.047C404.932 -59.6288 408.27 -56.292 411.69 -53.118L424.961 -67.0348C428.054 -64.1863 431.23 -61.3379 434.486 -58.8963L422.518 -44.0842C426.182 -41.1544 429.927 -38.3873 433.754 -35.9457L444.663 -51.4903C448.164 -49.0487 451.665 -46.6886 455.248 -44.4911L445.478 -28.2141C449.386 -25.854 453.619 -23.4938 457.69 -21.3778L466.402 -38.3058C470.147 -36.3526 473.974 -34.4808 477.882 -32.7717L470.31 -15.3553C474.625 -13.5648 479.021 -11.8556 483.418 -10.2279L489.687 -28.1327C493.677 -26.7491 497.829 -25.447 501.818 -24.3076L496.77 -6.07736C501.248 -4.85656 505.808 -3.71707 510.367 -2.82187L514.194 -21.2963C518.264 -20.4825 522.335 -19.8314 526.732 -19.2617L524.208 -0.461761C528.767 0.189339 533.49 0.596244 538.13 0.921844L538.944 -17.634C543.015 -17.634 547.086 -17.1457 551.32 -17.1457V1.73572C555.961 1.73572 560.683 1.73574 565.242 1.24744L564.428 -17.634C568.662 -17.634 572.57 -18.3665 577.048 -18.9362L579.653 -0.136261C584.294 -0.787361 588.935 -1.60117 593.494 -2.49637L589.586 -21.0522C593.738 -21.9474 597.728 -23.0055 601.961 -24.1449L607.091 -5.83316C611.569 -7.13536 616.046 -8.51889 620.443 -10.1466L614.011 -27.97C618.082 -29.4349 622.153 -30.9813 625.816 -32.6903L633.47 -15.2739C637.703 -17.1457 641.611 -19.1803 646.089 -21.2963L637.296 -38.1431C641.041 -40.0964 644.705 -42.2124 648.369 -44.4098L658.22 -28.1327C662.21 -30.5742 666.362 -33.0972 669.945 -35.7829L658.953 -51.3275C662.373 -53.769 665.792 -56.292 669.049 -58.9777L681.017 -44.3284C684.681 -47.2582 688.182 -50.3509 691.601 -53.5249L678.575 -67.3604C681.669 -70.2902 684.681 -73.3015 687.531 -76.3941L701.453 -63.3725C704.628 -66.7907 707.722 -70.3716 710.653 -73.9525L695.917 -85.9162C698.603 -89.253 701.127 -92.5898 703.57 -96.0893L719.12 -85.1023C721.807 -88.9274 724.413 -93.2408 726.774 -96.8218L710.49 -106.669C712.689 -110.332 714.724 -113.994 716.678 -117.819L733.613 -109.03C735.73 -113.18 737.765 -117.168 739.638 -121.726L722.214 -129.294C723.843 -133.12 725.39 -137.433 726.855 -141.095L744.767 -134.747C746.314 -139.142 747.698 -143.618 748.919 -148.094L730.682 -153.222C731.822 -157.291 732.88 -161.36 733.694 -165.511L752.257 -161.767C753.153 -166.325 753.967 -170.964 754.618 -175.521L735.811 -178.044C736.381 -182.276 736.788 -186.183 737.114 -190.74L756.002 -189.438C756.002 -193.996 756.002 -198.635 756.002 -203.192H737.602C737.602 -207.424 737.439 -211.656 737.114 -215.888L756.002 -217.19C756.002 -221.829 755.188 -226.468 754.618 -231.107L735.811 -228.503C735.241 -232.735 734.508 -236.641 733.694 -241.036L752.176 -244.861C751.28 -249.419 750.14 -253.976 748.919 -258.453L730.6 -253.325C729.46 -257.476 728.239 -261.464 726.774 -265.452L744.604 -271.8C743.057 -276.195 741.347 -280.589 739.475 -284.821L722.133 -277.253C720.423 -281.159 718.551 -285.391 716.597 -288.728L733.45 -297.436C731.333 -301.587 728.972 -305.575 726.611 -309.644L710.327 -299.715C708.129 -303.377 705.768 -306.877 703.244 -310.295L718.795 -321.282C716.108 -325.107 713.258 -328.851 710.653 -332.432L695.917 -320.468C693.23 -323.724 690.462 -326.898 687.775 -329.99L701.209 -343.175C698.033 -346.511 694.695 -349.848 691.276 -353.022L678.331 -339.105C675.237 -342.035 672.061 -344.802 668.723 -347.244L680.773 -361.974C677.109 -364.904 673.364 -367.753 669.619 -370.113L658.628 -355.301C655.127 -357.742 651.626 -360.103 648.043 -362.381L657.895 -378.658C653.905 -381.019 649.753 -383.379 645.682 -385.495L636.645 -368.567C632.9 -370.52 629.073 -372.31 625.165 -374.02L632.737 -391.436C628.503 -393.308 624.107 -395.017 619.71 -396.563L613.36 -378.74C609.37 -380.123 605.218 -381.344 601.229 -382.484L606.358 -400.795C601.88 -402.016 597.239 -403.155 592.68 -404.051L588.935 -385.576C584.782 -386.39 580.793 -387.123 576.396 -387.692L578.92 -406.411C574.307 -407.062 569.666 -407.55 564.998 -407.876L563.695 -388.913C559.543 -388.913 555.554 -389.401 551.157 -389.401V-408.283C546.516 -408.283 541.794 -408.283 537.153 -407.794L538.944 -388.913C534.711 -388.913 530.803 -388.181 526.325 -387.611L523.719 -406.411C519.16 -405.76 514.519 -404.946 509.96 -404.051L513.787 -385.495C509.634 -384.681 505.645 -383.623 501.493 -382.484L496.363 -400.714C491.885 -399.493 487.407 -398.028 483.011 -396.482L489.361 -378.658C485.372 -377.194 481.22 -375.647 477.556 -373.938L469.984 -391.355C465.75 -389.483 461.842 -387.448 457.365 -385.332L465.669 -368.485C461.924 -366.532 458.26 -364.497 454.596 -362.3L444.745 -378.577C440.755 -376.217 436.603 -373.613 433.021 -370.927L444.012 -355.382C440.593 -352.941 437.173 -350.418 433.916 -347.732L421.948 -362.463C418.284 -359.533 414.783 -356.44 411.364 -353.266L424.391 -339.349C421.215 -336.501 418.284 -333.49 415.353 -330.397L401.431 -343.175C398.256 -339.838 395.162 -336.257 392.231 -332.676L406.967 -320.712C404.281 -317.375 401.757 -314.039 399.314 -310.539L383.763 -321.526C381.077 -317.701 378.553 -313.388 376.11 -309.807L392.394 -299.959C390.195 -296.297 388.16 -292.634 386.206 -288.891L369.19 -297.599C367.073 -293.448 365.038 -289.46 363.165 -284.984L380.588 -277.415C378.878 -273.509 377.332 -269.277 375.947 -265.533L358.036 -271.881C356.489 -267.486 355.023 -263.01 353.802 -258.534L372.039 -253.488C370.9 -249.419 369.923 -245.35 369.027 -241.118L350.464 -244.943C349.568 -240.385 348.754 -235.746 348.103 -231.189L366.91 -228.584C366.34 -224.434 365.933 -220.446 365.607 -215.97L346.719 -217.19ZM551.401 -357.417C581.9 -357.417 611.714 -348.377 637.072 -331.439C662.431 -314.502 682.196 -290.428 693.867 -262.262C705.538 -234.096 708.592 -203.103 702.642 -173.202C696.692 -143.301 682.006 -115.835 660.44 -94.2776C638.874 -72.7203 611.398 -58.0396 581.485 -52.0919C551.572 -46.1442 520.567 -49.1968 492.39 -60.8636C464.213 -72.5303 440.13 -92.2873 423.185 -117.636C406.241 -142.985 397.197 -172.787 397.197 -203.273C397.326 -244.115 413.614 -283.247 442.505 -312.127C471.396 -341.007 510.543 -357.288 551.401 -357.417Z" fill="url(#paint2_radial_1_28)"/>
</g>
<g style="mix-blend-mode:color-dodge">
<path d="M-13.6333 -126.853C-13.6372 -120.179 -13.1474 -113.515 -12.1678 -106.913L-35.5345 -103.495C-35.046 -100.484 -34.4761 -97.4728 -33.9062 -94.4616L-10.8651 -99.2633C-9.4788 -92.7375 -7.6287 -86.319 -5.3288 -80.0564L-27.4742 -71.9179C-26.4972 -68.988 -25.2759 -66.2209 -24.1361 -63.7794L-2.4792 -73.0573C0.208302 -66.9658 3.3094 -61.0651 6.8024 -55.3967L-13.3076 -43.0262C-11.6793 -40.4219 -10.051 -37.8175 -8.2598 -34.8876L11.1989 -48.479C14.9622 -43.0009 19.1548 -37.8302 23.7371 -33.0158L6.5581 -16.7387C8.5936 -14.5413 10.7918 -12.3439 12.9901 -10.2279L29.2735 -27.4001C34.0886 -22.7935 39.2612 -18.5754 44.7427 -14.7854L31.0647 4.58414C33.5886 6.29324 36.1125 8.00243 38.7179 9.63013L51.2561 -10.472C56.8765 -6.98887 62.7557 -3.94156 68.842 -1.35696L59.3978 20.3728L67.54 23.791L75.681 1.57294C81.904 3.93554 88.301 5.81304 94.814 7.18854L90.011 30.2205C92.942 30.8716 96.035 31.4413 99.048 31.8482L102.549 8.57202C109.132 9.50092 115.767 10.0173 122.415 10.1184V33.6387H123.717C126.485 33.6387 129.335 33.6387 131.859 33.6387L130.556 10.0369C137.227 9.68483 143.865 8.86912 150.422 7.59552L155.063 30.7901C158.075 30.139 161.006 29.488 164.019 28.6742L158.075 5.80502C164.528 4.15232 170.843 2.00272 176.964 -0.624481L186.164 21.1053C188.932 19.9659 191.782 18.6638 194.306 17.3616L183.885 -3.87988C189.844 -6.83028 195.585 -10.2028 201.064 -13.9716L214.497 5.47934C217.021 3.77034 219.464 1.97984 221.906 0.107941L207.333 -18.6105C212.619 -22.6887 217.599 -27.1498 222.232 -31.9577L239.248 -15.6807C241.365 -17.7967 243.482 -20.1569 245.436 -22.4357L227.443 -37.8175C231.825 -42.9237 235.8 -48.3662 239.33 -54.0946L259.277 -41.3984C260.905 -44.0028 262.533 -46.6071 263.999 -49.537L243.319 -61.0123C246.521 -66.8028 249.244 -72.8455 251.461 -79.0798L273.606 -70.9413C274.665 -73.7898 275.642 -76.7196 276.537 -79.6495L254.066 -86.73C256.045 -93.0699 257.568 -99.543 258.625 -106.1L281.911 -102.437C282.399 -105.448 282.725 -108.541 283.051 -111.552L259.521 -113.913C260.013 -118.454 260.258 -123.018 260.254 -127.585C260.254 -129.701 260.254 -131.736 260.254 -133.771L283.865 -134.829C283.865 -137.921 283.865 -141.014 283.213 -144.025L259.684 -141.584C259.008 -148.221 257.865 -154.802 256.264 -161.279L279.143 -167.057C278.41 -170.068 277.514 -172.998 276.619 -175.847L254.066 -168.766C252.12 -175.136 249.669 -181.341 246.738 -187.322L267.988 -197.658C266.686 -200.344 265.22 -203.111 263.755 -205.796L243.075 -194.24C239.87 -199.942 236.222 -205.385 232.165 -210.517L250.972 -224.922C249.1 -227.282 247.146 -229.724 245.11 -232.002L227.198 -216.539C222.95 -221.63 218.294 -226.366 213.276 -230.7L228.827 -248.605C226.547 -250.558 224.105 -252.511 221.743 -254.383L207.251 -235.665C202.09 -239.731 196.648 -243.43 190.968 -246.733L202.529 -267.324C199.924 -268.789 197.156 -270.253 194.387 -271.556L183.966 -250.314C177.994 -253.337 171.786 -255.868 165.403 -257.883L172.568 -280.345C169.718 -281.24 166.787 -282.136 163.774 -282.868L157.912 -260.08C151.471 -261.746 144.911 -262.916 138.291 -263.58L140.733 -287.019C137.721 -287.426 134.709 -287.589 131.615 -287.751L130.475 -264.231H123.636C119.258 -264.26 114.881 -264.042 110.528 -263.58L108.248 -287.1C105.236 -287.1 102.223 -286.449 99.129 -285.961L102.793 -262.685C96.18 -261.628 89.651 -260.105 83.253 -258.127L76.333 -280.752C73.402 -279.857 70.471 -278.88 67.702 -277.822L75.844 -255.686C69.608 -253.403 63.541 -250.684 57.688 -247.547L46.3711 -268.219C43.6843 -266.754 40.9976 -265.208 38.2294 -263.661L50.7676 -243.559C45.0044 -240.11 39.5556 -236.161 34.4842 -231.758L19.0964 -249.826C16.7353 -247.873 14.537 -245.838 12.3387 -243.722L28.6222 -226.55C23.7666 -221.997 19.275 -217.072 15.1883 -211.819L-3.4562 -226.387C-5.3288 -224.027 -7.1199 -221.585 -8.9111 -219.062L10.5476 -205.471C6.8436 -200.098 3.5764 -194.437 0.7775 -188.543L-20.3909 -199.123C-21.775 -196.356 -23.0777 -193.589 -24.2175 -190.984L-2.5606 -181.706C-5.1917 -175.581 -7.3687 -169.27 -9.0739 -162.825L-31.8707 -168.848C-32.6849 -165.918 -33.3362 -162.906 -33.9876 -159.895L-10.8651 -155.256C-12.2013 -148.709 -13.045 -142.071 -13.3891 -135.398L-37 -136.7C-37 -133.662 -37 -130.651 -37 -127.667V-127.178L-13.6333 -126.853ZM123.717 -255.441C149.115 -255.441 173.942 -247.912 195.058 -233.806C216.174 -219.699 232.631 -199.65 242.346 -176.193C252.062 -152.737 254.6 -126.927 249.639 -102.028C244.678 -77.1297 232.442 -54.2611 214.477 -36.3151C196.513 -18.369 173.627 -6.15177 148.716 -1.20877C123.804 3.73423 97.986 1.18103 74.526 -8.54556C51.0667 -18.2721 31.0198 -34.7351 16.9214 -55.852C2.823 -76.9688 -4.6935 -101.791 -4.6774 -127.178C-4.6343 -161.197 8.9094 -193.808 32.9811 -217.855C57.0527 -241.902 89.686 -255.42 123.717 -255.441Z" fill="url(#paint3_radial_1_28)"/>
</g>
<g style="mix-blend-mode:color-dodge">
<path d="M287.61 207.884C257.897 207.868 228.846 216.661 204.133 233.15C179.419 249.64 160.153 273.085 148.772 300.521C137.39 327.957 134.403 358.151 140.19 387.284C145.977 416.416 160.277 443.179 181.282 464.187C202.286 485.195 229.052 499.504 258.193 505.304C287.334 511.105 317.541 508.136 344.994 496.773C372.447 485.411 395.912 466.165 412.421 441.47C428.931 416.776 437.743 387.741 437.743 358.04C437.7 318.243 421.871 280.088 393.727 251.94C365.583 223.792 327.422 207.949 287.61 207.884ZM287.61 499.731C259.571 499.747 232.158 491.451 208.837 475.892C185.516 460.332 167.335 438.209 156.594 412.319C145.853 386.43 143.035 357.938 148.495 330.447C153.955 302.956 167.449 277.702 187.269 257.878C207.09 238.054 232.346 224.551 259.845 219.077C287.343 213.603 315.848 216.404 341.754 227.126C367.659 237.848 389.802 256.009 405.381 279.312C420.96 302.615 429.275 330.012 429.275 358.04C429.232 395.591 414.296 431.594 387.74 458.155C361.184 484.715 325.176 499.667 287.61 499.731Z" fill="url(#paint4_radial_1_28)"/>
<path d="M287.61 229.94C262.241 229.923 237.437 237.43 216.337 251.508C195.237 265.587 178.789 285.605 169.073 309.031C159.357 332.456 156.811 358.236 161.756 383.108C166.702 407.981 178.916 430.828 196.855 448.759C214.793 466.691 237.649 478.9 262.532 483.844C287.414 488.787 313.204 486.242 336.638 476.53C360.073 466.818 380.099 450.376 394.183 429.284C408.267 408.192 415.776 383.399 415.76 358.04C415.717 324.079 402.202 291.521 378.178 267.507C354.155 243.493 321.584 229.983 287.61 229.94ZM287.61 477.757C263.919 477.773 240.756 470.766 221.05 457.621C201.344 444.476 185.981 425.784 176.904 403.91C167.827 382.036 165.443 357.962 170.055 334.734C174.667 311.506 186.067 290.166 202.813 273.415C219.559 256.664 240.899 245.254 264.133 240.629C287.368 236.003 311.453 238.369 333.341 247.427C355.23 256.486 373.94 271.831 387.103 291.52C400.267 311.209 407.293 334.358 407.293 358.04C407.25 389.764 394.629 420.177 372.196 442.617C349.763 465.056 319.346 477.693 287.61 477.757Z" fill="url(#paint5_radial_1_28)"/>
<path d="M287.61 273.888C270.959 273.888 254.683 278.823 240.839 288.07C226.995 297.316 216.204 310.459 209.833 325.836C203.461 341.213 201.794 358.133 205.042 374.457C208.29 390.781 216.308 405.775 228.082 417.544C239.855 429.313 254.856 437.328 271.186 440.575C287.516 443.822 304.443 442.156 319.826 435.786C335.209 429.417 348.357 418.631 357.607 404.792C366.857 390.953 371.795 374.683 371.795 358.04C371.752 335.734 362.868 314.355 347.09 298.583C331.312 282.81 309.924 273.931 287.61 273.888ZM287.61 433.809C272.614 433.825 257.951 429.395 245.476 421.079C233 412.764 223.272 400.936 217.522 387.092C211.773 373.248 210.26 358.011 213.175 343.308C216.091 328.605 223.304 315.096 233.901 304.491C244.499 293.887 258.005 286.662 272.711 283.732C287.416 280.802 302.661 282.298 316.516 288.03C330.372 293.762 342.215 303.474 350.547 315.936C358.88 328.398 363.327 343.05 363.327 358.04C363.285 378.108 355.296 397.343 341.108 411.541C326.919 425.739 307.685 433.745 287.61 433.809Z" fill="url(#paint6_radial_1_28)"/>
<path d="M287.61 303.512C276.798 303.496 266.225 306.687 257.228 312.681C248.232 318.676 241.217 327.204 237.072 337.185C232.927 347.167 231.838 358.154 233.943 368.755C236.049 379.356 241.254 389.094 248.899 396.736C256.544 404.378 266.286 409.581 276.891 411.685C287.495 413.79 298.487 412.701 308.472 408.558C318.458 404.415 326.99 397.403 332.986 388.41C338.983 379.417 342.175 368.847 342.159 358.04C342.159 343.578 336.412 329.709 326.182 319.483C315.952 309.257 302.077 303.512 287.61 303.512Z" fill="url(#paint7_radial_1_28)"/>
<path d="M-10.7026 309.371C-13.2755 325.522 -14.5821 341.849 -14.6106 358.202V358.935H29.7617C29.762 376.798 31.645 394.611 35.3795 412.079L-8.0158 421.195C-4.6525 437.207 0.0314035 452.914 5.9879 468.154L47.4292 451.877C53.8962 468.474 62.0825 484.349 71.854 499.243L34.6467 523.658C43.6371 537.282 53.6822 550.181 64.69 562.235L97.256 532.204C109.274 545.372 122.646 557.238 137.151 567.606L111.179 603.741C124.456 613.262 138.478 621.699 153.109 628.971L172.893 589.173C188.842 597.175 205.6 603.45 222.883 607.892L211.81 650.782C227.628 654.801 243.748 657.523 260.009 658.921L263.999 614.728C271.652 615.379 279.468 615.786 287.365 615.786C297.406 615.763 307.436 615.165 317.408 613.996L322.456 658.107C338.697 656.18 354.759 652.969 370.492 648.503L358.28 605.776C375.428 600.865 392.018 594.183 407.781 585.837L428.787 625.308C443.207 617.673 456.984 608.882 469.984 599.021L443.116 563.619C457.293 552.755 470.307 540.454 481.952 526.914L515.496 556.131C526.249 543.82 535.971 530.646 544.562 516.741L506.703 493.383C516.129 478.239 523.934 462.144 529.988 445.366L571.755 460.422C577.304 445.065 581.58 429.277 584.538 413.219L540.898 405.08C543.743 389.534 545.187 373.763 545.213 357.958C545.213 355.924 545.213 353.889 545.213 351.854L589.585 350.796C589.197 334.408 587.481 318.077 584.456 301.965L540.817 310.104C537.583 292.608 532.507 275.504 525.673 259.075L566.382 242.066C560.145 226.98 552.656 212.443 543.992 198.606L506.377 222.289C497.009 207.149 486.095 193.021 473.81 180.132L506.377 149.45C495.093 137.627 482.868 126.74 469.821 116.896L443.035 152.379C428.808 141.625 413.501 132.378 397.36 124.79L416.249 84.586C401.45 77.6531 386.122 71.9108 370.411 67.4134L358.28 110.141C341.117 105.262 323.488 102.207 305.684 101.025L308.778 56.752C301.858 56.2637 294.856 56.0195 287.854 56.0195C278.572 56.0195 269.128 56.0196 259.928 57.3217L263.999 101.514C246.232 103.1 228.683 106.565 211.647 111.85L198.539 69.448C182.943 74.3304 167.753 80.4258 153.109 87.678L172.567 127.476C156.612 135.448 141.524 145.049 127.544 156.123L99.943 121.29C87.126 131.405 75.171 142.566 64.201 154.658L96.768 184.527C84.766 197.728 74.154 212.128 65.097 227.498L26.7493 204.954C18.4234 219.011 11.2881 233.738 5.418 248.984L46.8593 265.261C40.4099 281.877 35.6899 299.113 32.7741 316.696L-10.7026 309.371ZM287.61 578.593C243.968 578.609 201.301 565.688 165.006 541.463C128.711 517.238 100.419 482.798 83.706 442.498C66.994 402.199 62.6132 357.85 71.117 315.062C79.622 272.273 100.629 232.967 131.483 202.114C162.337 171.26 201.651 150.247 244.453 141.73C287.256 133.213 331.623 137.576 371.945 154.267C412.266 170.958 446.73 199.227 470.978 235.498C495.226 271.77 508.168 314.415 508.168 358.04C508.104 416.5 484.848 472.549 443.502 513.895C402.155 555.24 346.093 578.507 287.61 578.593Z" fill="url(#paint8_radial_1_28)"/>
</g>
<g style="mix-blend-mode:color-dodge">
<path d="M755.025 396.291C732.236 396.291 709.959 403.047 691.012 415.704C672.065 428.362 657.299 446.352 648.582 467.4C639.864 488.447 637.588 511.606 642.039 533.947C646.491 556.288 657.472 576.808 673.592 592.91C689.711 609.012 710.247 619.974 732.6 624.408C754.953 628.842 778.119 626.55 799.169 617.821C820.218 609.093 838.205 594.32 850.854 575.371C863.503 556.422 870.246 534.149 870.23 511.369C870.166 480.854 858.005 451.609 836.411 430.039C814.818 408.469 785.552 396.334 755.025 396.291ZM755.025 555.968C746.194 556.001 737.552 553.412 730.193 548.531C722.835 543.65 717.091 536.696 713.689 528.55C710.287 520.403 709.38 511.431 711.083 502.769C712.786 494.107 717.023 486.145 723.256 479.891C729.489 473.637 737.439 469.374 746.098 467.639C754.757 465.905 763.736 466.779 771.898 470.15C780.06 473.521 787.038 479.237 791.948 486.575C796.858 493.912 799.479 502.542 799.479 511.369C799.489 517.215 798.348 523.006 796.12 528.412C793.892 533.817 790.62 538.73 786.492 542.872C782.364 547.013 777.461 550.301 772.062 552.549C766.663 554.796 760.873 555.958 755.025 555.968Z" fill="url(#paint9_radial_1_28)"/>
<path d="M755.025 307.418C714.652 307.418 675.186 319.387 641.618 341.81C608.05 364.233 581.888 396.103 566.442 433.39C550.996 470.676 546.958 511.705 554.841 551.285C562.723 590.866 582.171 627.221 610.725 655.752C639.278 684.284 675.656 703.709 715.255 711.573C754.854 719.436 795.897 715.384 833.192 699.929C870.488 684.474 902.36 658.31 924.778 624.746C947.197 591.182 959.154 551.727 959.138 511.369C959.073 457.284 937.545 405.433 899.278 367.197C861.011 328.96 809.132 307.461 755.025 307.418ZM755.025 680.162C721.648 680.162 689.02 670.269 661.266 651.735C633.512 633.2 611.88 606.856 599.103 576.033C586.326 545.209 582.979 511.291 589.485 478.567C595.991 445.842 612.057 415.78 635.653 392.183C659.249 368.585 689.314 352.51 722.049 345.991C754.783 339.472 788.716 342.801 819.557 355.558C850.399 368.315 876.764 389.927 895.319 417.66C913.874 445.394 923.787 478.005 923.803 511.369C923.781 556.115 905.995 599.023 874.35 630.671C842.705 662.319 799.789 680.119 755.025 680.162Z" fill="url(#paint10_radial_1_28)"/>
<path d="M1093.23 534.483C1093.72 526.832 1094.05 519.101 1094.05 511.451V510.555H1062.78C1062.78 503.475 1062.78 496.557 1061.97 489.558L1093.15 487.361C1092.66 479.71 1091.85 471.979 1090.79 464.41L1059.77 468.723C1058.79 461.724 1057.65 454.807 1056.19 447.97L1086.8 441.622C1085.25 434.053 1083.38 426.485 1081.34 419.16L1051.14 427.298C1049.19 420.543 1047.15 413.87 1044.79 407.278L1074.26 396.779C1071.66 389.536 1068.81 382.292 1065.71 375.293L1036.97 387.827C1034.2 381.397 1031.11 375.131 1027.85 368.945L1055.7 354.459C1052.2 347.622 1048.37 340.867 1044.3 334.275L1017.6 350.552C1013.93 344.53 1010.02 338.751 1005.95 333.054L1031.6 314.824C1027.12 308.639 1022.4 302.454 1017.6 296.513L993.17 316.37C988.77 310.918 984.13 305.709 979.33 300.582L1002.21 279.096C997 273.481 991.46 268.028 985.92 262.819L964.51 285.851C959.382 281.049 954.09 276.492 948.716 272.016L968.5 247.6C962.476 242.717 956.288 238.078 950.019 233.602L931.945 259.319C926.164 255.25 920.383 251.181 914.358 247.763L930.642 220.987C924.047 216.999 917.289 212.849 910.45 209.675L896.04 237.508C889.852 234.334 883.501 231.242 877.069 228.475L889.526 199.746C882.443 196.653 875.197 193.805 867.951 191.607L857.448 221.15C850.935 218.763 844.258 216.647 837.419 214.802L845.561 184.608C838.152 182.573 830.58 180.783 823.09 179.237L816.821 209.837C809.982 208.372 803.061 207.314 796.059 206.338L800.293 175.33C792.64 174.353 784.905 173.54 777.252 173.051L775.217 204.303C768.459 203.815 761.62 203.489 754.781 203.489H754.211V172.237C746.558 172.237 738.742 172.237 731.089 173.051L733.287 204.303C726.285 204.792 719.283 205.524 712.363 206.419L708.129 175.411C700.476 176.469 692.823 177.853 685.332 179.399L691.683 210C684.844 211.465 678.005 213.174 671.328 215.046L663.187 184.852C655.778 186.968 648.369 189.328 641.123 191.933L651.626 221.394C645.031 223.754 638.517 226.358 632.167 229.533L619.629 200.804C612.545 203.815 605.543 207.233 598.704 210.733L613.278 238.566C607.009 241.822 600.903 245.24 594.959 248.902L578.676 222.127C572.162 226.114 565.649 230.265 559.38 234.823L577.536 260.459C571.837 264.528 566.219 268.597 561.253 273.155L541.387 248.739C535.443 253.623 529.581 258.75 523.964 264.04L545.458 286.909C540.328 291.711 535.443 296.675 530.64 301.803L507.68 280.398C502.388 286.014 497.34 291.874 492.455 297.815L516.88 317.591C512.484 323.044 508.739 328.66 504.261 334.357L477.8 316.045C473.404 322.312 469.17 328.822 465.099 335.333L491.885 351.61C488.303 357.633 484.883 363.737 481.708 370.003L453.782 355.598C450.281 362.353 446.943 369.434 443.849 376.514L472.589 389.292C469.821 395.64 467.297 402.232 464.936 408.824L435.382 398.407C432.776 405.65 430.497 413.056 428.38 420.462L458.586 428.601C456.713 435.356 455.003 442.111 453.619 448.947L423.006 442.68C421.459 450.249 420.157 457.899 419.098 465.549L450.118 469.7C449.223 476.618 448.49 483.536 448.001 490.616L416.819 488.744C416.33 496.232 416.086 503.882 416.086 511.451V511.858H447.269C447.269 518.857 447.269 525.856 448.083 532.774L416.819 534.971C417.389 542.621 418.203 550.353 419.18 557.922L450.2 553.69C451.177 560.689 452.317 567.525 453.782 574.361L423.169 580.709C424.716 588.278 426.589 595.847 428.624 603.253L458.83 595.115C460.703 601.869 462.819 608.543 465.18 615.054L435.626 625.308C438.231 632.47 441.081 639.714 443.768 646.794L472.508 634.261C475.358 640.69 478.37 646.957 481.627 653.142L453.701 667.629C457.283 674.465 461.11 681.22 465.099 687.731L491.885 671.454C495.549 677.395 499.457 683.173 503.446 688.87L477.8 707.101C482.278 713.286 487 719.552 491.804 725.494L516.229 705.636C520.625 711.088 525.266 716.297 530.07 721.424L507.11 742.91C512.402 748.444 517.857 753.978 523.394 759.187L544.888 736.236C549.936 741.038 555.228 745.677 560.683 750.072L540.817 774.487C546.842 779.371 553.029 784.01 559.299 788.486L577.455 762.849C583.154 766.837 588.934 770.988 594.959 774.406L578.676 801.182C585.189 805.17 592.028 809.32 598.867 812.494L613.278 784.661C619.466 787.916 625.816 790.927 632.248 793.694L620.361 822.423C627.363 825.435 634.609 828.283 641.937 830.562L652.358 801.019C658.98 803.406 665.656 805.522 672.387 807.367L664.245 837.561C671.654 839.596 679.226 841.467 686.716 843.014L693.067 812.413C699.824 813.797 706.745 814.936 713.747 815.831L709.513 846.839C717.166 847.897 724.901 848.711 732.554 849.199L734.671 817.947C741.51 818.435 748.43 818.761 755.432 818.761V849.931C763.085 849.931 770.902 849.931 778.555 849.199L776.357 817.947C783.44 817.459 790.36 816.726 797.281 815.831L801.514 846.839C809.168 845.781 816.821 844.479 824.311 842.851L817.961 812.331C824.881 810.867 831.639 809.158 838.396 807.204L846.538 837.398C853.866 835.363 861.356 833.003 868.602 830.399L858.099 800.938C864.694 798.577 871.126 795.973 877.558 792.799L890.096 821.528C897.098 818.435 904.1 815.099 910.939 811.599L896.447 783.684C902.743 780.483 908.849 777.065 914.766 773.429L931.049 800.205C937.562 796.217 944.076 792.067 950.345 787.509L932.189 761.873C937.888 757.803 943.506 753.734 948.961 749.177L968.74 773.592C974.69 768.79 980.55 763.663 986.17 758.373L964.76 735.423C969.8 730.702 974.77 725.738 979.57 720.611L1002.53 742.015C1007.74 736.481 1012.87 730.539 1017.76 724.598L993.33 704.822C997.73 699.369 1001.96 693.753 1006.03 688.056L1031.68 706.205C1036.08 699.939 1040.39 693.428 1044.38 686.836L1017.6 670.559C1021.26 664.617 1024.68 658.432 1027.85 652.247L1055.78 666.652C1059.28 659.816 1062.62 652.817 1065.71 645.818L1036.97 633.284C1039.74 626.855 1042.35 620.344 1044.71 613.752L1074.18 624.25C1076.79 617.007 1079.15 609.52 1081.18 602.195L1051.06 594.057C1052.93 587.302 1054.64 580.547 1056.11 573.629L1086.72 579.977C1088.27 572.489 1089.57 564.839 1090.54 557.189L1059.53 552.957C1060.5 546.039 1061.23 539.122 1061.72 532.041L1093.23 534.483ZM755.025 766.105C704.624 766.105 655.354 751.165 613.446 723.174C571.539 695.183 538.876 655.399 519.588 608.852C500.3 562.306 495.254 511.087 505.086 461.673C514.919 412.259 539.19 366.869 574.829 331.244C610.469 295.619 655.876 271.358 705.309 261.528C754.742 251.699 805.981 256.744 852.547 276.024C899.112 295.305 938.911 327.955 966.91 369.846C994.91 411.737 1009.86 460.987 1009.86 511.369C1009.8 578.909 982.93 643.665 935.15 691.423C887.373 739.181 822.592 766.04 755.025 766.105Z" fill="url(#paint11_radial_1_28)"/>
</g>
<g style="mix-blend-mode:color-dodge">
<path d="M543.504 897.054C583.613 897.054 616.128 864.551 616.128 824.458C616.128 784.365 583.613 751.863 543.504 751.863C503.395 751.863 470.88 784.365 470.88 824.458C470.88 864.551 503.395 897.054 543.504 897.054Z" fill="url(#paint12_radial_1_28)"/>
<path d="M785.638 850.176C786.552 841.579 787.014 832.94 787.022 824.295H751.28C751.195 808.736 749.392 793.233 745.906 778.068L780.834 769.93C778.894 761.533 776.502 753.247 773.67 745.107L739.882 756.827C734.791 742.112 728.045 728.024 719.772 714.832L750.14 695.869C745.612 688.583 740.692 681.546 735.404 674.791L707.152 696.846C697.584 684.585 686.659 673.446 674.585 663.641L697.219 635.807C690.535 630.409 683.578 625.356 676.376 620.67L656.755 650.619C643.744 642.109 629.816 635.093 615.232 629.703L627.607 596.173C619.611 593.181 611.457 590.627 603.182 588.522L594.552 623.193C579.445 619.416 563.958 617.368 548.389 617.089L549.121 581.279C540.537 581.104 531.95 581.376 523.394 582.093L526.325 617.74C510.835 619.027 495.541 622.058 480.731 626.773L469.495 592.754C461.188 595.361 453.034 598.432 445.07 601.951L459.481 634.505C445.384 640.79 432.031 648.624 419.668 657.863L398.256 629.134C391.364 634.221 384.733 639.654 378.39 645.411L402.815 671.698C391.369 682.23 381.154 694.025 372.365 706.856L342.811 686.591C337.949 693.675 333.465 701.01 329.377 708.565L360.804 725.575C353.418 739.359 347.627 753.94 343.543 769.035L309.022 759.513C306.726 767.79 304.877 776.184 303.486 784.661L338.74 790.52C336.906 801.74 335.981 813.089 335.971 824.458C335.971 828.69 335.971 832.596 336.379 836.991L300.636 839.107C301.206 847.246 302.183 856.279 303.567 864.744L338.821 858.802C341.391 874.155 345.679 889.169 351.604 903.564L318.548 917.156C321.825 925.131 325.521 932.927 329.621 940.513L361.129 923.422C368.569 937.083 377.527 949.859 387.834 961.51L360.885 985.19C366.577 991.64 372.611 997.78 378.96 1003.59L403.385 977.218C414.876 987.74 427.49 996.96 441 1004.73L423.169 1035.82C430.649 1040.06 438.339 1043.91 446.21 1047.37L460.621 1014.82C474.871 1021.07 489.784 1025.68 505.075 1028.57L498.236 1063.57C506.692 1065.15 515.225 1066.29 523.801 1066.99L526.732 1031.34C532.349 1031.83 538.049 1032.15 543.748 1032.15C553.639 1032.12 563.515 1031.39 573.302 1029.96L578.269 1065.36C586.792 1064.16 595.244 1062.5 603.589 1060.39L594.878 1025.72C609.939 1021.96 624.524 1016.5 638.354 1009.45L654.638 1041.27C662.297 1037.35 669.743 1033.03 676.946 1028.33L657.325 998.38C670.318 989.82 682.331 979.856 693.148 968.672L718.957 993.58C724.922 987.37 730.548 980.853 735.811 974.044L707.559 952.07C717.147 939.806 725.34 926.512 731.984 912.435L764.551 927.573C768.205 919.776 771.44 911.788 774.24 903.646L740.37 892.008C745.471 877.304 748.885 862.069 750.547 846.595L785.638 850.176ZM543.504 1002.12C508.355 1002.11 474 991.67 444.782 972.14C415.565 952.609 392.797 924.856 379.357 892.39C365.918 859.925 362.41 824.206 369.277 789.748C376.144 755.29 393.078 723.641 417.937 698.802C442.797 673.963 474.466 657.051 508.941 650.202C543.416 643.353 579.148 646.877 611.619 660.326C644.091 673.775 671.845 696.547 691.371 725.762C710.897 754.977 721.319 789.323 721.319 824.458C721.254 871.572 702.496 916.736 669.161 950.043C635.826 983.35 590.636 1002.08 543.504 1002.12Z" fill="url(#paint13_radial_1_28)"/>
</g>
<g style="mix-blend-mode:color-dodge">
<path d="M830.499 63.7511C793.676 63.7672 757.684 74.6971 727.074 95.159C696.464 115.621 672.611 144.695 658.53 178.707C644.449 212.719 640.774 250.141 647.967 286.241C655.161 322.34 672.902 355.498 698.945 381.52C724.989 407.542 758.167 425.261 794.285 432.436C830.402 439.611 867.836 435.921 901.855 421.831C935.874 407.741 964.95 383.884 985.41 353.277C1005.86 322.671 1016.78 286.688 1016.78 249.879C1016.78 225.429 1011.96 201.219 1002.6 178.632C993.24 156.045 979.51 135.523 962.216 118.238C944.917 100.953 924.38 87.245 901.78 77.8959C879.18 68.5469 854.958 63.7404 830.499 63.7511ZM830.499 396.942C801.408 396.926 772.975 388.289 748.794 372.123C724.613 355.958 705.768 332.989 694.643 306.12C683.518 279.251 680.612 249.688 686.291 221.168C691.97 192.649 705.98 166.452 726.551 145.89C747.121 125.328 773.328 111.323 801.859 105.646C830.39 99.969 859.964 102.874 886.844 113.995C913.723 125.116 936.701 143.953 952.873 168.124C969.04 192.296 977.69 220.718 977.7 249.798C977.71 269.124 973.91 288.263 966.52 306.12C959.124 323.977 948.282 340.202 934.611 353.868C920.939 367.534 904.708 378.372 886.844 385.763C868.979 393.154 849.833 396.953 830.499 396.942Z" fill="url(#paint14_radial_1_28)"/>
<path d="M1057.41 249.391C1057.38 238.359 1056.56 227.344 1054.97 216.43L1093.48 210.733C1092.82 205.768 1091.85 200.722 1090.87 195.839L1052.69 203.978C1050.46 193.118 1047.47 182.43 1043.73 171.993L1080.37 158.646C1078.66 153.844 1076.7 149.205 1074.75 144.648L1038.93 160.03C1034.52 149.94 1029.41 140.176 1023.62 130.812L1056.84 110.303C1054.23 106.071 1051.46 101.758 1048.7 97.689L1016.62 120.07C1010.36 111.041 1003.39 102.523 995.78 94.596L1024.27 67.739C1020.85 64.0767 1017.27 60.4957 1013.61 56.9961L986.74 85.4C978.81 77.7658 970.29 70.7719 961.255 64.4835L983.81 32.4992C979.74 29.6508 975.67 26.8023 971.11 24.3607L950.508 57.6472C941.197 51.7865 931.453 46.6443 921.36 42.2654L936.911 6.3746C932.27 4.4213 927.467 2.468 922.826 0.759005L909.311 37.3823C898.984 33.5955 888.4 30.5494 877.639 28.2672L885.781 -9.90247C880.815 -10.9605 875.767 -11.9371 870.8 -12.5882L865.02 25.9071C854.233 24.3348 843.353 23.4918 832.453 23.384V-15.5181H831.232C826.591 -15.5181 821.95 -15.5181 817.309 -15.5181L819.426 23.384C808.481 23.9413 797.594 25.3289 786.859 27.5347L779.206 -10.7977C774.24 -9.73971 769.355 -8.68172 764.388 -7.3796L774.24 30.3831C763.614 33.1861 753.195 36.7213 743.057 40.9632L727.832 5.0724C723.191 7.0256 718.551 9.1417 714.073 11.3391L731.333 46.416C721.071 51.2483 711.191 56.8528 701.779 63.1813L679.552 30.6273C675.481 33.4758 671.41 36.4871 667.339 39.5797L691.764 70.4247C683.115 77.1949 674.953 84.565 667.339 92.48L639.169 65.4602C635.668 68.9598 632.33 72.7849 629.073 76.61L658.709 102.084C651.355 110.462 644.685 119.416 638.762 128.859L605.706 107.943C603.02 112.257 600.414 116.57 597.565 121.046L631.76 139.928C626.376 149.537 621.749 159.55 617.919 169.877L581.363 156.123C579.572 160.844 577.943 165.645 576.396 170.528L613.685 182.166C610.407 192.663 607.877 203.378 606.114 214.232L567.603 208.128C566.87 213.093 566.219 218.139 565.649 223.185L604.567 227.01C603.747 234.551 603.34 242.131 603.345 249.716C603.345 253.134 603.345 256.552 603.345 259.971L564.265 261.761C564.265 266.807 564.916 271.853 565.405 276.817L604.241 272.911C605.353 283.885 607.258 294.765 609.94 305.465L572.163 314.906C573.302 319.87 574.768 324.753 576.233 329.473L613.522 317.754C616.995 328.357 621.296 338.67 626.386 348.599L591.214 365.608C593.494 370.085 595.855 374.642 598.216 379.037L632.411 359.993C637.69 369.631 643.735 378.83 650.486 387.501L619.466 411.347C622.56 415.335 625.735 419.485 629.073 423.066L658.627 397.43C665.808 405.774 673.591 413.581 681.913 420.788L656.266 450.33C660.093 453.586 664.408 456.841 667.99 459.934L691.927 428.926C700.629 435.733 709.828 441.882 719.446 447.319L700.232 481.257C704.628 483.698 709.106 486.14 713.665 488.337L730.844 453.26C740.721 458.175 750.954 462.338 761.457 465.712L749.57 503.231C754.374 504.696 759.259 506.161 764.144 507.381L773.833 469.7C784.522 472.466 795.411 474.397 806.4 475.478L802.247 514.299C807.295 514.842 812.343 515.249 817.391 515.52L819.263 476.536C823.009 476.536 826.835 476.536 830.662 476.536C837.869 476.567 845.073 476.187 852.237 475.397L855.983 514.299C860.949 513.811 865.997 513.16 871.045 512.427L865.101 473.932C876.127 472.243 887.012 469.74 897.668 466.445L909.066 503.882C913.87 502.336 918.674 500.708 923.396 498.917L909.474 462.538C919.781 458.685 929.794 454.088 939.435 448.784L958.242 483.047C962.557 480.687 967.04 478.001 971.19 475.397L950.508 442.273C959.876 436.501 968.75 429.968 977.05 422.741L1002.45 452.609C1006.28 449.354 1010.02 445.936 1013.69 442.517L986.74 413.707C994.77 406.184 1002.18 398.018 1008.88 389.292L1039.74 413.707C1042.83 409.801 1045.85 405.569 1048.78 401.662L1016.21 379.2C1022.62 370.251 1028.26 360.776 1033.06 350.878L1068.07 368.376C1070.35 363.899 1072.55 359.179 1074.51 354.622L1038.6 339.158C1042.97 329.056 1046.56 318.636 1049.35 307.988L1087.13 317.917C1088.43 313.115 1089.57 308.151 1090.55 303.186L1052.36 295.048C1054.55 284.312 1055.96 273.432 1056.59 262.494L1095.59 264.691C1095.59 259.727 1096 254.681 1096 249.797V248.984L1057.41 249.391ZM830.58 461.887C788.592 461.903 747.544 449.466 712.631 426.149C677.718 402.832 650.511 369.685 634.454 330.904C618.397 292.123 614.212 249.451 622.429 208.291C630.647 167.131 650.896 129.333 680.615 99.683C710.333 70.0336 748.185 49.8646 789.376 41.7297C830.568 33.5948 873.249 37.8598 912.014 53.9849C950.78 70.11 983.89 97.37 1007.15 132.314C1030.4 167.258 1042.77 208.314 1042.67 250.286C1042.48 306.417 1020.06 360.188 980.31 399.84C940.569 439.493 886.734 461.801 830.58 461.887Z" fill="url(#paint15_radial_1_28)"/>
</g>
</g>
</g>
</g>
</g>
<defs>
<linearGradient id="paint0_linear_1_28" x1="751.088" y1="-34.5127" x2="96.0429" y2="1067.86" gradientUnits="userSpaceOnUse">
<stop stop-color="#7D33BA"/>
<stop offset="1" stop-color="#ED017F"/>
</linearGradient>
<linearGradient id="paint1_linear_1_28" x1="751.088" y1="-34.5127" x2="96.0429" y2="1067.86" gradientUnits="userSpaceOnUse">
<stop stop-color="#7D33BA"/>
<stop offset="1" stop-color="#ED017F"/>
</linearGradient>
<radialGradient id="paint2_radial_1_28" cx="0" cy="0" r="1" gradientUnits="userSpaceOnUse" gradientTransform="translate(1082.97 150.264) rotate(180) scale(940.123 939.754)">
<stop offset="0.34"/>
<stop offset="0.41" stop-color="#050505"/>
<stop offset="0.51" stop-color="#131313"/>
<stop offset="0.6" stop-color="#2B2B2B"/>
<stop offset="0.71" stop-color="#4C4C4C"/>
<stop offset="0.81" stop-color="#777777"/>
<stop offset="0.92" stop-color="#AAAAAA"/>
<stop offset="1" stop-color="#D6D6D6"/>
</radialGradient>
<radialGradient id="paint3_radial_1_28" cx="0" cy="0" r="1" gradientUnits="userSpaceOnUse" gradientTransform="translate(1082.97 150.264) rotate(180) scale(940.123 939.754)">
<stop offset="0.34"/>
<stop offset="0.41" stop-color="#050505"/>
<stop offset="0.51" stop-color="#131313"/>
<stop offset="0.6" stop-color="#2B2B2B"/>
<stop offset="0.71" stop-color="#4C4C4C"/>
<stop offset="0.81" stop-color="#777777"/>
<stop offset="0.92" stop-color="#AAAAAA"/>
<stop offset="1" stop-color="#D6D6D6"/>
</radialGradient>
<radialGradient id="paint4_radial_1_28" cx="0" cy="0" r="1" gradientUnits="userSpaceOnUse" gradientTransform="translate(1450.9 -270.091) scale(1497.02 1496.43)">
<stop offset="0.34"/>
<stop offset="0.41" stop-color="#050505"/>
<stop offset="0.51" stop-color="#131313"/>
<stop offset="0.6" stop-color="#2B2B2B"/>
<stop offset="0.71" stop-color="#4C4C4C"/>
<stop offset="0.81" stop-color="#777777"/>
<stop offset="0.92" stop-color="#AAAAAA"/>
<stop offset="1" stop-color="#D6D6D6"/>
</radialGradient>
<radialGradient id="paint5_radial_1_28" cx="0" cy="0" r="1" gradientUnits="userSpaceOnUse" gradientTransform="translate(1450.9 -270.091) scale(1497.02 1496.43)">
<stop offset="0.34"/>
<stop offset="0.41" stop-color="#050505"/>
<stop offset="0.51" stop-color="#131313"/>
<stop offset="0.6" stop-color="#2B2B2B"/>
<stop offset="0.71" stop-color="#4C4C4C"/>
<stop offset="0.81" stop-color="#777777"/>
<stop offset="0.92" stop-color="#AAAAAA"/>
<stop offset="1" stop-color="#D6D6D6"/>
</radialGradient>
<radialGradient id="paint6_radial_1_28" cx="0" cy="0" r="1" gradientUnits="userSpaceOnUse" gradientTransform="translate(1450.9 -270.091) scale(1497.02 1496.43)">
<stop offset="0.34"/>
<stop offset="0.41" stop-color="#050505"/>
<stop offset="0.51" stop-color="#131313"/>
<stop offset="0.6" stop-color="#2B2B2B"/>
<stop offset="0.71" stop-color="#4C4C4C"/>
<stop offset="0.81" stop-color="#777777"/>
<stop offset="0.92" stop-color="#AAAAAA"/>
<stop offset="1" stop-color="#D6D6D6"/>
</radialGradient>
<radialGradient id="paint7_radial_1_28" cx="0" cy="0" r="1" gradientUnits="userSpaceOnUse" gradientTransform="translate(-773.092 262.575) rotate(180) scale(1497.02 1496.43)">
<stop offset="0.34"/>
<stop offset="0.41" stop-color="#050505"/>
<stop offset="0.51" stop-color="#131313"/>
<stop offset="0.6" stop-color="#2B2B2B"/>
<stop offset="0.71" stop-color="#4C4C4C"/>
<stop offset="0.81" stop-color="#777777"/>
<stop offset="0.92" stop-color="#AAAAAA"/>
<stop offset="1" stop-color="#D6D6D6"/>
</radialGradient>
<radialGradient id="paint8_radial_1_28" cx="0" cy="0" r="1" gradientUnits="userSpaceOnUse" gradientTransform="translate(1450.9 -270.091) scale(1497.02 1496.43)">
<stop offset="0.34"/>
<stop offset="0.41" stop-color="#050505"/>
<stop offset="0.51" stop-color="#131313"/>
<stop offset="0.6" stop-color="#2B2B2B"/>
<stop offset="0.71" stop-color="#4C4C4C"/>
<stop offset="0.81" stop-color="#777777"/>
<stop offset="0.92" stop-color="#AAAAAA"/>
<stop offset="1" stop-color="#D6D6D6"/>
</radialGradient>
<radialGradient id="paint9_radial_1_28" cx="0" cy="0" r="1" gradientUnits="userSpaceOnUse" gradientTransform="translate(-123.547 -72.6504) scale(1553.6 1552.99)">
<stop offset="0.34"/>
<stop offset="0.41" stop-color="#050505"/>
<stop offset="0.51" stop-color="#131313"/>
<stop offset="0.6" stop-color="#2B2B2B"/>
<stop offset="0.71" stop-color="#4C4C4C"/>
<stop offset="0.81" stop-color="#777777"/>
<stop offset="0.92" stop-color="#AAAAAA"/>
<stop offset="1" stop-color="#D6D6D6"/>
</radialGradient>
<radialGradient id="paint10_radial_1_28" cx="0" cy="0" r="1" gradientUnits="userSpaceOnUse" gradientTransform="translate(-123.546 -72.6502) scale(1553.6 1552.99)">
<stop offset="0.34"/>
<stop offset="0.41" stop-color="#050505"/>
<stop offset="0.51" stop-color="#131313"/>
<stop offset="0.6" stop-color="#2B2B2B"/>
<stop offset="0.71" stop-color="#4C4C4C"/>
<stop offset="0.81" stop-color="#777777"/>
<stop offset="0.92" stop-color="#AAAAAA"/>
<stop offset="1" stop-color="#D6D6D6"/>
</radialGradient>
<radialGradient id="paint11_radial_1_28" cx="0" cy="0" r="1" gradientUnits="userSpaceOnUse" gradientTransform="translate(-123.547 -72.6505) scale(1553.6 1552.99)">
<stop offset="0.34"/>
<stop offset="0.41" stop-color="#050505"/>
<stop offset="0.51" stop-color="#131313"/>
<stop offset="0.6" stop-color="#2B2B2B"/>
<stop offset="0.71" stop-color="#4C4C4C"/>
<stop offset="0.81" stop-color="#777777"/>
<stop offset="0.92" stop-color="#AAAAAA"/>
<stop offset="1" stop-color="#D6D6D6"/>
</radialGradient>
<radialGradient id="paint12_radial_1_28" cx="0" cy="0" r="1" gradientUnits="userSpaceOnUse" gradientTransform="translate(-754.936 -208.482) scale(1553.6 1552.99)">
<stop offset="0.34"/>
<stop offset="0.41" stop-color="#050505"/>
<stop offset="0.51" stop-color="#131313"/>
<stop offset="0.6" stop-color="#2B2B2B"/>
<stop offset="0.71" stop-color="#4C4C4C"/>
<stop offset="0.81" stop-color="#777777"/>
<stop offset="0.92" stop-color="#AAAAAA"/>
<stop offset="1" stop-color="#D6D6D6"/>
</radialGradient>
<radialGradient id="paint13_radial_1_28" cx="0" cy="0" r="1" gradientUnits="userSpaceOnUse" gradientTransform="translate(-754.936 -208.482) scale(1553.6 1552.99)">
<stop offset="0.34"/>
<stop offset="0.41" stop-color="#050505"/>
<stop offset="0.51" stop-color="#131313"/>
<stop offset="0.6" stop-color="#2B2B2B"/>
<stop offset="0.71" stop-color="#4C4C4C"/>
<stop offset="0.81" stop-color="#777777"/>
<stop offset="0.92" stop-color="#AAAAAA"/>
<stop offset="1" stop-color="#D6D6D6"/>
</radialGradient>
<radialGradient id="paint14_radial_1_28" cx="0" cy="0" r="1" gradientUnits="userSpaceOnUse" gradientTransform="translate(-754.936 -208.482) scale(1553.6 1552.99)">
<stop offset="0.34"/>
<stop offset="0.41" stop-color="#050505"/>
<stop offset="0.51" stop-color="#131313"/>
<stop offset="0.6" stop-color="#2B2B2B"/>
<stop offset="0.71" stop-color="#4C4C4C"/>
<stop offset="0.81" stop-color="#777777"/>
<stop offset="0.92" stop-color="#AAAAAA"/>
<stop offset="1" stop-color="#D6D6D6"/>
</radialGradient>
<radialGradient id="paint15_radial_1_28" cx="0" cy="0" r="1" gradientUnits="userSpaceOnUse" gradientTransform="translate(-754.935 -208.482) scale(1553.6 1552.99)">
<stop offset="0.34"/>
<stop offset="0.41" stop-color="#050505"/>
<stop offset="0.51" stop-color="#131313"/>
<stop offset="0.6" stop-color="#2B2B2B"/>
<stop offset="0.71" stop-color="#4C4C4C"/>
<stop offset="0.81" stop-color="#777777"/>
<stop offset="0.92" stop-color="#AAAAAA"/>
<stop offset="1" stop-color="#D6D6D6"/>
</radialGradient>
<clipPath id="clip0_1_28">
<rect width="960" height="1085" fill="white" transform="translate(-37 -18)"/>
</clipPath>
</defs>
</svg>
