<svg width="200" height="60" viewBox="0 0 200 60" fill="none" xmlns="http://www.w3.org/2000/svg">
<path d="M192.593 0H7.40741C3.31641 0 0 3.35786 0 7.5V52.5C0 56.6421 3.31641 60 7.40741 60H192.593C196.684 60 200 56.6421 200 52.5V7.5C200 3.35786 196.684 0 192.593 0Z" fill="black"/>
<path d="M62.131 21V11.77H64.965C66.3343 11.77 67.4827 12.212 68.41 13.096C69.3373 13.98 69.801 15.0763 69.801 16.385C69.801 17.6937 69.3373 18.79 68.41 19.674C67.4827 20.558 66.3343 21 64.965 21H62.131ZM63.652 19.583H64.965C65.9357 19.583 66.7243 19.2797 67.331 18.673C67.9463 18.0663 68.254 17.3037 68.254 16.385C68.254 15.4663 67.9463 14.7037 67.331 14.097C66.7243 13.4903 65.9357 13.187 64.965 13.187H63.652V19.583ZM71.9446 13.083C71.6846 13.083 71.4592 12.992 71.2686 12.81C71.0779 12.6193 70.9826 12.3897 70.9826 12.121C70.9826 11.861 71.0779 11.64 71.2686 11.458C71.4592 11.2673 71.6846 11.172 71.9446 11.172C72.2132 11.172 72.4386 11.2673 72.6206 11.458C72.8026 11.64 72.8936 11.861 72.8936 12.121C72.8936 12.3897 72.8026 12.6193 72.6206 12.81C72.4386 12.992 72.2132 13.083 71.9446 13.083ZM71.2296 21V14.5H72.6596V21H71.2296ZM74.5811 21V14.5H76.0111V15.657C76.1325 15.293 76.3535 14.9983 76.6741 14.773C77.0035 14.5477 77.3545 14.435 77.7271 14.435C77.9525 14.435 78.1388 14.4523 78.2861 14.487V15.956C78.0781 15.878 77.8398 15.839 77.5711 15.839C77.1378 15.839 76.7695 16.0167 76.4661 16.372C76.1628 16.7187 76.0111 17.204 76.0111 17.828V21H74.5811ZM82.1641 21.13C81.1934 21.13 80.3961 20.8137 79.7721 20.181C79.1481 19.5397 78.8361 18.7293 78.8361 17.75C78.8361 16.7707 79.1438 15.9647 79.7591 15.332C80.3744 14.6907 81.1804 14.37 82.1771 14.37C83.1824 14.37 83.9928 14.721 84.6081 15.423C85.2234 16.1163 85.4964 17.009 85.4271 18.101H80.2531C80.2704 18.6037 80.4611 19.024 80.8251 19.362C81.1891 19.7 81.6528 19.869 82.2161 19.869C83.0134 19.869 83.5594 19.5657 83.8541 18.959H85.3491C85.1498 19.5917 84.7684 20.1117 84.2051 20.519C83.6418 20.9263 82.9614 21.13 82.1641 21.13ZM82.1381 15.566C81.6701 15.566 81.2671 15.7003 80.9291 15.969C80.5998 16.229 80.3874 16.6017 80.2921 17.087H83.8931C83.7891 16.5843 83.5768 16.2073 83.2561 15.956C82.9354 15.696 82.5628 15.566 82.1381 15.566ZM89.8336 21.13C88.8543 21.13 88.0396 20.805 87.3896 20.155C86.7483 19.4963 86.4276 18.6947 86.4276 17.75C86.4276 16.8053 86.7483 16.008 87.3896 15.358C88.0396 14.6993 88.8543 14.37 89.8336 14.37C90.6743 14.37 91.3893 14.604 91.9786 15.072C92.5766 15.54 92.9623 16.1423 93.1356 16.879H91.6276C91.4976 16.515 91.2723 16.2247 90.9516 16.008C90.6396 15.7827 90.2669 15.67 89.8336 15.67C89.2616 15.67 88.7936 15.865 88.4296 16.255C88.0656 16.645 87.8836 17.1433 87.8836 17.75C87.8836 18.3567 88.0656 18.855 88.4296 19.245C88.7936 19.635 89.2616 19.83 89.8336 19.83C90.2669 19.83 90.6396 19.7217 90.9516 19.505C91.2723 19.2797 91.4976 18.985 91.6276 18.621H93.1356C92.9623 19.3577 92.5766 19.96 91.9786 20.428C91.3893 20.896 90.6743 21.13 89.8336 21.13ZM97.2322 21.065C96.5736 21.065 96.0362 20.883 95.6202 20.519C95.2129 20.1463 95.0092 19.609 95.0092 18.907V15.774H93.6572V14.5H95.0092V12.693H96.4392V14.5H98.2982V15.774H96.4392V18.673C96.4392 19.0717 96.5259 19.3577 96.6992 19.531C96.8726 19.6957 97.1499 19.778 97.5312 19.778C97.8432 19.778 98.0989 19.7347 98.2982 19.648V20.922C97.9862 21.0173 97.6309 21.065 97.2322 21.065ZM105.379 21.13C104.495 21.13 103.75 20.8007 103.143 20.142C102.545 19.4833 102.246 18.686 102.246 17.75C102.246 16.814 102.545 16.0167 103.143 15.358C103.75 14.6993 104.495 14.37 105.379 14.37C105.821 14.37 106.228 14.4697 106.601 14.669C106.974 14.8597 107.26 15.0937 107.459 15.371V11.25H108.889V21H107.459V20.129C107.26 20.4063 106.974 20.6447 106.601 20.844C106.228 21.0347 105.821 21.13 105.379 21.13ZM104.248 19.232C104.612 19.6307 105.076 19.83 105.639 19.83C106.202 19.83 106.666 19.6307 107.03 19.232C107.394 18.8333 107.576 18.3393 107.576 17.75C107.576 17.1607 107.394 16.6667 107.03 16.268C106.666 15.8693 106.202 15.67 105.639 15.67C105.076 15.67 104.612 15.8693 104.248 16.268C103.884 16.6667 103.702 17.1607 103.702 17.75C103.702 18.3393 103.884 18.8333 104.248 19.232ZM116.182 20.155C115.532 20.805 114.726 21.13 113.764 21.13C112.802 21.13 111.992 20.805 111.333 20.155C110.683 19.4963 110.358 18.6947 110.358 17.75C110.358 16.8053 110.683 16.008 111.333 15.358C111.992 14.6993 112.802 14.37 113.764 14.37C114.726 14.37 115.532 14.6993 116.182 15.358C116.841 16.008 117.17 16.8053 117.17 17.75C117.17 18.6947 116.841 19.4963 116.182 20.155ZM113.764 19.804C114.328 19.804 114.791 19.609 115.155 19.219C115.528 18.8203 115.714 18.3307 115.714 17.75C115.714 17.1693 115.528 16.684 115.155 16.294C114.791 15.8953 114.328 15.696 113.764 15.696C113.192 15.696 112.72 15.8953 112.347 16.294C111.983 16.684 111.801 17.1693 111.801 17.75C111.801 18.3307 111.983 18.8203 112.347 19.219C112.72 19.609 113.192 19.804 113.764 19.804ZM124.096 21L122.666 16.801L121.249 21H119.897L117.713 14.5H119.221L120.625 18.985L122.12 14.5H123.212L124.681 18.985L126.111 14.5H127.632L125.448 21H124.096ZM128.701 21V14.5H130.131V15.384C130.539 14.708 131.197 14.37 132.107 14.37C132.861 14.37 133.464 14.617 133.914 15.111C134.365 15.605 134.59 16.2637 134.59 17.087V21H133.16V17.321C133.16 16.801 133.039 16.398 132.796 16.112C132.554 15.8173 132.224 15.67 131.808 15.67C131.314 15.67 130.911 15.8563 130.599 16.229C130.287 16.6017 130.131 17.126 130.131 17.802V21H128.701ZM136.42 21V11.25H137.85V21H136.42ZM145.128 20.155C144.478 20.805 143.672 21.13 142.71 21.13C141.748 21.13 140.937 20.805 140.279 20.155C139.629 19.4963 139.304 18.6947 139.304 17.75C139.304 16.8053 139.629 16.008 140.279 15.358C140.937 14.6993 141.748 14.37 142.71 14.37C143.672 14.37 144.478 14.6993 145.128 15.358C145.786 16.008 146.116 16.8053 146.116 17.75C146.116 18.6947 145.786 19.4963 145.128 20.155ZM142.71 19.804C143.273 19.804 143.737 19.609 144.101 19.219C144.473 18.8203 144.66 18.3307 144.66 17.75C144.66 17.1693 144.473 16.684 144.101 16.294C143.737 15.8953 143.273 15.696 142.71 15.696C142.138 15.696 141.665 15.8953 141.293 16.294C140.929 16.684 140.747 17.1693 140.747 17.75C140.747 18.3307 140.929 18.8203 141.293 19.219C141.665 19.609 142.138 19.804 142.71 19.804ZM150.219 21.13C149.335 21.13 148.589 20.8007 147.983 20.142C147.385 19.4833 147.086 18.686 147.086 17.75C147.086 16.814 147.385 16.0167 147.983 15.358C148.589 14.6993 149.335 14.37 150.219 14.37C150.661 14.37 151.068 14.4697 151.441 14.669C151.813 14.8597 152.099 15.0937 152.299 15.371V14.5H153.729V21H152.299V20.129C152.099 20.4063 151.813 20.6447 151.441 20.844C151.068 21.0347 150.661 21.13 150.219 21.13ZM149.088 19.232C149.452 19.6307 149.915 19.83 150.479 19.83C151.042 19.83 151.506 19.6307 151.87 19.232C152.234 18.8333 152.416 18.3393 152.416 17.75C152.416 17.1607 152.234 16.6667 151.87 16.268C151.506 15.8693 151.042 15.67 150.479 15.67C149.915 15.67 149.452 15.8693 149.088 16.268C148.724 16.6667 148.542 17.1607 148.542 17.75C148.542 18.3393 148.724 18.8333 149.088 19.232ZM158.331 21.13C157.447 21.13 156.702 20.8007 156.095 20.142C155.497 19.4833 155.198 18.686 155.198 17.75C155.198 16.814 155.497 16.0167 156.095 15.358C156.702 14.6993 157.447 14.37 158.331 14.37C158.773 14.37 159.18 14.4697 159.553 14.669C159.926 14.8597 160.212 15.0937 160.411 15.371V11.25H161.841V21H160.411V20.129C160.212 20.4063 159.926 20.6447 159.553 20.844C159.18 21.0347 158.773 21.13 158.331 21.13ZM157.2 19.232C157.564 19.6307 158.028 19.83 158.591 19.83C159.154 19.83 159.618 19.6307 159.982 19.232C160.346 18.8333 160.528 18.3393 160.528 17.75C160.528 17.1607 160.346 16.6667 159.982 16.268C159.618 15.8693 159.154 15.67 158.591 15.67C158.028 15.67 157.564 15.8693 157.2 16.268C156.836 16.6667 156.654 17.1607 156.654 17.75C156.654 18.3393 156.836 18.8333 157.2 19.232Z" fill="white"/>
<path d="M64.1565 43.6647C63.5207 43.6647 62.9832 43.4452 62.5442 43.0061C62.1052 42.5671 61.8856 42.0297 61.8856 41.3938C61.8856 40.758 62.1052 40.2206 62.5442 39.7815C62.9832 39.3425 63.5207 39.123 64.1565 39.123C64.7772 39.123 65.3071 39.3501 65.7461 39.8042C66.2003 40.2433 66.4274 40.7731 66.4274 41.3938C66.4274 42.0145 66.2003 42.552 65.7461 43.0061C65.3071 43.4452 64.7772 43.6647 64.1565 43.6647ZM67.3652 43.483L74.314 27.3599H77.2435L84.215 43.483H80.7633L79.1964 39.8042H72.3157L70.7715 43.483H67.3652ZM75.7674 31.6972L73.5419 36.9202H77.9701L75.7674 31.6972ZM95.4141 28.9268C96.489 29.9562 97.0264 31.243 97.0264 32.7872C97.0264 34.3314 96.489 35.6258 95.4141 36.6704C94.3393 37.6999 92.9919 38.2146 91.372 38.2146H89.3055V43.483H86.0127V27.3599H91.372C92.9919 27.3599 94.3393 27.8822 95.4141 28.9268ZM93.1433 34.4677C93.5974 34.0286 93.8245 33.4685 93.8245 32.7872C93.8245 32.106 93.5974 31.5458 93.1433 31.1068C92.6891 30.6678 92.0835 30.4482 91.3266 30.4482H89.3055V35.1262H91.3266C92.0835 35.1262 92.6891 34.9067 93.1433 34.4677ZM109.694 43.483L102.7 36.1708V43.483H99.4295V27.3599H102.7V34.1952L108.513 27.3599H112.578L105.947 35.1035L113.963 43.483H109.694ZM119.743 43.483V27.3599H129.553V30.4937H123.036V33.8318H128.145V36.9656H123.036V43.483H119.743ZM132.051 43.483V27.3599H135.344V43.483H132.051ZM138.926 43.483V27.3599H142.219V40.3492H149.122V43.483H138.926ZM151.433 43.483V27.3599H161.471V30.4937H154.726V33.8091H160.108V36.9429H154.726V40.3492H161.471V43.483H151.433Z" fill="white"/>
<g clip-path="url(#clip0_42_228)">
<path d="M19.3989 22.3391C18.122 22.3391 17.0869 23.3742 17.0869 24.6511V35.4402C17.0869 36.717 18.122 37.7521 19.3989 37.7521C20.6757 37.7521 21.7108 36.717 21.7108 35.4402V24.6511C21.7108 23.3742 20.6757 22.3391 19.3989 22.3391Z" fill="#4CAF50"/>
<path d="M45.601 22.3391C44.3242 22.3391 43.2891 23.3742 43.2891 24.6511V35.4402C43.2891 36.717 44.3242 37.7521 45.601 37.7521C46.8779 37.7521 47.913 36.717 47.913 35.4402V24.6511C47.913 23.3742 46.8779 22.3391 45.601 22.3391Z" fill="#4CAF50"/>
<path d="M40.9772 22.3391H24.0229C23.5973 22.3391 23.2522 22.6842 23.2522 23.1098V35.4402C23.2518 37.2715 24.5405 38.8501 26.3348 39.2164V44.688C26.3348 45.9649 27.3699 47 28.6468 47C29.9236 47 30.9587 45.9649 30.9587 44.688V39.2934H34.0414V44.688C34.0414 45.9649 35.0765 47 36.3533 47C37.6302 47 38.6653 45.9649 38.6653 44.688V39.2164C40.4597 38.8501 41.7483 37.2715 41.7479 35.4402V23.1098C41.7479 22.6842 41.4028 22.3391 40.9772 22.3391Z" fill="#4CAF50"/>
<path d="M38.1026 13.2023L39.9814 11.325C40.2875 11.0293 40.296 10.5414 40.0003 10.2352C39.7046 9.92912 39.2168 9.92067 38.9106 10.2163C38.9042 10.2225 38.8979 10.2288 38.8917 10.2352L36.703 12.4239C34.0225 11.2595 30.9788 11.2595 28.2983 12.4239L26.1096 10.2337C25.8035 9.93801 25.3156 9.94654 25.0199 10.2527C24.7315 10.5513 24.7315 11.0248 25.0199 11.3234L26.8972 13.2022C24.6086 14.7165 23.2379 17.2829 23.2521 20.0271C23.2521 20.4527 23.5971 20.7978 24.0227 20.7978H40.9771C41.4027 20.7978 41.7478 20.4527 41.7478 20.0271C41.7619 17.283 40.3912 14.7166 38.1026 13.2023Z" fill="#4CAF50"/>
<path d="M28.6467 17.7152C29.0723 17.7152 29.4173 17.3702 29.4173 16.9446C29.4173 16.5189 29.0723 16.1739 28.6467 16.1739C28.221 16.1739 27.876 16.5189 27.876 16.9446C27.876 17.3702 28.221 17.7152 28.6467 17.7152Z" fill="#FAFAFA"/>
<path d="M36.3532 17.7152C36.7788 17.7152 37.1239 17.3702 37.1239 16.9446C37.1239 16.5189 36.7788 16.1739 36.3532 16.1739C35.9276 16.1739 35.5825 16.5189 35.5825 16.9446C35.5825 17.3702 35.9276 17.7152 36.3532 17.7152Z" fill="#FAFAFA"/>
</g>
<defs>
<clipPath id="clip0_42_228">
<rect width="37" height="37" fill="white" transform="translate(14 10)"/>
</clipPath>
</defs>
</svg>
