<svg width="200" height="60" viewBox="0 0 200 60" fill="none" xmlns="http://www.w3.org/2000/svg">
<path d="M192.593 0H7.40741C3.31641 0 0 3.35786 0 7.5V52.5C0 56.6421 3.31641 60 7.40741 60H192.593C196.684 60 200 56.6421 200 52.5V7.5C200 3.35786 196.684 0 192.593 0Z" fill="black"/>
<path d="M100.948 32.6249C99.7044 32.6309 98.49 33.0098 97.4584 33.7139C96.4269 34.418 95.6245 35.4157 95.1525 36.581C94.6805 37.7464 94.56 39.0273 94.8063 40.2619C95.0526 41.4966 95.6546 42.6297 96.5363 43.5182C97.418 44.4068 98.54 45.011 99.7605 45.2545C100.981 45.4981 102.246 45.3701 103.394 44.8867C104.543 44.4034 105.525 43.5863 106.215 42.5386C106.906 41.4909 107.274 40.2595 107.274 38.9999C107.286 38.1568 107.131 37.3199 106.817 36.5389C106.503 35.758 106.037 35.049 105.447 34.4542C104.856 33.8594 104.154 33.3909 103.381 33.0766C102.608 32.7624 101.781 32.6087 100.948 32.6249ZM100.948 42.8699C100.183 42.9241 99.4198 42.744 98.7572 42.353C98.0946 41.962 97.5634 41.3783 97.2328 40.6776C96.9022 39.9769 96.7875 39.1918 96.9034 38.4242C97.0194 37.6566 97.3608 36.942 97.8831 36.3735C98.4055 35.8049 99.0847 35.4086 99.8325 35.2361C100.58 35.0636 101.362 35.1228 102.076 35.4061C102.79 35.6893 103.404 36.1836 103.837 36.8245C104.27 37.4654 104.502 38.2234 104.504 38.9999C104.528 39.492 104.454 39.9838 104.287 40.4466C104.12 40.9093 103.864 41.3335 103.532 41.6942C103.201 42.0549 102.802 42.3447 102.358 42.5467C101.914 42.7486 101.435 42.8585 100.948 42.8699ZM87.1558 32.6249C85.9111 32.6279 84.6953 33.0043 83.6618 33.7066C82.6283 34.4089 81.8236 35.4056 81.3493 36.5707C80.8751 37.7358 80.7525 39.0172 80.9971 40.2528C81.2417 41.4884 81.8425 42.623 82.7237 43.513C83.6048 44.4031 84.7267 45.0087 85.9477 45.2535C87.1686 45.4983 88.4338 45.3712 89.5835 44.8882C90.7331 44.4053 91.7156 43.5882 92.4068 42.5401C93.098 41.4921 93.4669 40.2601 93.4669 38.9999C93.479 38.1568 93.3234 37.3199 93.0094 36.5389C92.6954 35.758 92.2294 35.049 91.6391 34.4542C91.0489 33.8594 90.3465 33.3909 89.5737 33.0766C88.8009 32.7624 87.9736 32.6087 87.141 32.6249H87.1558ZM87.1558 42.8699C86.3903 42.9272 85.6256 42.7497 84.9612 42.3608C84.2967 41.9718 83.7633 41.3893 83.4304 40.6891C83.0975 39.9889 82.9804 39.2034 83.0946 38.4349C83.2087 37.6665 83.5487 36.9506 84.0703 36.3805C84.5919 35.8104 85.2709 35.4125 86.019 35.2386C86.767 35.0647 87.5495 35.1228 88.2644 35.4055C88.9794 35.6881 89.5938 36.1821 90.0275 36.8232C90.4613 37.4643 90.6944 38.2228 90.6965 38.9999C90.7204 39.492 90.6467 39.9838 90.4798 40.4466C90.3129 40.9093 90.0562 41.3335 89.7249 41.6942C89.3935 42.0549 88.9941 42.3447 88.5504 42.5467C88.1066 42.7486 87.6274 42.8585 87.141 42.8699H87.1558ZM70.7261 34.5899V37.2899H77.1261C77.0258 38.5616 76.5037 39.7616 75.6447 40.6949C75.0044 41.3553 74.2346 41.8726 73.385 42.2136C72.5353 42.5546 71.6246 42.7118 70.7113 42.6749C68.8253 42.6749 67.0166 41.9164 65.683 40.5661C64.3494 39.2158 63.6002 37.3845 63.6002 35.4749C63.6002 33.5654 64.3494 31.734 65.683 30.3838C67.0166 29.0335 68.8253 28.2749 70.7113 28.2749C72.5155 28.2451 74.2576 28.941 75.5558 30.2099L77.4373 28.3049C76.5609 27.4065 75.5154 26.6953 74.3626 26.2134C73.2098 25.7316 71.9732 25.489 70.7261 25.4999C69.4091 25.448 68.0953 25.6659 66.8634 26.1404C65.6315 26.6149 64.5068 27.3363 63.5569 28.2614C62.607 29.1866 61.8512 30.2963 61.335 31.5242C60.8188 32.7521 60.5527 34.0729 60.5527 35.4074C60.5527 36.7419 60.8188 38.0627 61.335 39.2906C61.8512 40.5185 62.607 41.6283 63.5569 42.5534C64.5068 43.4785 65.6315 44.2 66.8634 44.6745C68.0953 45.149 69.4091 45.3668 70.7261 45.3149C71.9942 45.3729 73.2599 45.1553 74.4379 44.6766C75.616 44.198 76.6791 43.4694 77.5558 42.5399C79.1079 40.8133 79.9366 38.5436 79.8669 36.2099C79.8717 35.6414 79.8221 35.0738 79.7187 34.5149L70.7261 34.5899ZM137.852 36.6899C137.466 35.539 136.743 34.5341 135.78 33.8082C134.817 33.0823 133.659 32.6697 132.459 32.6249C131.649 32.6233 130.847 32.79 130.103 33.1147C129.359 33.4394 128.688 33.9152 128.133 34.5127C127.577 35.1102 127.149 35.8167 126.874 36.5885C126.599 37.3603 126.483 38.181 126.534 38.9999C126.516 39.8383 126.665 40.6717 126.972 41.4505C127.279 42.2292 127.738 42.9372 128.322 43.5323C128.905 44.1273 129.601 44.5972 130.368 44.9138C131.135 45.2304 131.957 45.3872 132.785 45.3749C133.822 45.3806 134.843 45.1259 135.758 44.6338C136.674 44.1417 137.454 43.4274 138.03 42.5549L135.882 41.0549C135.561 41.5961 135.107 42.0437 134.564 42.354C134.022 42.6643 133.409 42.8265 132.785 42.8249C132.144 42.8497 131.509 42.6784 130.965 42.3333C130.421 41.9882 129.992 41.4853 129.734 40.8899L138.163 37.3649L137.852 36.6899ZM129.259 38.8199C129.229 38.356 129.291 37.8906 129.441 37.4511C129.591 37.0116 129.826 36.6068 130.132 36.2603C130.438 35.9139 130.81 35.6328 131.225 35.4336C131.64 35.2343 132.09 35.1209 132.548 35.0999C133.026 35.0681 133.503 35.179 133.919 35.419C134.335 35.659 134.672 36.0175 134.889 36.4499L129.259 38.8199ZM122.415 44.9999H125.185V26.2499H122.415V44.9999ZM117.882 34.0499H117.778C117.36 33.5773 116.849 33.1993 116.277 32.9408C115.705 32.6823 115.086 32.5491 114.459 32.5499C112.84 32.6294 111.314 33.3366 110.196 34.5248C109.078 35.713 108.454 37.2913 108.454 38.9324C108.454 40.5736 109.078 42.1518 110.196 43.3401C111.314 44.5283 112.84 45.2354 114.459 45.3149C115.087 45.3256 115.71 45.1969 116.283 44.9377C116.856 44.6785 117.367 44.2953 117.778 43.8149H117.867V44.7299C117.867 47.1749 116.578 48.4799 114.504 48.4799C113.813 48.4636 113.143 48.2394 112.578 47.8361C112.014 47.4327 111.58 46.8684 111.334 46.2149L108.919 47.2349C109.373 48.3545 110.148 49.311 111.143 49.9818C112.138 50.6526 113.308 51.0072 114.504 50.9999C117.748 50.9999 120.43 49.0649 120.43 44.3549V32.9999H117.882V34.0499ZM114.711 42.8699C113.756 42.7847 112.866 42.34 112.218 41.6237C111.571 40.9073 111.211 39.9713 111.211 38.9999C111.211 38.0286 111.571 37.0925 112.218 36.3762C112.866 35.6598 113.756 35.2152 114.711 35.1299C115.185 35.1545 115.649 35.2749 116.076 35.484C116.504 35.693 116.885 35.9865 117.199 36.3472C117.512 36.7078 117.751 37.1283 117.901 37.5839C118.052 38.0395 118.11 38.521 118.074 38.9999C118.115 39.481 118.058 39.9653 117.909 40.4237C117.759 40.882 117.519 41.3049 117.203 41.6666C116.887 42.0284 116.502 42.3215 116.072 42.5284C115.641 42.7352 115.173 42.8514 114.697 42.8699H114.711ZM150.83 26.2499H144.208V44.9999H146.978V37.8899H150.845C151.634 37.9474 152.427 37.8395 153.174 37.573C153.92 37.3066 154.604 36.8872 155.184 36.3412C155.763 35.7951 156.226 35.134 156.542 34.3992C156.858 33.6643 157.021 32.8714 157.021 32.0699C157.021 31.2684 156.858 30.4755 156.542 29.7407C156.226 29.0058 155.763 28.3447 155.184 27.7987C154.604 27.2526 153.92 26.8333 153.174 26.5668C152.427 26.3004 151.634 26.1925 150.845 26.2499H150.83ZM150.83 35.2499H146.963V28.8599H150.889C151.732 28.8599 152.54 29.1989 153.136 29.8023C153.732 30.4057 154.067 31.2241 154.067 32.0774C154.067 32.9308 153.732 33.7492 153.136 34.3525C152.54 34.9559 151.732 35.2949 150.889 35.2949L150.83 35.2499ZM167.911 32.5499C166.903 32.4889 165.899 32.7275 165.022 33.2365C164.146 33.7455 163.435 34.5027 162.978 35.4149L165.437 36.4499C165.68 35.9975 166.047 35.6261 166.494 35.3811C166.941 35.1361 167.449 35.028 167.956 35.0699C168.307 35.0283 168.664 35.0581 169.004 35.1574C169.344 35.2568 169.661 35.4237 169.937 35.6485C170.213 35.8733 170.442 36.1515 170.61 36.4668C170.779 36.7821 170.884 37.1282 170.919 37.4849V37.6799C170.029 37.2029 169.037 36.9556 168.03 36.9599C165.378 36.9599 162.697 38.4599 162.697 41.1749C162.723 41.7538 162.863 42.3216 163.11 42.8445C163.356 43.3675 163.704 43.8351 164.132 44.2196C164.56 44.6042 165.06 44.8979 165.603 45.0835C166.145 45.2691 166.718 45.3426 167.289 45.2999C167.987 45.3507 168.685 45.2103 169.311 44.8936C169.936 44.5769 170.466 44.0955 170.845 43.4999H170.934V44.9999H173.6V37.7849C173.6 34.4999 171.141 32.5949 167.985 32.5949L167.911 32.5499ZM167.571 42.8249C166.667 42.8249 165.408 42.3599 165.408 41.2349C165.408 39.7349 166.978 39.2399 168.371 39.2399C169.251 39.2179 170.12 39.4355 170.889 39.8699C170.796 40.682 170.417 41.4329 169.821 41.9842C169.225 42.5354 168.452 42.85 167.645 42.8699L167.571 42.8249ZM183.319 32.9999L180.148 41.1299H180.059L176.771 32.9999H173.808L178.741 44.3699L175.926 50.6849H178.815L186.4 32.9999H183.319ZM158.415 44.9999H161.185V26.2499H158.415V44.9999Z" fill="white"/>
<path d="M70.1594 15.4538C70.1846 16.004 70.0991 16.5536 69.9081 17.0693C69.7171 17.585 69.4246 18.056 69.0483 18.4538C68.6282 18.8957 68.1208 19.243 67.5592 19.473C66.9976 19.703 66.3944 19.8106 65.789 19.7888C64.8705 19.7815 63.9745 19.4999 63.2133 18.9793C62.4522 18.4587 61.8596 17.7222 61.5101 16.8622C61.1605 16.0021 61.0694 15.0567 61.2481 14.1444C61.4269 13.2322 61.8676 12.3936 62.515 11.7338C62.9405 11.294 63.4506 10.9472 64.0137 10.715C64.5769 10.4828 65.1811 10.3701 65.789 10.3838C66.4153 10.3817 67.0355 10.5093 67.6113 10.7588C68.1473 10.9777 68.6246 11.3221 69.0038 11.7638L68.2187 12.5588C67.923 12.2027 67.5495 11.9211 67.1279 11.7363C66.7062 11.5514 66.2478 11.4684 65.789 11.4938C65.3263 11.4915 64.8678 11.5838 64.4412 11.7653C64.0145 11.9467 63.6285 12.2135 63.3061 12.5497C62.9838 12.8859 62.7318 13.2845 62.5653 13.7217C62.3988 14.1588 62.3212 14.6255 62.3372 15.0938C62.3275 15.793 62.5225 16.4795 62.8977 17.0666C63.2728 17.6537 63.8113 18.1151 64.4452 18.3927C65.0791 18.6703 65.78 18.7516 66.4595 18.6263C67.1389 18.501 67.7665 18.1748 68.2631 17.6888C68.719 17.1886 68.9819 16.5391 69.0038 15.8588H65.789V14.7788H70.1001C70.1397 15.0016 70.1595 15.2275 70.1594 15.4538ZM76.9446 11.7038H72.9446V14.5538H76.589V15.6338H72.9446V18.4838H76.9446V19.5938H71.7594V10.5938H76.9446V11.7038ZM81.8038 19.5938H80.6631V11.7038H78.1742V10.5938H84.352V11.7038H81.8038V19.5938ZM88.7076 19.5938V10.5938H89.8483V19.5938H88.7076ZM94.915 19.5938H93.7742V11.7038H91.2853V10.5938H97.389V11.7038H94.915V19.5938ZM108.959 18.4238C108.093 19.2958 106.922 19.7853 105.7 19.7853C104.479 19.7853 103.307 19.2958 102.441 18.4238C101.599 17.5216 101.13 16.3275 101.13 15.0863C101.13 13.8451 101.599 12.651 102.441 11.7488C102.868 11.3134 103.376 10.9679 103.935 10.7321C104.494 10.4963 105.094 10.3749 105.7 10.3749C106.306 10.3749 106.906 10.4963 107.465 10.7321C108.025 10.9679 108.533 11.3134 108.959 11.7488C109.805 12.6493 110.276 13.8441 110.276 15.0863C110.276 16.3285 109.805 17.5233 108.959 18.4238ZM103.285 17.6738C103.927 18.3205 104.795 18.6836 105.7 18.6836C106.605 18.6836 107.474 18.3205 108.115 17.6738C108.748 16.9673 109.099 16.0476 109.099 15.0938C109.099 14.14 108.748 13.2203 108.115 12.5138C107.474 11.8671 106.605 11.504 105.7 11.504C104.795 11.504 103.927 11.8671 103.285 12.5138C102.652 13.2203 102.302 14.14 102.302 15.0938C102.302 16.0476 102.652 16.9673 103.285 17.6738ZM111.878 19.5938V10.5938H113.271L117.596 17.5988V10.5938H118.737V19.5938H117.552L113.033 12.2588V19.5938H111.878Z" fill="white"/>
<path fill-rule="evenodd" clip-rule="evenodd" d="M105.7 10.5249C105.114 10.5249 104.533 10.6423 103.992 10.8705C103.451 11.0985 102.96 11.4324 102.547 11.8532C101.732 12.7274 101.278 13.8841 101.278 15.0863C101.278 16.2884 101.732 17.4449 102.547 18.3191C103.385 19.1621 104.519 19.6353 105.7 19.6353C106.882 19.6353 108.015 19.1621 108.853 18.3189C109.672 17.4465 110.128 16.2894 110.128 15.0863C110.128 13.8831 109.671 12.7258 108.853 11.8534C108.44 11.4325 107.949 11.0985 107.408 10.8705C106.867 10.6423 106.287 10.5249 105.7 10.5249ZM103.878 10.5936C104.455 10.3502 105.075 10.2249 105.7 10.2249C106.326 10.2249 106.945 10.3502 107.522 10.5936C108.1 10.837 108.624 11.1937 109.065 11.6431L109.067 11.6455C109.938 12.5738 110.424 13.8056 110.424 15.0863C110.424 16.367 109.938 17.5988 109.067 18.5271L109.064 18.5302C108.17 19.4302 106.961 19.9353 105.7 19.9353C104.44 19.9353 103.23 19.4301 102.336 18.5302L102.333 18.5269C101.465 17.5968 100.982 16.3658 100.982 15.0863C100.982 13.8068 101.465 12.5759 102.333 11.6458L102.336 11.6431C102.776 11.1937 103.301 10.837 103.878 10.5936ZM65.7857 10.5338C65.1981 10.5205 64.614 10.6295 64.0696 10.854C63.5252 11.0784 63.0321 11.4136 62.6208 11.8388L62.6201 11.8395C61.9932 12.4784 61.5665 13.2903 61.3934 14.1736C61.2203 15.0569 61.3086 15.9723 61.6471 16.8051C61.9855 17.6378 62.5592 18.3509 63.2963 18.855C64.0333 19.3591 64.9008 19.6318 65.7902 19.6388L65.7943 19.6388C66.3789 19.6599 66.9613 19.5561 67.5036 19.3339C68.0458 19.1118 68.5357 18.7766 68.9414 18.3499C69.3038 17.9669 69.5854 17.5133 69.7694 17.0166C69.9533 16.52 70.0357 15.9906 70.0114 15.4607L70.1594 15.4538L70.0113 15.4537C70.0113 15.278 69.9989 15.1026 69.9741 14.9288H65.9372V15.7088H69.1569L69.1519 15.8637C69.1288 16.5799 68.852 17.2639 68.372 17.7905L68.3662 17.7968C67.8486 18.3034 67.1943 18.6433 66.486 18.7739C65.7778 18.9044 65.0472 18.8197 64.3864 18.5304C63.7257 18.241 63.1644 17.76 62.7733 17.148C62.3829 16.5371 62.1796 15.8229 62.189 15.0953C62.1729 14.6081 62.2538 14.1226 62.4271 13.6677C62.6008 13.2117 62.8636 12.7959 63.1998 12.4452C63.5361 12.0946 63.9388 11.8163 64.3838 11.627C64.8275 11.4383 65.3042 11.342 65.7854 11.3438C66.2656 11.3179 66.7453 11.4051 67.1867 11.5986C67.5801 11.771 67.9335 12.0237 68.2252 12.3401L68.7995 11.7586C68.4517 11.3844 68.0275 11.0905 67.5558 10.8979L67.553 10.8967C66.9957 10.6553 66.3956 10.5318 65.7895 10.5338L65.7857 10.5338ZM70.3076 15.4504C70.3331 16.0197 70.2444 16.5883 70.0468 17.122C69.8488 17.6567 69.5454 18.1451 69.1553 18.5576C68.7207 19.0146 68.1956 19.3741 67.6147 19.612C67.0345 19.8497 66.4113 19.961 65.7858 19.9388C64.8388 19.9309 63.9152 19.6404 63.1304 19.1036C62.3451 18.5665 61.7337 17.8066 61.3731 16.9193C61.0124 16.0319 60.9184 15.0565 61.1028 14.1152C61.2872 13.1742 61.7417 12.3091 62.4095 11.6285C62.8491 11.1742 63.3761 10.816 63.9579 10.5761C64.5392 10.3364 65.1629 10.2199 65.7904 10.2338C66.4358 10.2319 67.0747 10.3634 67.6681 10.6203C68.2253 10.8481 68.7214 11.2062 69.1156 11.6654L69.2063 11.771L68.2092 12.7805L68.1053 12.6553C67.8244 12.317 67.4696 12.0495 67.069 11.8739C66.6684 11.6983 66.233 11.6195 65.7971 11.6436L65.7883 11.6441C65.3455 11.6419 64.9068 11.73 64.4986 11.9036C64.0903 12.0772 63.7209 12.3325 63.4124 12.6542C63.104 12.9759 62.8629 13.3573 62.7035 13.7756C62.5442 14.194 62.47 14.6406 62.4852 15.0886L62.4855 15.0959C62.4762 15.7655 62.6628 16.4229 63.0221 16.9851C63.3813 17.5473 63.897 17.9892 64.504 18.255C65.1111 18.5208 65.7823 18.5987 66.4329 18.4787C67.0822 18.359 67.682 18.0477 68.1571 17.5839C68.5524 17.1488 68.7939 16.5948 68.8464 16.0088H65.6409V14.6288H70.2241L70.246 14.7523C70.2868 14.9827 70.3074 15.2163 70.3076 15.4504ZM71.6113 10.4438H77.0927V11.8538H73.0927V14.4038H76.7372V15.7838H73.0927V18.3338H77.0927V19.7438H71.6113V10.4438ZM71.9076 10.7438V19.4438H76.7964V18.6338H72.7964V15.4838H76.4409V14.7038H72.7964V11.5538H76.7964V10.7438H71.9076ZM78.0261 10.4438H84.5001V11.8538H81.952V19.7438H80.515V11.8538H78.0261V10.4438ZM78.3224 10.7438V11.5538H80.8113V19.4438H81.6557V11.5538H84.2038V10.7438H78.3224ZM88.5594 10.4438H89.9964V19.7438H88.5594V10.4438ZM88.8557 10.7438V19.4438H89.7001V10.7438H88.8557ZM91.1372 10.4438H97.5372V11.8538H95.0631V19.7438H93.6261V11.8538H91.1372V10.4438ZM91.4335 10.7438V11.5538H93.9224V19.4438H94.7668V11.5538H97.2409V10.7438H91.4335ZM111.73 10.4438H113.353L117.448 17.076V10.4438H118.885V19.7438H117.47L113.182 12.7827V19.7438H111.73V10.4438ZM112.026 10.7438V19.4438H112.885V11.7349L117.634 19.4438H118.589V10.7438H117.745V18.1216L113.188 10.7438H112.026ZM103.181 12.4075C103.85 11.7328 104.756 11.354 105.7 11.354C106.644 11.354 107.55 11.7328 108.219 12.4075L108.225 12.4129C108.882 13.147 109.247 14.1027 109.247 15.0938C109.247 16.0849 108.882 17.0405 108.225 17.7746L108.22 17.7802C107.55 18.4549 106.644 18.8336 105.7 18.8336C104.756 18.8336 103.85 18.4548 103.181 17.7801L103.285 17.6738L103.176 17.7746C102.518 17.0405 102.154 16.0849 102.154 15.0938C102.154 14.1027 102.518 13.1471 103.176 12.413L103.181 12.4075ZM103.393 17.5702C104.006 18.1872 104.835 18.5336 105.7 18.5336C106.565 18.5336 107.394 18.1872 108.008 17.5702C108.614 16.8917 108.95 16.0091 108.95 15.0938C108.95 14.1785 108.614 13.2959 108.008 12.6174C107.394 12.0004 106.565 11.654 105.7 11.654C104.835 11.654 104.006 12.0004 103.393 12.6174C102.786 13.2959 102.45 14.1785 102.45 15.0938C102.45 16.0091 102.786 16.8917 103.393 17.5702Z" fill="white"/>
<path d="M15.4668 11.31C14.984 11.8966 14.7402 12.6477 14.7853 13.41V46.59C14.7402 47.3523 14.984 48.1033 15.4668 48.69L15.5705 48.795L33.9261 30.225V29.79L15.5705 11.205L15.4668 11.31Z" fill="url(#paint0_linear_42_96)"/>
<path d="M40.0001 36.42L33.926 30.225V29.79L40.0001 23.58L40.1334 23.655L47.4075 27.84C49.4816 29.025 49.4816 30.975 47.4075 32.175L40.1631 36.345L40.0001 36.42Z" fill="url(#paint1_linear_42_96)"/>
<path d="M40.1774 36.3299L33.9256 29.9999L15.4663 48.6899C15.8891 49.0662 16.4284 49.2811 16.991 49.2976C17.5537 49.314 18.1043 49.1309 18.5478 48.7799L40.1922 36.3299" fill="url(#paint2_linear_42_96)"/>
<path d="M40.1778 23.67L18.5334 11.22C18.0899 10.869 17.5393 10.6859 16.9766 10.7024C16.414 10.7188 15.8747 10.9337 15.4519 11.31L33.926 30L40.1778 23.67Z" fill="url(#paint3_linear_42_96)"/>
<path opacity="0.2" d="M39.9996 36.1949L18.533 48.5699C18.1053 48.8937 17.5855 49.0687 17.0515 49.0687C16.5174 49.0687 15.9977 48.8937 15.57 48.5699L15.4663 48.6749L15.57 48.7799C15.9968 49.106 16.5168 49.2825 17.0515 49.2825C17.5861 49.2825 18.1062 49.106 18.533 48.7799L40.1774 36.3299L39.9996 36.1949Z" fill="black"/>
<path opacity="0.12" d="M15.4668 48.4799C14.984 47.8933 14.7402 47.1422 14.7853 46.3799V46.6049C14.7402 47.3672 14.984 48.1183 15.4668 48.7049L15.5705 48.5999L15.4668 48.4799ZM47.4076 31.9499L40.0002 36.1949L40.1335 36.3299L47.4076 32.1599C47.8203 31.9636 48.1746 31.6606 48.4347 31.2813C48.6948 30.9021 48.8515 30.4601 48.889 29.9999C48.8057 30.418 48.6289 30.8112 48.372 31.1492C48.1152 31.4872 47.7853 31.7612 47.4076 31.9499Z" fill="black"/>
<path opacity="0.25" d="M18.5332 11.4294L47.4073 28.0494C47.785 28.2382 48.115 28.5121 48.3718 28.8502C48.6286 29.1882 48.8055 29.5814 48.8888 29.9994C48.8513 29.5393 48.6946 29.0973 48.4344 28.718C48.1743 28.3388 47.82 28.0357 47.4073 27.8394L18.5332 11.2194C16.4592 10.0344 14.7703 11.0244 14.7703 13.4244V13.6494C14.8147 11.2344 16.474 10.2444 18.5332 11.4294Z" fill="white"/>
<defs>
<linearGradient id="paint0_linear_42_96" x1="32.2964" y1="13.065" x2="7.12839" y2="37.9223" gradientUnits="userSpaceOnUse">
<stop stop-color="#00A0FF"/>
<stop offset="0.01" stop-color="#00A1FF"/>
<stop offset="0.26" stop-color="#00BEFF"/>
<stop offset="0.51" stop-color="#00D2FF"/>
<stop offset="0.76" stop-color="#00DFFF"/>
<stop offset="1" stop-color="#00E3FF"/>
</linearGradient>
<linearGradient id="paint1_linear_42_96" x1="50.1186" y1="30" x2="14.2816" y2="30" gradientUnits="userSpaceOnUse">
<stop stop-color="#FFE000"/>
<stop offset="0.41" stop-color="#FFBD00"/>
<stop offset="0.78" stop-color="#FFA500"/>
<stop offset="1" stop-color="#FF9C00"/>
</linearGradient>
<linearGradient id="paint2_linear_42_96" x1="36.7848" y1="33.4499" x2="2.64765" y2="67.1509" gradientUnits="userSpaceOnUse">
<stop stop-color="#FF3A44"/>
<stop offset="1" stop-color="#C31162"/>
</linearGradient>
<linearGradient id="paint3_linear_42_96" x1="10.8149" y1="0.270013" x2="26.0537" y2="15.3207" gradientUnits="userSpaceOnUse">
<stop stop-color="#32A071"/>
<stop offset="0.07" stop-color="#2DA771"/>
<stop offset="0.48" stop-color="#15CF74"/>
<stop offset="0.8" stop-color="#06E775"/>
<stop offset="1" stop-color="#00F076"/>
</linearGradient>
</defs>
</svg>
